<?xml version="1.0" standalone="no"?>
<!DOCTYPE svg PUBLIC "-//W3C//DTD SVG 1.1//EN" "http://www.w3.org/Graphics/SVG/1.1/DTD/svg11.dtd" >
<svg xmlns="http://www.w3.org/2000/svg" xmlns:xlink="http://www.w3.org/1999/xlink" version="1.1">
<metadata>
Created by FontForge 20201107 at Sun May 16 22:05:37 2021
 By 
</metadata>
<defs>
<font id="Barracuda-LightItalic" horiz-adv-x="562" >
  <font-face 
    font-family="Barracuda Light"
    font-weight="300"
    font-style="italic"
    font-stretch="normal"
    units-per-em="1000"
    panose-1="0 0 0 0 0 0 0 0 0 0"
    ascent="800"
    descent="-200"
    x-height="488"
    cap-height="696"
    bbox="-132732 -258 1684 912"
    underline-thickness="50"
    underline-position="-125"
    unicode-range="U+000D-FB02"
  />
<missing-glyph horiz-adv-x="240" 
 />
    <glyph glyph-name=".notdef" horiz-adv-x="240" 
 />
    <glyph glyph-name=".null" horiz-adv-x="0" 
 />
    <glyph glyph-name=".null" horiz-adv-x="0" 
 />
    <glyph glyph-name="uni000D" unicode="&#xd;" horiz-adv-x="240" 
 />
    <glyph glyph-name="space" unicode=" " horiz-adv-x="250" 
 />
    <glyph glyph-name="exclam" unicode="!" horiz-adv-x="259" 
d="M199 696h71l-80 -523h-71zM103 73h72l-11 -73h-72z" />
    <glyph glyph-name="quotedbl" unicode="&#x22;" horiz-adv-x="398" 
d="M191 696h71l-21 -140h-71zM357 696h71l-21 -140h-71z" />
    <glyph glyph-name="numbersign" unicode="#" horiz-adv-x="750" 
d="M163 134h-113l11 73h132l54 122h-95l11 72h114l127 295h75l-127 -295h225l127 295h75l-127 -295h132l-11 -72h-151l-53 -122h113l-11 -73h-133l-57 -134h-77l59 134h-225l-57 -134h-76zM493 207l54 122h-225l-52 -122h223z" />
    <glyph glyph-name="dollar" unicode="$" horiz-adv-x="539" 
d="M182 231v-8q0 -33 7.5 -62.5t26 -51t48.5 -32.5q14 -6 31 -9l43 279q-22 5 -42 12q-22 8 -43 18q-38 21 -60 54q-11 19 -12.5 34.5t-1.5 22.5q0 17 4 36q7 47 29 81t54.5 56t72.5 33q26 7 54 10l6 39h71l-6 -40q24 -3 45 -10q38 -12 63.5 -36t36.5 -55t11 -65
q0 -11 -1 -23h-71q-6 99 -96 115l-35 -229l5 -1q9 -2 17 -5q35 -11 66.5 -25.5t53.5 -36.5t30.5 -47.5t8.5 -49.5q0 -17 -3 -35q-2 -14 -7 -30t-11 -32q-16 -43 -45.5 -72t-71.5 -49q-29 -15 -61 -20q-23 -3 -44 -4l-13 -83h-71l13 85l-24 4q-36 8 -65 24.5t-50 42.5t-31 63
q-8 24 -8 47q0 2 0.5 15t4.5 40h71zM382 630q-8 -1 -15 -2q-26 -5 -49 -16.5t-40.5 -32t-22.5 -52.5q-1 -8 -1 -15q0 -24 14 -42.5t41 -32.5q13 -7 29 -12q5 -3 11 -5zM366 66l26 4q30 4 56.5 17.5t46.5 37.5t26 62q2 12 2 23q0 12 -3 29t-20 35q-14 15 -33.5 26.5
t-40.5 20.5q-10 3 -20 7z" />
    <glyph glyph-name="percent" unicode="%" horiz-adv-x="803" 
d="M667 696h77l-486 -696h-76zM141 530q5 30 20 56.5t37 46t49.5 31t57.5 11.5q29 0 53 -11.5t40 -31t22 -40.5t6 -39q0 -11 -2 -23q-5 -30 -20 -56t-37.5 -45.5t-50 -31t-56.5 -11.5t-53 11.5t-40 31t-21.5 41t-5.5 39.5q0 10 1 21zM271 456q15 0 29 6t25.5 16t19.5 23.5
t11 28.5q1 7 1 13q0 23 -16 43t-47 20q-32 0 -56 -22.5t-29 -53.5q-1 -6 -1 -12q0 -23 16.5 -42.5t46.5 -19.5zM496 172q5 30 20 56t37.5 45.5t50 31t56.5 11.5q30 0 54 -11.5t40 -31t21.5 -40t5.5 -37.5q0 -11 -2 -24q-4 -30 -19.5 -56t-37.5 -45.5t-49.5 -31t-57.5 -11.5
q-29 0 -53 11.5t-40 31t-21.5 41t-5.5 39.5q0 10 1 21zM626 97q30 0 54.5 22t29.5 53q1 7 1 14q0 22 -15 41.5t-47 19.5q-31 0 -55.5 -22t-29.5 -53q-1 -6 -1 -13q0 -23 17 -42.5t46 -19.5z" />
    <glyph glyph-name="ampersand" unicode="&#x26;" horiz-adv-x="722" 
d="M263 698h382l-24 -157h-71l13 85h-239l-25 -162l20 9q43 23 94 26l-11 -69q-35 -3 -65 -20t-53.5 -42.5t-38.5 -57.5t-20 -64q-2 -15 -2 -30q0 -18 4.5 -43.5t21.5 -52t44.5 -42.5t64.5 -16t69 16t56.5 42.5t40.5 59.5t21 66l2 12h-72l11 72h194l-11 -72h-49l-2 -12
q-8 -50 -32.5 -95.5t-61 -80.5t-82 -56t-95.5 -21t-90 20.5t-66 55.5t-34 71t-8 64q0 20 3 42q6 38 21 74.5t41 69.5l2 3z" />
    <glyph glyph-name="quotesingle" unicode="'" horiz-adv-x="215" 
d="M178 696h71l-21 -140h-71z" />
    <glyph glyph-name="parenleft" unicode="(" horiz-adv-x="290" 
d="M112 0q-8 87 -9 135.5t-1 59.5q0 75 12 153q14 89 42 175.5t63 172.5h73q-37 -85 -64.5 -171.5t-41.5 -176.5q-13 -84 -13 -165q0 -6 0.5 -52t11.5 -131h-73z" />
    <glyph glyph-name="parenright" unicode=")" horiz-adv-x="290" 
d="M81 0q38 85 65.5 171.5t41.5 176.5q13 84 13 165q0 6 -0.5 52t-12.5 131h73q10 -86 11 -133.5t1 -55.5q0 -79 -13 -159q-14 -89 -42 -175t-64 -173h-73z" />
    <glyph glyph-name="asterisk" unicode="*" horiz-adv-x="383" 
d="M285 696h28l-30 -105zM201 664l49 -82l-71 62zM386 664l17 -20l-93 -63zM133 564l93 -13l-97 -14zM425 564l-4 -27l-94 14zM301 520l73 -64l-23 -19zM241 520l-75 -83l-16 19zM270 509l-2 -105h-28z" />
    <glyph glyph-name="plus" unicode="+" horiz-adv-x="393" 
d="M121 391h105l16 106h71l-16 -106h104l-11 -73h-104l-16 -106h-71l16 106h-105z" />
    <glyph glyph-name="comma" unicode="," horiz-adv-x="210" 
d="M117 71h75l-96 -139h-77z" />
    <glyph glyph-name="hyphen" unicode="-" horiz-adv-x="312" 
d="M120 327h183l-11 -73h-183z" />
    <glyph glyph-name="period" unicode="." horiz-adv-x="174" 
d="M63 72h71l-11 -72h-71z" />
    <glyph glyph-name="slash" unicode="/" horiz-adv-x="526" 
d="M525 696h76l-485 -696h-77z" />
    <glyph glyph-name="zero" unicode="0" horiz-adv-x="516" 
d="M159 696h419l-107 -696h-419zM410 73l85 550h-275l-85 -550h275z" />
    <glyph glyph-name="one" unicode="1" horiz-adv-x="289" 
d="M37 72h86l76 496h-86l12 73h19q24 0 44.5 15.5t29.5 39.5h71l-96 -624h85l-11 -72h-241z" />
    <glyph glyph-name="two" unicode="2" horiz-adv-x="515" 
d="M99 303h237q33 0 63.5 13t54.5 35.5t40.5 51.5t21.5 62q2 13 2 26q0 19 -6 42t-24 44.5t-44 34.5t-59 13h-237l11 71h237q47 0 84.5 -18.5t62.5 -50t34 -65.5t9 -61q0 -18 -3 -36q-7 -47 -31 -89.5t-59 -75t-78.5 -51.5t-90.5 -19h-166l-24 -158h347l-11 -72h-418z" />
    <glyph glyph-name="three" unicode="3" horiz-adv-x="480" 
d="M63 71h161q33 0 63 13t54 35.5t40 52t21 61.5q2 13 2 26q0 18 -5.5 41.5t-23 45.5t-43 35t-58.5 13h-87l11 72h237l24 158h-311l11 72h382l-46 -302h-60l12 -20q17 -31 21.5 -58t4.5 -45q0 -19 -3 -38q-7 -48 -31 -90t-58.5 -74t-77.5 -50.5t-90 -18.5h-161z" />
    <glyph glyph-name="four" unicode="4" horiz-adv-x="481" 
d="M159 696h71l-75 -490h241l75 490h71l-107 -696h-71l21 134h-312z" />
    <glyph glyph-name="five" unicode="5" horiz-adv-x="516" 
d="M63 72h205q32 0 62.5 13t55.5 34.5t42 51t22 62.5q2 13 2 25q0 19 -6.5 42.5t-24.5 45.5t-44.5 35t-58.5 13h-205l46 302h382l-11 -72h-311l-24 -158h134q47 0 85 -18.5t63.5 -50.5t34 -65.5t8.5 -61.5q0 -18 -3 -37q-7 -48 -31 -90t-59.5 -74t-79 -50.5t-90.5 -18.5
h-205z" />
    <glyph glyph-name="six" unicode="6" horiz-adv-x="520" 
d="M191 409q66 47 145 47q47 0 85.5 -18.5t64 -50.5t34 -65t8.5 -60q0 -19 -3 -39q-7 -48 -31.5 -90.5t-60.5 -73.5t-80.5 -49t-91.5 -18t-85.5 18.5t-64 50t-34.5 65.5t-9 62q0 17 3 36l73 472h381l-11 -71h-310l-35 -230zM139 224q-2 -13 -2 -25q0 -20 7 -44t25.5 -45.5
t46 -34t60.5 -12.5t63.5 13t55 34.5t41 51t21.5 62.5q2 13 2 25q0 20 -6.5 44t-25.5 45.5t-46 33.5t-60 12t-63.5 -13t-55 -34.5t-41.5 -50.5t-22 -62z" />
    <glyph glyph-name="seven" unicode="7" horiz-adv-x="470" 
d="M453 624h-315l11 72h382q-1 -8 -2.5 -17.5t-3.5 -20.5q-2 -9 -2.5 -17.5t-2.5 -14.5q0 -3 -0.5 -5.5t-0.5 -4.5l-259 -616h-70z" />
    <glyph glyph-name="eight" unicode="8" horiz-adv-x="520" 
d="M180 696h382l-53 -346l1 -3q12 -28 15 -50.5t3 -37.5q0 -18 -3 -36q-7 -48 -31.5 -90.5t-60.5 -74t-80 -49.5t-92 -18q-47 0 -85.5 18.5t-64 50t-34.5 65.5t-9 62q0 17 3 36q5 33 19 64t34 59l3 3zM228 431q53 25 108 25q52 0 96 -25l17 -9l31 202h-240l-31 -202z
M138 223q-2 -13 -2 -25q0 -20 7 -44t26 -45.5t46.5 -33.5t60.5 -12q32 0 62.5 13t55.5 34.5t41.5 50.5t21.5 62q2 13 2 25q0 20 -6.5 44t-25.5 45.5t-46 33.5t-60 12t-63.5 -12.5t-55.5 -34.5t-42 -51t-22 -62z" />
    <glyph glyph-name="nine" unicode="9" horiz-adv-x="534" 
d="M108 0l11 71h310l35 231l-22 -15q-32 -23 -68 -34.5t-73 -11.5q-48 0 -87 18t-65 49t-35 65t-9 63q0 18 3 37q7 47 31 89.5t59.5 74t79.5 50t90 18.5q48 0 87.5 -18t65.5 -49.5t35 -65.5t9 -61q0 -19 -3 -39l-73 -472h-381zM494 472q2 13 2 25q0 19 -6.5 42.5t-24.5 45.5
t-44.5 35t-59.5 13t-64 -12t-56 -34t-42.5 -51t-22.5 -64q-2 -13 -2 -25q0 -19 6.5 -42.5t24.5 -45t44.5 -34.5t58.5 -13q33 0 64 12t56.5 33.5t43 51t22.5 63.5z" />
    <glyph glyph-name="colon" unicode=":" horiz-adv-x="258" 
d="M169 497h71l-11 -72h-71zM104 72h71l-11 -72h-71z" />
    <glyph glyph-name="semicolon" unicode=";" horiz-adv-x="258" 
d="M209 497h71l-11 -72h-71zM145 71h75l-96 -139h-77z" />
    <glyph glyph-name="less" unicode="&#x3c;" 
d="M129 420l476 176l-12 -74l-402 -149l-7 -45l357 -148l-12 -76l-422 176z" />
    <glyph glyph-name="equal" unicode="=" 
d="M207 497h313l-11 -72h-313zM178 308h313l-11 -72h-313z" />
    <glyph glyph-name="greater" unicode="&#x3e;" 
d="M92 180l400 148l7 45l-355 149l12 74l422 -176l-22 -140l-476 -176z" />
    <glyph glyph-name="question" unicode="?" horiz-adv-x="516" 
d="M247 268q20 0 32.5 -0.5t19.5 -0.5q12 0 25 1q9 1 23.5 5.5t20.5 7.5q26 12 46.5 30t36 40.5t25.5 48t14 50.5q2 15 2 30q0 18 -4.5 43t-21 51.5t-43.5 42.5t-64 16q-36 0 -66.5 -15t-54.5 -39t-40 -54.5t-24 -62.5h-74q10 48 35 91.5t61 77t80.5 53t93.5 19.5
q50 0 89.5 -21t65.5 -56t34 -70.5t8 -63.5q0 -20 -3 -42q-7 -46 -29 -89t-54.5 -77t-74 -57t-88.5 -29l-11 -1l-9 -63h-71zM217 72h71l-11 -72h-71z" />
    <glyph glyph-name="at" unicode="@" horiz-adv-x="889" 
d="M202 696h683l-83 -537h-199l-14 44l-12 -9q-26 -17 -55 -26t-57 -9q-38 0 -69 14.5t-51.5 40t-27.5 52.5t-7 49q0 15 2 30q6 38 25.5 72t48 59.5t64 40t73.5 14.5t69 -14.5t52 -40t28 -52.5t7 -49q0 -15 -2 -30l-17 -112h84l60 392h-542l-85 -553h518l-11 -72h-589z
M476 227q23 0 46.5 9t42.5 25t32.5 37.5t17.5 46.5q1 9 1 18q0 15 -5.5 32.5t-20 33t-35 24.5t-43.5 9q-24 0 -46 -9.5t-40 -25t-30.5 -37t-16.5 -45.5q-2 -10 -2 -19q0 -14 5 -31t18 -33t32.5 -25.5t43.5 -9.5z" />
    <glyph glyph-name="A" unicode="A" horiz-adv-x="580" 
d="M312 696h179l76 -696h-74l-26 230h-276l-95 -230h-74zM461 303l-37 321h-68l-133 -321h238z" />
    <glyph glyph-name="B" unicode="B" horiz-adv-x="491" 
d="M159 696h218q37 0 66.5 -14.5t49.5 -39.5t27 -51.5t7 -47.5q0 -15 -2 -30q-6 -41 -28 -77.5t-55 -62.5l-5 -5h63l-54 -368h-394zM332 400q23 0 44.5 9t38 25t28 36.5t14.5 42.5q1 8 1 16q0 14 -4 30.5t-16 32t-30 24.5t-41 9h-148l-34 -225h147zM384 72l37 256h-248
l-39 -256h250z" />
    <glyph glyph-name="C" unicode="C" horiz-adv-x="619" 
d="M603 79q-51 -42 -110 -65t-120 -23q-71 0 -127.5 29t-93.5 78t-49.5 100t-12.5 91q0 29 5 58q11 71 46 135.5t87 114t117.5 78.5t136.5 29q61 0 113.5 -23t90.5 -65l-57 -55q-29 33 -69 52t-89 19q-57 0 -108.5 -24t-91.5 -64t-66.5 -91.5t-35.5 -105.5q-3 -23 -3 -45
q0 -31 8.5 -71.5t36.5 -80t72 -64t101 -24.5q49 0 95 19.5t84 51.5z" />
    <glyph glyph-name="D" unicode="D" horiz-adv-x="589" 
d="M159 696h171q70 0 126.5 -28t94 -75.5t50 -97.5t12.5 -90q0 -28 -4 -57q-11 -70 -46.5 -133.5t-87.5 -111t-117 -75.5t-135 -28h-171zM234 70q56 0 107 23t91 61.5t67 89t36 104.5q3 23 3 44q0 32 -9 71.5t-37.5 78t-72.5 61t-100 22.5h-100l-85 -555h100z" />
    <glyph glyph-name="E" unicode="E" horiz-adv-x="547" 
d="M159 696h461l-11 -72h-391l-49 -321h286l-12 -73h-286l-24 -158h391l-11 -72h-461z" />
    <glyph glyph-name="F" unicode="F" horiz-adv-x="548" 
d="M159 696h462l-11 -72h-391l-49 -321h266l-12 -73h-266l-35 -230h-71z" />
    <glyph glyph-name="G" unicode="G" horiz-adv-x="744" 
d="M432 302h317l-46 -302h-65l23 149h-24l-3 -9q-11 -19 -25 -33.5t-27 -28.5q-43 -45 -98 -66.5t-112 -21.5q-71 0 -127.5 29t-93 78t-49 100t-12.5 91q0 29 5 58q11 71 46 135.5t87 114t117.5 78.5t136.5 29q51 0 95.5 -15.5t80 -44t60 -68t36.5 -87.5h-84
q-22 63 -74.5 103t-124.5 40q-57 0 -108.5 -24t-91.5 -64t-66.5 -91.5t-35.5 -105.5q-3 -23 -3 -45q0 -31 8.5 -71.5t36 -80t71.5 -64t101 -24.5q37 0 73 11t68 31t60 48t49 61l10 17h-222z" />
    <glyph glyph-name="H" unicode="H" horiz-adv-x="557" 
d="M159 696h71l-60 -393h320l60 393h70l-107 -696h-70l35 230h-320l-35 -230h-71z" />
    <glyph glyph-name="I" unicode="I" horiz-adv-x="275" 
d="M28 72h86l85 552h-86l11 72h241l-11 -72h-85l-85 -552h85l-11 -72h-241z" />
    <glyph glyph-name="J" unicode="J" horiz-adv-x="422" 
d="M74 206h71l-21 -134h192l96 624h71l-107 -696h-334z" />
    <glyph glyph-name="K" unicode="K" horiz-adv-x="530" 
d="M159 696h71l-55 -360l341 360h91l-373 -392h298l-47 -304h-71l36 233h-282l-11 -9l-34 -224h-71z" />
    <glyph glyph-name="L" unicode="L" horiz-adv-x="547" 
d="M159 696h71l-96 -624h390l-11 -72h-461z" />
    <glyph glyph-name="M" unicode="M" horiz-adv-x="769" 
d="M159 696h164l82 -490h30l238 490h162l-107 -696h-72l96 624h-33l-239 -492h-142l-84 492h-34l-96 -624h-72z" />
    <glyph glyph-name="N" unicode="N" horiz-adv-x="578" 
d="M159 696h168l101 -625h46l96 625h71l-107 -696h-167l-102 623h-46l-96 -623h-71z" />
    <glyph glyph-name="O" unicode="O" horiz-adv-x="736" 
d="M373 -8q-71 0 -127.5 29t-93.5 78t-49 100t-12 90q0 29 5 59q11 71 46 135.5t87 114t117 78.5t136 29t127 -29t93 -78.5t49.5 -100.5t12.5 -91q0 -29 -5 -58q-11 -71 -46.5 -135.5t-87 -113.5t-116.5 -78t-136 -29zM384 63q57 0 108 24.5t91 64t66 91t35 105.5q3 23 3 46
q0 30 -8 70.5t-36 80.5t-71.5 64t-100.5 24q-58 0 -109 -24t-90.5 -64t-66 -91.5t-34.5 -105.5q-4 -25 -4 -49q0 -29 8 -68.5t36 -79t71.5 -64t101.5 -24.5z" />
    <glyph glyph-name="P" unicode="P" horiz-adv-x="481" 
d="M159 696h218q37 0 66.5 -14.5t49.5 -39.5t27 -51.5t7 -47.5q0 -15 -2 -30q-6 -37 -25 -71t-46.5 -59t-62 -40t-71.5 -15h-147l-50 -328h-71zM332 400q23 0 44.5 9t38 25t28 36.5t14.5 42.5q1 8 1 16q0 14 -4 30.5t-16 32t-30.5 24.5t-41.5 9h-147l-34 -225h147z" />
    <glyph glyph-name="Q" unicode="Q" horiz-adv-x="736" 
d="M544 39q-40 -23 -83.5 -35t-87.5 -12q-71 0 -127.5 29t-93.5 78t-49 100t-12 90q0 29 5 59q11 71 46 135.5t87 114t117 78.5t136 29t127 -29t93 -78.5t49.5 -100.5t12.5 -91q0 -29 -5 -58q-11 -71 -46.5 -137t-93.5 -117l-9 -8l76 -86h-94l-40 44zM501 207l64 -72l10 10
q45 41 72.5 94t36.5 109q3 22 3 44q0 31 -9 70.5t-37.5 78.5t-71.5 62.5t-99 23.5t-106 -23.5t-89 -62.5t-64.5 -89.5t-33.5 -103.5q-4 -23 -4 -46q0 -29 8 -68.5t34.5 -80t69 -65.5t99.5 -25q26 0 53.5 6t53.5 19l17 8l-100 111h93z" />
    <glyph glyph-name="R" unicode="R" horiz-adv-x="489" 
d="M159 696h218q37 0 66.5 -14.5t49.5 -39.5t27 -51.5t7 -47.5q0 -15 -2 -30q-6 -41 -28 -77.5t-55 -62.5l-27 -22h82l-51 -351h-72l47 328h-248l-50 -328h-71zM332 400q23 0 44.5 9t38 25t28 36.5t14.5 42.5q1 8 1 16q0 14 -4 30.5t-16 32t-30.5 24.5t-41.5 9h-147
l-34 -225h147z" />
    <glyph glyph-name="S" unicode="S" horiz-adv-x="565" 
d="M149 231v-8q0 -33 7.5 -62.5t26 -51t48 -33t71.5 -11.5q27 0 57 4.5t56.5 18t46.5 37.5t26 62q2 12 2 23q0 12 -3 29t-20 35q-14 15 -33.5 26.5t-41 20t-43 15t-41.5 10.5q-24 5 -45.5 13t-42.5 18q-38 21 -60 54q-11 19 -12.5 34.5t-1.5 22.5q0 17 4 36q7 47 29 81
t54.5 56t72.5 33t84 11q48 0 86 -12t63.5 -36t36.5 -55t11 -65q0 -11 -1 -23h-71q-7 118 -133 118q-22 0 -48 -4.5t-49 -16t-40.5 -32t-22.5 -52.5q-1 -8 -1 -15q0 -24 14 -42.5t41 -32.5q13 -7 28.5 -12.5t32.5 -11.5q9 -2 17 -5l35 -9q9 -2 17 -5q35 -11 66.5 -25.5
t53.5 -36.5t30.5 -47.5t8.5 -49.5q0 -17 -3 -35q-2 -14 -7 -30t-11 -32q-16 -43 -45.5 -72t-71.5 -49q-29 -15 -61.5 -20t-64.5 -5q-39 0 -74.5 7.5t-64.5 24t-50 42.5t-31 63q-8 24 -8 47q0 2 0.5 15t4.5 40h71z" />
    <glyph glyph-name="T" unicode="T" horiz-adv-x="538" 
d="M333 624h-195l11 72h462l-11 -72h-195l-96 -624h-72z" />
    <glyph glyph-name="U" unicode="U" horiz-adv-x="557" 
d="M159 696h71l-96 -624h320l96 624h70l-107 -696h-461z" />
    <glyph glyph-name="V" unicode="V" horiz-adv-x="583" 
d="M130 696h74l69 -624h68l260 624h74l-290 -696h-179z" />
    <glyph glyph-name="W" unicode="W" horiz-adv-x="769" 
d="M159 696h72l-96 -624h34l239 492h142l84 -492h33l96 624h72l-107 -696h-163l-83 491h-28l-239 -491h-163z" />
    <glyph glyph-name="X" unicode="X" horiz-adv-x="540" 
d="M283 346l1 8l-148 342h80l121 -279l207 279h78l-254 -343l-1 -8l151 -345h-79l-123 281l-210 -281h-80z" />
    <glyph glyph-name="Y" unicode="Y" horiz-adv-x="549" 
d="M244 0q2 17 7 46.5t10 62.5q3 20 6 39.5t5 35.5q2 8 2.5 14t1.5 11q1 3 1 7q1 2 1 3t-1 1v2q-4 26 -9.5 46t-12.5 39q-6 18 -13 37t-15 42l-94 310h68l109 -358h43l219 358h68l-190 -310q-14 -23 -27 -42t-25 -37q-13 -19 -25 -39t-23 -46l-2 -6q0 -4 -1 -7
q-1 -5 -1.5 -11t-2.5 -14q-2 -16 -5 -35.5t-6 -39.5q-5 -33 -10 -62.5t-7 -46.5h-71z" />
    <glyph glyph-name="Z" unicode="Z" horiz-adv-x="514" 
d="M50 55l419 551l3 18h-334l11 72h439l-9 -59l-417 -545l-3 -20h333l-11 -72h-439z" />
    <glyph glyph-name="bracketleft" unicode="[" horiz-adv-x="319" 
d="M175 696h189l-11 -71h-118l-85 -553h118l-11 -72h-189z" />
    <glyph glyph-name="backslash" unicode="\" horiz-adv-x="535" 
d="M152 696h77l271 -696h-76z" />
    <glyph glyph-name="bracketright" unicode="]" horiz-adv-x="319" 
d="M79 72h118l85 553h-118l11 71h189l-107 -696h-189z" />
    <glyph glyph-name="asciicircum" unicode="^" 
d="M324 694h137l104 -455h-73l-87 384h-45l-204 -384h-75z" />
    <glyph glyph-name="underscore" unicode="_" horiz-adv-x="434" 
d="M3 -67h416l-12 -73h-416z" />
    <glyph glyph-name="grave" unicode="`" horiz-adv-x="271" 
d="M235 705l65 -119h-44l-106 119h85z" />
    <glyph glyph-name="a" unicode="a" horiz-adv-x="448" 
d="M332 28q-53 -37 -114 -37q-37 0 -68 14.5t-52 39.5t-28.5 52t-7.5 50q0 14 2 29q6 39 25.5 71.5t47.5 56t63.5 36.5t72.5 13q52 0 90 -26l16 -13l16 100h-273l11 74h344l-64 -415h44l-11 -73h-89l-12 36zM129 171q-2 -10 -2 -18q0 -15 5.5 -32t19.5 -31.5t33.5 -22.5
t42.5 -8q22 0 44.5 7t41.5 21t33 34t18 45q2 12 2 23q0 39 -25.5 70.5t-79.5 31.5q-26 0 -48.5 -9t-40 -25.5t-29 -38t-15.5 -47.5z" />
    <glyph glyph-name="b" unicode="b" horiz-adv-x="560" 
d="M157 673h-44l10 71h89q2 -5 4.5 -11t4.5 -14q2 -5 3.5 -10t3.5 -9q0 -5 2 -7q-2 -23 -5.5 -39.5t-7.5 -39.5l-29 -190l22 16q38 27 81 42t87 15q52 0 91.5 -20t64 -54.5t32 -70t7.5 -62.5q0 -22 -4 -46q-8 -52 -31.5 -98t-58.5 -80.5t-80.5 -54.5t-97.5 -20
q-44 0 -82.5 14.5t-67.5 43.5l-18 16l-10 -65h-70zM310 61q38 0 70.5 16t57.5 41.5t41.5 58.5t21.5 67q2 15 2 31q0 18 -4.5 43.5t-21.5 51t-44.5 41.5t-65.5 16q-36 0 -69.5 -15.5t-60.5 -41t-45 -58.5t-23 -68q-3 -15 -3 -30q0 -19 6.5 -45t25 -51.5t47.5 -41t65 -15.5z
" />
    <glyph glyph-name="c" unicode="c" horiz-adv-x="443" 
d="M127 488h345l-23 -151h-70l12 77h-207l-51 -341h205l11 73h70l-22 -146h-345z" />
    <glyph glyph-name="d" unicode="d" horiz-adv-x="560" 
d="M455 66l-22 -17q-38 -29 -80.5 -43.5t-86.5 -14.5q-52 0 -91.5 20t-64.5 54.5t-32 69.5t-7 61q0 24 4 48q8 52 31.5 98t58.5 80.5t80.5 54.5t97.5 20q43 0 82 -15t68 -42l17 -16l29 190q4 23 5.5 39.5t7.5 39.5l1.5 3t2.5 4q2 4 6 9q2 3 4 5l8 13q2 3 5 6q4 6 6 11h88
l-10 -71h-43l-104 -673h-71zM276 61q36 0 70 15.5t61 41t45 58.5t24 68q2 13 2 27q0 21 -6.5 47.5t-25.5 52t-48 41t-65 15.5q-37 0 -69.5 -16t-57.5 -41.5t-41.5 -58.5t-21.5 -67q-2 -15 -2 -31q0 -18 4.5 -43.5t21.5 -51t44.5 -41.5t64.5 -16z" />
    <glyph glyph-name="e" unicode="e" horiz-adv-x="531" 
d="M145 198q2 -27 12 -52t27 -44t41 -30t54 -11q38 0 73 18.5t60 48.5h84q-19 -30 -44.5 -55t-55 -43t-62 -28t-65.5 -10q-50 0 -89.5 21t-65.5 56t-34 70.5t-8 63.5q0 20 3 42q8 50 32.5 95.5t61 80.5t82 55.5t95.5 20.5t89.5 -20.5t65 -55.5t34 -71t8.5 -64q0 -20 -3 -41
l-2 -8l-3 -15l-2 -8h-388v-16zM470 277l-1 15q-3 27 -13 51.5t-27 43t-40.5 30t-52.5 11.5q-30 0 -57 -11t-50 -30t-40.5 -43.5t-28.5 -51.5l-5 -15h315z" />
    <glyph glyph-name="f" unicode="f" horiz-adv-x="313" 
d="M140 413h-86l11 74h86l39 257h358l-11 -72h-288l-28 -185h177l-11 -74h-177l-64 -413h-70z" />
    <glyph glyph-name="g" unicode="g" horiz-adv-x="567" 
d="M51 -134h381l33 209l-23 -18q-40 -32 -85 -48.5t-92 -16.5q-52 0 -91 20t-64 54.5t-32 69.5t-7 60q0 24 4 48q8 52 31 98t58 80.5t80.5 54.5t97.5 20q46 0 87 -16.5t70 -48.5l10 -10l44 66h89l-11 -74h-44l-96 -620h-451zM276 62q36 0 69.5 15.5t60.5 41t45 58t24 67.5
q2 13 2 27q0 21 -6.5 47.5t-25.5 52t-48 41t-65 15.5q-37 0 -69.5 -16t-57.5 -42t-41 -58.5t-21 -66.5q-2 -15 -2 -31q0 -18 4.5 -43t21.5 -50.5t44.5 -41.5t64.5 -16z" />
    <glyph glyph-name="h" unicode="h" horiz-adv-x="468" 
d="M166 744h73l-39 -257h297l-75 -487h-74l64 413h-223l-64 -413h-73z" />
    <glyph glyph-name="i" unicode="i" horiz-adv-x="173" 
d="M151 653h70l-10 -71h-70zM78 175q12 78 25 156.5t26 157.5h68l-75 -489h-71z" />
    <glyph glyph-name="j" unicode="j" horiz-adv-x="174" 
d="M154 653h70l-10 -71h-70zM-133 -132h169l98 621l67 -1l-107 -695h-239z" />
    <glyph glyph-name="k" unicode="k" horiz-adv-x="468" 
d="M165 744h73l-74 -490l223 233h97l-203 -211h183l-42 -276h-74l31 204h-223l-31 -204h-73z" />
    <glyph glyph-name="l" unicode="l" horiz-adv-x="173" 
d="M166 744h70l-114 -744h-70z" />
    <glyph glyph-name="m" unicode="m" horiz-adv-x="744" 
d="M127 488h651l-75 -488h-71l64 415h-219l-64 -415h-71l64 415h-219l-64 -415h-71z" />
    <glyph glyph-name="n" unicode="n" horiz-adv-x="486" 
d="M127 488h389l-75 -488h-72l64 415h-246l-64 -415h-71z" />
    <glyph glyph-name="o" unicode="o" horiz-adv-x="532" 
d="M269 -8q-50 0 -89.5 20.5t-65.5 55.5t-34 70.5t-8 63.5q0 20 3 42q8 50 32 95.5t60.5 80.5t82.5 56t96 21t89.5 -21t65.5 -56t34.5 -71t8.5 -64q0 -20 -3 -41q-8 -50 -32.5 -95.5t-61.5 -80.5t-82.5 -55.5t-95.5 -20.5zM279 61q37 0 69.5 16t57 42t41 59t21.5 66
q2 15 2 30q0 18 -4.5 43.5t-21.5 52t-44 42.5t-64 16t-69 -16t-56.5 -42.5t-40.5 -59.5t-21 -66q-2 -16 -2 -31q0 -18 4 -43t20.5 -51t43.5 -42t64 -16z" />
    <glyph glyph-name="p" unicode="p" horiz-adv-x="558" 
d="M117 415h-44l11 73h89l21 -61l13 10q38 29 82.5 45t89.5 16q52 0 91 -20.5t63.5 -55t32 -70t7.5 -61.5q0 -23 -4 -46q-8 -52 -31.5 -97.5t-59 -80t-80.5 -54.5t-97 -20q-43 0 -81.5 14.5t-67.5 42.5l-18 16l-42 -272h-71zM312 63q37 0 69.5 16t57 41.5t41 58t21.5 66.5
q2 15 2 31q0 18 -4.5 43t-21.5 51t-44.5 42t-64.5 16q-36 0 -70 -15.5t-61 -41t-45 -58.5t-23 -68q-3 -15 -3 -30q0 -19 6.5 -44.5t26 -51t48.5 -41t65 -15.5z" />
    <glyph glyph-name="q" unicode="q" horiz-adv-x="558" 
d="M454 66l-22 -16q-38 -28 -81 -42.5t-86 -14.5q-52 0 -91.5 20t-64 54.5t-32 69.5t-7.5 62q0 22 4 46q8 52 31.5 98t59 80.5t81 54.5t97.5 20q45 0 83.5 -16t67.5 -45l10 -10l41 61h88l-11 -73h-44l-96 -621h-70zM276 63q36 0 69.5 15.5t60.5 41t45 58t24 67.5q2 13 2 27
q0 21 -6.5 47.5t-25.5 52t-48 41t-65 15.5q-37 0 -69.5 -16t-57.5 -41.5t-41.5 -58.5t-21.5 -67q-2 -15 -2 -31q0 -18 4.5 -43.5t22 -51t45 -41t64.5 -15.5z" />
    <glyph glyph-name="r" unicode="r" horiz-adv-x="340" 
d="M127 488h255l-11 -73h-184l-64 -415h-71z" />
    <glyph glyph-name="s" unicode="s" horiz-adv-x="465" 
d="M137 157v-9q0 -5 -0.5 -8.5t-0.5 -4.5q0 -5 2 -10q4 -23 16 -36.5t28 -20t34.5 -8.5t35.5 -2q15 0 34.5 3t38 12t32.5 24t18 39q1 5 1 10q0 19 -14 33q-6 5 -15.5 9.5t-20 8.5t-20 7t-15.5 4l-90 22q-45 12 -68 36t-23 59q0 10 1 20q6 38 24.5 66.5t45.5 47.5t60.5 28.5
t69.5 9.5q38 0 68.5 -9t51.5 -27t30 -43t9 -52q0 -8 -1 -17h-71v9q0 21 -8 35.5t-23.5 23t-35 11.5t-38.5 3q-13 0 -29.5 -3t-32.5 -11t-28 -21.5t-15 -34.5q-1 -6 -1 -13q0 -4 1 -12t11 -17q5 -4 14.5 -7.5t19.5 -6.5q9 -3 17.5 -5.5t13.5 -4.5l76 -21q27 -7 50 -16.5
t38.5 -23.5t21.5 -30.5t6 -32.5q0 -10 -2 -22q-6 -39 -26 -68.5t-48.5 -49t-63.5 -29.5t-72 -10q-28 0 -55.5 3.5t-50 13t-39 25.5t-24.5 41q-5 11 -7.5 21.5t-2.5 21.5q0 10 0.5 19.5t1.5 19.5h70z" />
    <glyph glyph-name="t" unicode="t" horiz-adv-x="351" 
d="M182 414h-86l11 75h86l39 255h70l-39 -255h86l-11 -75h-86l-53 -342h149l-11 -72h-219z" />
    <glyph glyph-name="u" unicode="u" horiz-adv-x="486" 
d="M127 488h71l-64 -416h246l64 416h72l-75 -488h-389z" />
    <glyph glyph-name="v" unicode="v" horiz-adv-x="469" 
d="M91 488h74l49 -416h67l176 416h74l-205 -488h-180z" />
    <glyph glyph-name="w" unicode="w" horiz-adv-x="744" 
d="M127 488h71l-64 -416h219l64 416h71l-64 -416h219l64 416h71l-75 -488h-651z" />
    <glyph glyph-name="x" unicode="x" horiz-adv-x="437" 
d="M217 241l1 7l-104 240h80l75 -175l131 175h79l-178 -240l-1 -7l104 -241h-79l-76 176l-130 -176h-80z" />
    <glyph glyph-name="y" unicode="y" horiz-adv-x="591" 
d="M75 -134h381l32 205l-23 -17q-40 -30 -85 -46t-91 -16q-54 0 -94.5 21t-66.5 56.5t-33.5 72t-7.5 64.5q0 23 4 47l36 235h71l-36 -235q-3 -19 -3 -37q0 -17 4 -43t21 -54t45.5 -45.5t69.5 -17.5q39 0 75.5 16.5t66 44t49.5 63t26 73.5l19 125q2 10 2.5 17t1.5 14
q1 8 2 14t3 14q2 2 4 6q3 4 6 9.5t7 10.5q5 7 9.5 13.5t7.5 11.5h88l-11 -73h-44l-96 -621h-451z" />
    <glyph glyph-name="z" unicode="z" horiz-adv-x="440" 
d="M65 82l303 333h-252l11 73h342l-12 -81l-304 -334h252l-11 -73h-342z" />
    <glyph glyph-name="braceleft" unicode="{" horiz-adv-x="370" 
d="M284 0q-23 0 -46 2.5t-40 13.5q-20 11 -28.5 34.5t-10.5 54.5v13q0 9 1 21.5t3 27.5q2 16 3.5 30.5t3.5 26.5l6 37q2 7 2 15t-2 15q-6 20 -28 20h-51l11 73h51q12 0 21 6.5t14 15.5q5 8 6.5 16.5t2.5 14.5l5 34q5 34 11.5 66.5t17.5 64.5q11 31 24.5 49.5t32.5 28.5
t43 13t54 3h36l-9 -62h-28q-12 0 -27.5 -1t-30.5 -7q-21 -10 -33 -30t-18 -40q-8 -21 -11.5 -42t-5.5 -36l-3 -17q-3 -17 -6.5 -35t-11.5 -32t-18.5 -21.5t-27.5 -7.5h-12l-5 -33h12q19 0 27 -9.5t10 -24.5q2 -6 2 -13q0 -2 -0.5 -7.5t-0.5 -16.5q-2 -10 -3 -19.5t-3 -18.5
q-2 -14 -5 -36t-3 -44q1 -22 7 -43t25 -31q13 -6 27.5 -7t25.5 -1h28l-9 -61h-36z" />
    <glyph glyph-name="bar" unicode="|" horiz-adv-x="541" 
d="M338 696h71l-128 -832h-71z" />
    <glyph glyph-name="braceright" unicode="}" horiz-adv-x="370" 
d="M58 61h28q11 0 26 1t31 7q22 10 34.5 31t19.5 43q6 22 10 44t6 36l2 10q2 17 5.5 35.5t11.5 33.5q8 13 18.5 21.5t28.5 8.5h12l5 33h-12q-20 0 -28 9.5t-10 26.5q-1 5 -1 12q0 3 0.5 9.5t1.5 16.5q3 23 6 39q2 15 4.5 36t2.5 42q0 20 -6.5 40t-24.5 30q-12 6 -27 7t-27 1
h-28l9 62h36q30 0 53 -3t39 -13t24.5 -28.5t9.5 -49.5v-12q0 -26 -4 -55.5t-9 -63.5l-5 -34q-1 -6 -1.5 -11.5t-0.5 -8.5q0 -6 1 -11q3 -9 10 -15.5t19 -6.5h51l-11 -73h-51q-23 0 -34 -20q-5 -7 -6.5 -15t-3.5 -15l-6 -37q-2 -12 -4 -26.5t-5 -30.5q-3 -15 -7 -30.5
t-9 -31.5q-11 -31 -26.5 -54.5t-40.5 -34.5q-20 -11 -43.5 -13.5t-46.5 -2.5h-36z" />
    <glyph glyph-name="asciitilde" unicode="~" horiz-adv-x="532" 
d="M108 258q1 9 1 17.5t2 16.5q10 66 43.5 106.5t99.5 40.5q32 0 55 -16t43 -38l30 -30q5 -5 10 -9q11 -8 22.5 -14t26.5 -6q26 0 40 15t17 38q1 9 1 19v10v13v14l76 7q0 -14 -1.5 -28t-3.5 -28q-8 -57 -35 -90.5t-84 -33.5q-42 0 -69.5 16.5t-47.5 36.5l-20.5 20.5
t-18.5 17.5q-8 8 -18.5 14t-23.5 6q-16 0 -28 -7.5t-20.5 -19t-13 -24t-6.5 -23.5q-2 -8 -2 -16v-16z" />
    <glyph glyph-name="exclamdown" unicode="&#xa1;" horiz-adv-x="259" 
d="M167 489h72l-11 -74h-72zM141 316h71l-81 -524h-71z" />
    <glyph glyph-name="cent" unicode="&#xa2;" horiz-adv-x="470" 
d="M144 488h137l16 104h71l-16 -104h137l-23 -151h-70l12 77h-67l-53 -341h67l11 73h70l-22 -146h-137l-15 -95h-71l15 95h-137zM150 73h67l53 341h-69z" />
    <glyph glyph-name="sterling" unicode="&#xa3;" horiz-adv-x="514" 
d="M47 72h58l3 2q17 9 23.5 22t8.5 26q1 10 1 21q0 6 -0.5 18t-3.5 30q-2 18 -4 35t-5 30q-4 27 -8 55t-7 56q-2 22 -2 45q0 34 5 69q16 103 82 156.5t166 53.5q45 0 87 -12.5t73 -38.5l26 -23l-50 -58q-17 14 -33.5 24.5t-34.5 18.5t-39 12t-48 4q-62 0 -104 -30t-53 -98
q-4 -21 -4 -42q0 -3 0.5 -16t1.5 -35v-11h227l-11 -73h-208l4 -16q3 -19 6.5 -39t6.5 -41q3 -20 3.5 -31.5t0.5 -14.5q0 -18 -3 -33q-2 -14 -7 -25.5t-15 -16.5l-37 -23l341 -1l-11 -72h-447z" />
    <glyph glyph-name="currency" unicode="&#xa4;" 
d="M173 244l-4 8q-9 22 -11.5 39.5t-2.5 27.5q0 14 3 29q4 25 14.5 49t25.5 46l7 9l-54 64l58 51l53 -65l9 5q24 13 48.5 20t49.5 7q24 0 47.5 -7t42.5 -20l7 -5l75 65l41 -51l-74 -65l3 -9q15 -33 15 -69q0 -12 -2 -25q-5 -25 -15.5 -49t-26.5 -46l-5 -8l54 -66l-57 -51
l-56 66l-9 -5q-23 -12 -48 -19t-49 -7q-25 0 -47 7t-42 19l-7 4l-74 -65l-42 51z" />
    <glyph glyph-name="yen" unicode="&#xa5;" horiz-adv-x="556" 
d="M99 140h169l14 91h-169l11 72h131l-120 393h68l109 -358h42l219 358h68l-240 -393h131l-11 -72h-168l-14 -91h168l-12 -73h-168l-10 -67h-71l10 67h-169z" />
    <glyph glyph-name="brokenbar" unicode="&#xa6;" horiz-adv-x="198" 
d="M173 696h71l-43 -279h-71zM109 279h71l-43 -279h-71z" />
    <glyph glyph-name="section" unicode="&#xa7;" horiz-adv-x="503" 
d="M85 116l23 -14q16 -9 37.5 -14.5t44.5 -9.5t45.5 -5.5t41.5 -1.5q13 0 36.5 1t46.5 7q23 5 45 18.5t26 40.5q2 8 2.5 12.5t0.5 5.5q0 8 -4 16q-8 18 -28 26.5t-41 12.5t-42.5 4.5t-34.5 0.5q-39 0 -77 4t-66.5 17.5t-40.5 35.5t-12 48q0 12 2 27q5 30 16.5 52.5
t36.5 42.5l12 10l-9 9q-18 18 -22.5 35.5t-4.5 31.5q0 11 2 24q7 44 30 71.5t56 43t72.5 21t78.5 5.5q20 0 46 -2t52.5 -6t51 -10.5t42.5 -15.5l-13 -79l11 -6v-1l-35 19q-16 9 -36.5 14.5t-42.5 9t-43.5 5t-39.5 1.5q-13 0 -37 -1.5t-48 -6.5q-23 -5 -46.5 -18.5
t-27.5 -40.5q-2 -8 -2 -17t4 -18q8 -17 26.5 -25.5t38.5 -12.5q20 -5 39.5 -5.5t33.5 -0.5h49q35 0 65.5 -5.5t52.5 -20t30 -34.5t8 -41q0 -12 -2 -27q-5 -29 -17.5 -53t-37.5 -43l-12 -9l9 -9q19 -18 23.5 -36.5t4.5 -33.5q0 -12 -2 -25q-7 -44 -32 -71.5t-60 -42.5
t-76 -20.5t-79 -5.5q-21 0 -45.5 2t-49.5 6.5t-48 10.5t-41 15z" />
    <glyph glyph-name="dieresis" unicode="&#xa8;" horiz-adv-x="342" 
d="M131 652h72l-11 -72h-72zM342 652h71l-11 -72h-71z" />
    <glyph glyph-name="copyright" unicode="&#xa9;" horiz-adv-x="822" 
d="M179 696h683l-107 -696h-683zM695 72l85 553h-542l-85 -553h542zM323 530h345l-19 -119h-72l7 46h-205l-30 -217h202l6 42h72l-17 -115h-345z" />
    <glyph glyph-name="ordfeminine" unicode="&#xaa;" horiz-adv-x="347" 
 />
    <glyph glyph-name="guillemotleft" unicode="&#xab;" horiz-adv-x="499" 
d="M306 357l168 243h76l-169 -243l94 -244h-76zM101 357l168 243h77l-170 -243l95 -244h-77z" />
    <glyph glyph-name="logicalnot" unicode="&#xac;" 
d="M115 431h478l-28 -186h-72l17 115h-406z" />
    <glyph glyph-name="registered" unicode="&#xae;" horiz-adv-x="566" 
d="M153 696h481l-75 -487h-481zM499 281l53 344h-339l-53 -344h339zM294 536h158l-11 -72h-87l-15 -100h-71z" />
    <glyph glyph-name="macron" unicode="&#xaf;" horiz-adv-x="384" 
d="M128 686h345l-12 -72h-345z" />
    <glyph glyph-name="degree" unicode="&#xb0;" horiz-adv-x="418" 
d="M146 501q5 30 20 56.5t37 46t49.5 31t57.5 11.5q29 0 53 -11.5t40 -31t22 -40.5t6 -39q0 -11 -2 -23q-4 -30 -19.5 -56t-37.5 -45.5t-49.5 -30.5t-56.5 -11t-53 11.5t-40.5 31t-22 41t-5.5 38.5q0 10 1 21zM277 427q15 0 29 6t25.5 16t19.5 23.5t10 28.5q1 7 1 14
q0 23 -15.5 42.5t-46.5 19.5q-32 0 -56.5 -22t-29.5 -54q-1 -5 -1 -10q0 -24 17 -44t47 -20z" />
    <glyph glyph-name="plusminus" unicode="&#xb1;" 
d="M305 318h-104l11 73h104l16 106h71l-16 -106h105l-11 -73h-105l-16 -106h-71zM163 72h280l-11 -72h-280z" />
    <glyph glyph-name="twosuperior" unicode="&#xb2;" horiz-adv-x="340" 
d="M178 530h95q32 0 56 23.5t29 54.5q1 7 1 13q0 23 -16 42.5t-47 19.5h-95l3 17h95q37 0 56 -25t19 -53q0 -7 -1 -14q-3 -19 -12.5 -36t-23.5 -30t-31 -20.5t-36 -7.5h-79l-13 -83h150l-2 -17h-166z" />
    <glyph glyph-name="threesuperior" unicode="&#xb3;" horiz-adv-x="260" 
d="M121 428h62q16 0 30 6.5t25.5 17t19 24t10.5 28.5q1 7 1 13q0 23 -15.5 43.5t-47.5 20.5h-30l3 16h102l13 83h-134l2 16h151l-18 -115h-32l10 -20q8 -12 10 -23.5t2 -20.5q0 -6 -1 -13q-3 -19 -12.5 -35.5t-23.5 -29.5t-31.5 -20.5t-36.5 -7.5h-62z" />
    <glyph glyph-name="acute" unicode="&#xb4;" horiz-adv-x="250" 
d="M235 705h84l-142 -119h-44z" />
    <glyph glyph-name="paragraph" unicode="&#xb6;" horiz-adv-x="553" 
d="M313 302q1 7 1 13q0 14 -8 26t-22 21q-8 5 -16.5 8t-17.5 7q-8 3 -17 5.5t-18 7.5q-18 6 -34 15t-27 22.5t-14.5 29t-3.5 27.5q0 13 2 28q7 44 26.5 78t49 57.5t67 36t80.5 12.5h85l-107 -696h-72zM529 696h71l-107 -696h-71z" />
    <glyph glyph-name="periodcentered" unicode="&#xb7;" horiz-adv-x="258" 
d="M145 335h71l-12 -73h-71z" />
    <glyph glyph-name="cedilla" unicode="&#xb8;" horiz-adv-x="250" 
d="M-24 -189h128q15 0 29 10t17 28v6q0 10 -6 17.5t-20 9.5l-123 13l58 132q5 -4 10.5 -9.5t11.5 -10.5q6 -6 13 -12l-21 -45l69 -9q39 -5 59.5 -25t20.5 -50q0 -8 -1 -17q-3 -22 -15 -41.5t-29.5 -34t-38.5 -23t-43 -8.5h-130z" />
    <glyph glyph-name="onesuperior" unicode="&#xb9;" horiz-adv-x="340" 
d="M186 431h37l35 227h-37l3 18h2q4 1 7.5 1.5t8.5 2.5q14 6 21 20h18l-42 -269h37l-2 -17h-90z" />
    <glyph glyph-name="ordmasculine" unicode="&#xba;" horiz-adv-x="366" 
d="M138 593q5 30 20 56.5t37.5 46t50 31t57.5 11.5q29 0 53 -11.5t40 -31t21.5 -40.5t5.5 -38q0 -11 -2 -24q-4 -30 -19.5 -56t-37.5 -45.5t-49.5 -30.5t-56.5 -11t-53 11.5t-40.5 31t-22 41t-5.5 38.5q0 10 1 21zM269 519q15 0 29 6t25.5 16t19.5 23.5t10 28.5q1 7 1 13
q0 23 -15.5 43t-46.5 20q-32 0 -56.5 -22.5t-29.5 -53.5q-1 -5 -1 -10q0 -24 17 -44t47 -20z" />
    <glyph glyph-name="guillemotright" unicode="&#xbb;" horiz-adv-x="499" 
d="M239 357l-95 243h77l94 -243l-169 -244h-77zM444 357l-95 243h76l94 -243l-169 -244h-76z" />
    <glyph glyph-name="onequarter" unicode="&#xbc;" horiz-adv-x="1670" 
d="M321 72h86l76 496h-86l12 73h19q24 0 44.5 15.5t29.5 39.5h71l-96 -624h85l-11 -72h-241zM1101 696h77l-486 -696h-76zM1244 696h71l-75 -490h241l75 490h71l-107 -696h-71l21 134h-312z" />
    <glyph glyph-name="onehalf" unicode="&#xbd;" horiz-adv-x="1670" 
d="M319 72h86l76 496h-86l12 73h19q24 0 44.5 15.5t29.5 39.5h71l-96 -624h85l-11 -72h-241zM1101 696h77l-485 -696h-77zM1197 303h237q33 0 63 13t54 35.5t40.5 51.5t21.5 62q2 13 2 26q0 19 -6 42t-23.5 44.5t-44 34.5t-58.5 13h-237l11 71h237q47 0 84.5 -18.5t62.5 -50
t34 -65.5t9 -61q0 -18 -3 -36q-7 -47 -31 -89.5t-59 -75t-78.5 -51.5t-90.5 -19h-166l-24 -158h347l-11 -72h-418z" />
    <glyph glyph-name="threequarters" unicode="&#xbe;" horiz-adv-x="1670" 
d="M233 71h161q33 0 63 13t54 35.5t40 52t21 61.5q2 13 2 26q0 18 -5.5 41.5t-23 45.5t-43 35t-58.5 13h-87l11 72h237l24 158h-311l11 72h382l-46 -302h-60l12 -20q17 -31 21.5 -58t4.5 -45q0 -19 -3 -38q-7 -48 -31 -90t-58.5 -74t-77.5 -50.5t-90 -18.5h-161zM1103 696
h76l-485 -696h-76zM1259 696h72l-75 -490h241l75 490h71l-107 -696h-71l21 134h-313z" />
    <glyph glyph-name="questiondown" unicode="&#xbf;" horiz-adv-x="424" 
d="M296 585h71l-11 -72h-71zM122 123v-14q0 -25 6 -52.5t22.5 -51.5t42 -39t61.5 -15q37 0 69 16.5t57 42.5t41 59t21 66q2 16 2 32q0 9 -1.5 26.5t-10 40t-23.5 40.5t-37 30q-6 3 -18.5 7.5t-21.5 5.5q-13 1 -25 1q-7 0 -19.5 -0.5t-32.5 -0.5l20 134h71l-9 -63l10 -2
q45 -6 79.5 -28.5t57 -56.5t29 -67.5t6.5 -57.5q0 -20 -3 -41q-8 -50 -32.5 -95.5t-61 -80.5t-82.5 -56t-96 -21q-49 0 -87.5 19.5t-64.5 53t-36 70.5t-10 69q0 14 2 29h74z" />
    <glyph glyph-name="Agrave" unicode="&#xc0;" horiz-adv-x="580" 
d="M440 909l65 -118h-44l-106 118h85zM312 696h179l76 -696h-74l-26 230h-276l-95 -230h-74zM461 303l-37 321h-68l-133 -321h238z" />
    <glyph glyph-name="Aacute" unicode="&#xc1;" horiz-adv-x="580" 
d="M440 909h84l-142 -118h-44zM312 696h179l76 -696h-74l-26 230h-276l-95 -230h-74zM461 303l-37 321h-68l-133 -321h238z" />
    <glyph glyph-name="Acircumflex" unicode="&#xc2;" horiz-adv-x="580" 
d="M390 904h99l55 -147h-50l-58 71h-18l-79 -71h-51zM312 696h179l76 -696h-74l-26 230h-276l-95 -230h-74zM461 303l-37 321h-68l-133 -321h238z" />
    <glyph glyph-name="Atilde" unicode="&#xc3;" horiz-adv-x="580" 
d="M229 766q0 5 0.5 10.5t1.5 10.5q8 48 30.5 76.5t69.5 28.5q23 0 39 -11.5t31 -26.5q4 -5 8.5 -8.5t7.5 -7.5q4 -4 7 -7.5t8 -6.5q7 -7 16 -11.5t21 -4.5q21 0 32 12.5t14 30.5q1 5 1 14q1 1 1 3q0 1 -0.5 3t-0.5 5v13l51 5q-1 -10 -1.5 -19t-2.5 -18q-7 -42 -25.5 -65
t-59.5 -23q-30 0 -49.5 11t-35.5 26q-8 8 -15 15.5t-13 12.5q-6 6 -14 10.5t-19 4.5q-13 0 -22.5 -6t-16 -15t-10.5 -18.5t-5 -17.5v-10v-11zM312 696h179l76 -696h-74l-26 230h-276l-95 -230h-74zM461 303l-37 321h-68l-133 -321h238z" />
    <glyph glyph-name="Adieresis" unicode="&#xc4;" horiz-adv-x="580" 
d="M290 857h73l-11 -73h-73zM501 857h71l-11 -73h-71zM312 696h179l76 -696h-74l-26 230h-276l-95 -230h-74zM461 303l-37 321h-68l-133 -321h238z" />
    <glyph glyph-name="Aring" unicode="&#xc5;" horiz-adv-x="580" 
d="M312 696h34q-10 7 -18 17q-13 15 -18 32t-5 31q0 9 2 19q4 24 16.5 45t30.5 37t40 25t46 9t43 -9t32 -25t18 -33t5 -30q0 -9 -2 -19q-4 -24 -16 -45.5t-30 -36.5q-11 -10 -23 -17h24l76 -696h-74l-26 230h-276l-95 -230h-74zM412 731q26 0 47 19t25 45q1 6 1 12
q0 19 -13.5 35.5t-39.5 16.5q-27 0 -47.5 -18.5t-25.5 -45.5q-1 -6 -1 -11q0 -21 13.5 -37t40.5 -16zM461 303l-37 321h-68l-133 -321h238z" />
    <glyph glyph-name="AE" unicode="&#xc6;" horiz-adv-x="781" 
d="M361 696h487l-11 -72h-296l-49 -321h209l-12 -73h-209l-24 -158h296l-11 -72h-367l35 230h-199l-114 -230h-73zM421 303l49 321h-64l-159 -321h174z" />
    <glyph glyph-name="Ccedilla" unicode="&#xc7;" horiz-adv-x="615" 
d="M603 79q-51 -42 -110 -65t-120 -23q-45 0 -85 12q4 -4 9 -8l-20 -45l68 -9q40 -5 60.5 -25t20.5 -50q0 -8 -1 -17q-3 -22 -15 -41.5t-29.5 -34t-38.5 -23t-43 -8.5h-130l11 69h128q14 0 28.5 10t17.5 28v6q0 10 -6.5 17.5t-19.5 9.5l-123 13l52 119q-6 3 -11 6
q-57 29 -94 78t-49.5 100t-12.5 91q0 29 5 58q11 71 46 135.5t87 114t117.5 78.5t136.5 29q61 0 113.5 -23t90.5 -65l-57 -55q-29 33 -69 52t-89 19q-57 0 -108.5 -24t-91.5 -64t-66.5 -91.5t-35.5 -105.5q-3 -23 -3 -45q0 -31 8.5 -71.5t36.5 -80t72 -64t101 -24.5
q49 0 95 19.5t84 51.5z" />
    <glyph glyph-name="Egrave" unicode="&#xc8;" horiz-adv-x="557" 
d="M404 909l65 -118h-44l-106 118h85zM159 696h461l-11 -72h-391l-49 -321h286l-12 -73h-286l-24 -158h391l-11 -72h-461z" />
    <glyph glyph-name="Eacute" unicode="&#xc9;" horiz-adv-x="557" 
d="M404 909h84l-142 -118h-44zM159 696h461l-11 -72h-391l-49 -321h286l-12 -73h-286l-24 -158h391l-11 -72h-461z" />
    <glyph glyph-name="Ecircumflex" unicode="&#xca;" 
d="M359 904h98l56 -147h-50l-58 71h-18l-80 -71h-50zM164 696h461l-11 -72h-391l-49 -321h286l-12 -73h-286l-24 -158h391l-11 -72h-461z" />
    <glyph glyph-name="Edieresis" unicode="&#xcb;" horiz-adv-x="557" 
d="M255 857h73l-11 -73h-73zM466 857h71l-11 -73h-71zM159 696h461l-11 -72h-391l-49 -321h286l-12 -73h-286l-24 -158h391l-11 -72h-461z" />
    <glyph glyph-name="Igrave" unicode="&#xcc;" horiz-adv-x="341" 
d="M313 909l66 -118h-44l-106 118h84zM63 72h86l85 552h-86l11 72h241l-11 -72h-85l-85 -552h85l-11 -72h-241z" />
    <glyph glyph-name="Iacute" unicode="&#xcd;" horiz-adv-x="341" 
d="M313 909h85l-142 -118h-44zM63 72h86l85 552h-86l11 72h241l-11 -72h-85l-85 -552h85l-11 -72h-241z" />
    <glyph glyph-name="Icircumflex" unicode="&#xce;" horiz-adv-x="341" 
d="M263 904h98l56 -147h-50l-58 71h-19l-79 -71h-51zM63 72h86l85 552h-86l11 72h241l-11 -72h-85l-85 -552h85l-11 -72h-241z" />
    <glyph glyph-name="Idieresis" unicode="&#xcf;" horiz-adv-x="341" 
d="M164 857h72l-11 -73h-72zM375 857h71l-11 -73h-71zM64 72h85l85 552h-85l11 72h240l-11 -72h-85l-85 -552h85l-11 -72h-240z" />
    <glyph glyph-name="Eth" unicode="&#xd0;" horiz-adv-x="589" 
d="M88 230h-77l12 73h77l60 393h171q70 0 126.5 -28t94 -75.5t50.5 -98t13 -90.5q0 -28 -4 -56q-11 -70 -46.5 -133.5t-88 -111t-117.5 -75.5t-135 -28h-171zM235 70q56 0 107 23t91 62t66.5 89t35.5 104q3 22 3 44q0 31 -9 71t-37 78t-72 61t-100 23h-100l-49 -322h77
l-12 -73h-77l-24 -160h100z" />
    <glyph glyph-name="Ntilde" unicode="&#xd1;" horiz-adv-x="578" 
d="M301 766q0 5 0.5 10.5t1.5 10.5q8 48 31 76.5t70 28.5q22 0 38.5 -11.5t31.5 -26.5q4 -5 8 -8.5t7 -7.5l7.5 -7.5t8.5 -6.5q7 -7 16 -11.5t20 -4.5q22 0 33 12.5t14 30.5q1 5 1 14q1 1 1 3q0 1 -0.5 3t-0.5 5v13l51 5q-1 -10 -1.5 -19t-2.5 -18q-7 -42 -26 -65t-60 -23
q-29 0 -49 11t-35 26q-8 8 -15 15.5t-14 12.5q-6 6 -13.5 10.5t-18.5 4.5q-13 0 -22.5 -6t-16.5 -15t-10.5 -18.5t-4.5 -17.5q-1 -5 -1 -10v-11zM159 696h168l101 -625h46l96 625h71l-107 -696h-167l-102 623h-46l-96 -623h-71z" />
    <glyph glyph-name="Ograve" unicode="&#xd2;" horiz-adv-x="736" 
d="M527 909l65 -118h-43l-107 118h85zM373 -8q-71 0 -127.5 29t-93.5 78t-49 100t-12 90q0 29 5 59q11 71 46 135.5t87 114t117 78.5t136 29t127 -29t93 -78.5t49.5 -100.5t12.5 -91q0 -29 -5 -58q-11 -71 -46.5 -135.5t-87 -113.5t-116.5 -78t-136 -29zM384 63
q57 0 108 24.5t91 64t66 91t35 105.5q3 23 3 46q0 30 -8 70.5t-36 80.5t-71.5 64t-100.5 24q-58 0 -109 -24t-90.5 -64t-66 -91.5t-34.5 -105.5q-4 -25 -4 -49q0 -29 8 -68.5t36 -79t71.5 -64t101.5 -24.5z" />
    <glyph glyph-name="Oacute" unicode="&#xd3;" horiz-adv-x="736" 
d="M537 909h84l-142 -118h-43zM373 -8q-71 0 -127.5 29t-93.5 78t-49 100t-12 90q0 29 5 59q11 71 46 135.5t87 114t117 78.5t136 29t127 -29t93 -78.5t49.5 -100.5t12.5 -91q0 -29 -5 -58q-11 -71 -46.5 -135.5t-87 -113.5t-116.5 -78t-136 -29zM384 63q57 0 108 24.5
t91 64t66 91t35 105.5q3 23 3 46q0 30 -8 70.5t-36 80.5t-71.5 64t-100.5 24q-58 0 -109 -24t-90.5 -64t-66 -91.5t-34.5 -105.5q-4 -25 -4 -49q0 -29 8 -68.5t36 -79t71.5 -64t101.5 -24.5z" />
    <glyph glyph-name="Ocircumflex" unicode="&#xd4;" horiz-adv-x="736" 
d="M464 904h98l56 -147h-50l-58 71h-19l-79 -71h-50zM373 -8q-71 0 -127.5 29t-93.5 78t-49 100t-12 90q0 29 5 59q11 71 46 135.5t87 114t117 78.5t136 29t127 -29t93 -78.5t49.5 -100.5t12.5 -91q0 -29 -5 -58q-11 -71 -46.5 -135.5t-87 -113.5t-116.5 -78t-136 -29z
M384 63q57 0 108 24.5t91 64t66 91t35 105.5q3 23 3 46q0 30 -8 70.5t-36 80.5t-71.5 64t-100.5 24q-58 0 -109 -24t-90.5 -64t-66 -91.5t-34.5 -105.5q-4 -25 -4 -49q0 -29 8 -68.5t36 -79t71.5 -64t101.5 -24.5z" />
    <glyph glyph-name="Otilde" unicode="&#xd5;" horiz-adv-x="736" 
d="M336 766q0 5 0.5 10.5t1.5 10.5q8 48 30.5 76.5t69.5 28.5q23 0 39 -11.5t32 -26.5q4 -5 8 -8.5t7 -7.5q4 -4 7 -7.5t8 -6.5q7 -7 16.5 -11.5t20.5 -4.5q21 0 32.5 12.5t14.5 30.5q1 5 1 14q1 1 1 3q0 1 -0.5 3t-0.5 5q-1 5 -1 13l51 5q-1 -10 -1.5 -19t-2.5 -18
q-7 -42 -25.5 -65t-59.5 -23q-29 0 -49 11t-35 26l-15.5 15.5t-13.5 12.5q-6 6 -13.5 10.5t-18.5 4.5q-13 0 -22.5 -6t-16.5 -15t-10.5 -18.5t-4.5 -17.5q-1 -5 -1 -10v-11zM373 -8q-71 0 -127.5 29t-93.5 78t-49 100t-12 90q0 29 5 59q11 71 46 135.5t87 114t117 78.5
t136 29t127 -29t93 -78.5t49.5 -100.5t12.5 -91q0 -29 -5 -58q-11 -71 -46.5 -135.5t-87 -113.5t-116.5 -78t-136 -29zM384 63q57 0 108 24.5t91 64t66 91t35 105.5q3 23 3 46q0 30 -8 70.5t-36 80.5t-71.5 64t-100.5 24q-58 0 -109 -24t-90.5 -64t-66 -91.5t-34.5 -105.5
q-4 -25 -4 -49q0 -29 8 -68.5t36 -79t71.5 -64t101.5 -24.5z" />
    <glyph glyph-name="Odieresis" unicode="&#xd6;" horiz-adv-x="736" 
d="M360 857h72l-11 -73h-72zM570 857h71l-11 -73h-71zM373 -8q-71 0 -127.5 29t-93.5 78t-49 100t-12 90q0 29 5 59q11 71 46 135.5t87 114t117 78.5t136 29t127 -29t93 -78.5t49.5 -100.5t12.5 -91q0 -29 -5 -58q-11 -71 -46.5 -135.5t-87 -113.5t-116.5 -78t-136 -29z
M384 63q57 0 108 24.5t91 64t66 91t35 105.5q3 23 3 46q0 30 -8 70.5t-36 80.5t-71.5 64t-100.5 24q-58 0 -109 -24t-90.5 -64t-66 -91.5t-34.5 -105.5q-4 -25 -4 -49q0 -29 8 -68.5t36 -79t71.5 -64t101.5 -24.5z" />
    <glyph glyph-name="multiply" unicode="&#xd7;" horiz-adv-x="401" 
d="M207 352l-63 75l57 51l63 -74l86 77l42 -51l-85 -76l63 -74l-56 -52l-64 74l-84 -76l-45 50z" />
    <glyph glyph-name="Oslash" unicode="&#xd8;" horiz-adv-x="736" 
d="M373 -8q-71 0 -127 29q-4 2 -7 3l-17 -24h-76l42 60q-20 18 -36 39q-37 49 -49 100t-12 90q0 29 5 59q11 71 46 135.5t87 114t117 78.5t136 29t127 -29q3 -2 6 -3l16 23h76l-41 -59q20 -18 36 -39q37 -50 49.5 -101t12.5 -91q0 -29 -5 -58q-11 -71 -46.5 -135.5
t-87 -113.5t-116.5 -78t-136 -29zM571 609q-44 24 -100 24q-58 0 -109 -24t-90.5 -64t-66 -91.5t-34.5 -105.5q-4 -25 -4 -49q0 -29 8 -68.5t36 -78.5q10 -15 22 -27zM384 63q57 0 108 24.5t91 64t66 91t35 105.5q3 23 3 46q0 30 -8 70.5t-36 80.5q-10 15 -22 27l-338 -485
q43 -24 101 -24z" />
    <glyph glyph-name="Ugrave" unicode="&#xd9;" horiz-adv-x="557" 
d="M402 912l65 -118h-44l-106 118h85zM159 696h71l-96 -624h320l96 624h70l-107 -696h-461z" />
    <glyph glyph-name="Uacute" unicode="&#xda;" horiz-adv-x="557" 
d="M457 912h84l-142 -118h-44zM159 696h71l-96 -624h320l96 624h70l-107 -696h-461z" />
    <glyph glyph-name="Ucircumflex" unicode="&#xdb;" horiz-adv-x="557" 
d="M372 904h99l55 -147h-50l-58 71h-18l-79 -71h-51zM159 696h71l-96 -624h320l96 624h70l-107 -696h-461z" />
    <glyph glyph-name="Udieresis" unicode="&#xdc;" horiz-adv-x="557" 
d="M274 856h72l-12 -73h-72zM484 856h71l-12 -73h-71zM159 696h71l-96 -624h320l96 624h70l-107 -696h-461z" />
    <glyph glyph-name="Yacute" unicode="&#xdd;" horiz-adv-x="531" 
d="M431 909h84l-142 -118h-44zM236 0q2 17 7 46.5t10 62.5q3 20 6 39.5t5 35.5q2 8 2.5 14t1.5 11q1 3 1 7q1 2 1 3t-1 1v2q-4 26 -9.5 46t-12.5 39q-6 18 -13 37t-15 42l-94 310h68l109 -358h43l219 358h68l-190 -310q-14 -23 -27 -42t-25 -37q-13 -19 -25 -39t-23 -46
l-2 -6q0 -4 -1 -7q-1 -5 -1.5 -11t-2.5 -14q-2 -16 -5 -35.5t-6 -39.5q-5 -33 -10 -62.5t-7 -46.5h-71z" />
    <glyph glyph-name="Thorn" unicode="&#xde;" horiz-adv-x="481" 
d="M159 695h71l-25 -164h147q37 0 66.5 -14.5t49.5 -40t26.5 -51.5t6.5 -47q0 -15 -2 -31q-6 -37 -24.5 -70.5t-46.5 -59t-62 -40t-71 -14.5h-147l-25 -164h-71zM306 235q23 0 44.5 9t38 24.5t28 36t14.5 42.5q2 10 2 20q0 12 -4 28t-16 31.5t-30.5 25t-41.5 9.5h-147
l-35 -226h147z" />
    <glyph glyph-name="germandbls" unicode="&#xdf;" horiz-adv-x="621" 
 />
    <glyph glyph-name="agrave" unicode="&#xe0;" horiz-adv-x="453" 
d="M344 705l66 -119h-44l-106 119h84zM337 28q-53 -37 -114 -37q-37 0 -68 14.5t-52 39.5t-28.5 52t-7.5 50q0 14 2 29q6 39 25.5 71.5t47.5 56t63.5 36.5t72.5 13q52 0 90 -26l16 -13l16 100h-273l11 74h344l-64 -415h44l-11 -73h-89l-12 36zM134 171q-2 -10 -2 -18
q0 -15 5.5 -32t19.5 -31.5t33.5 -22.5t42.5 -8q22 0 44.5 7t41.5 21t33 34t18 45q2 12 2 23q0 39 -25.5 70.5t-79.5 31.5q-26 0 -48.5 -9t-40 -25.5t-29 -38t-15.5 -47.5z" />
    <glyph glyph-name="aacute" unicode="&#xe1;" horiz-adv-x="453" 
d="M395 705h85l-142 -119h-44zM337 28q-53 -37 -114 -37q-37 0 -68 14.5t-52 39.5t-28.5 52t-7.5 50q0 14 2 29q6 39 25.5 71.5t47.5 56t63.5 36.5t72.5 13q52 0 90 -26l16 -13l16 100h-273l11 74h344l-64 -415h44l-11 -73h-89l-12 36zM134 171q-2 -10 -2 -18q0 -15 5.5 -32
t19.5 -31.5t33.5 -22.5t42.5 -8q22 0 44.5 7t41.5 21t33 34t18 45q2 12 2 23q0 39 -25.5 70.5t-79.5 31.5q-26 0 -48.5 -9t-40 -25.5t-29 -38t-15.5 -47.5z" />
    <glyph glyph-name="acircumflex" unicode="&#xe2;" horiz-adv-x="453" 
d="M295 696h98l56 -146h-49l-59 70h-19l-78 -70h-51zM337 28q-53 -37 -114 -37q-37 0 -68 14.5t-52 39.5t-28.5 52t-7.5 50q0 14 2 29q6 39 25.5 71.5t47.5 56t63.5 36.5t72.5 13q52 0 90 -26l16 -13l16 100h-273l11 74h344l-64 -415h44l-11 -73h-89l-12 36zM134 171
q-2 -10 -2 -18q0 -15 5.5 -32t19.5 -31.5t33.5 -22.5t42.5 -8q22 0 44.5 7t41.5 21t33 34t18 45q2 12 2 23q0 39 -25.5 70.5t-79.5 31.5q-26 0 -48.5 -9t-40 -25.5t-29 -38t-15.5 -47.5z" />
    <glyph glyph-name="atilde" unicode="&#xe3;" horiz-adv-x="453" 
d="M162 558q0 5 0.5 10.5t1.5 11.5q8 48 30.5 76t69.5 28q23 0 39.5 -11t30.5 -27q5 -4 9 -7.5t7 -8.5q4 -4 7 -7.5t8 -6.5q8 -6 16.5 -11t20.5 -5q21 0 32 12.5t14 31.5q1 4 1 13q1 1 1 3q0 1 -0.5 3t-0.5 6v12l51 5q-1 -9 -1.5 -18.5t-2.5 -18.5q-7 -42 -25.5 -65
t-59.5 -23q-30 0 -49.5 11.5t-35.5 25.5q-12 13 -22 22l-9 9q-5 4 -11 8q-8 5 -19 5q-13 0 -22.5 -6t-16 -15t-10.5 -19t-5 -18q-1 -3 -1 -7q0 -2 0.5 -5.5t0.5 -8.5zM337 28q-53 -37 -114 -37q-37 0 -68 14.5t-52 39.5t-28.5 52t-7.5 50q0 14 2 29q6 39 25.5 71.5t47.5 56
t63.5 36.5t72.5 13q52 0 90 -26l16 -13l16 100h-273l11 74h344l-64 -415h44l-11 -73h-89l-12 36zM134 171q-2 -10 -2 -18q0 -15 5.5 -32t19.5 -31.5t33.5 -22.5t42.5 -8q22 0 44.5 7t41.5 21t33 34t18 45q2 12 2 23q0 39 -25.5 70.5t-79.5 31.5q-26 0 -48.5 -9t-40 -25.5
t-29 -38t-15.5 -47.5z" />
    <glyph glyph-name="adieresis" unicode="&#xe4;" horiz-adv-x="453" 
d="M206 652h72l-11 -72h-72zM417 652h71l-11 -72h-71zM337 28q-53 -37 -114 -37q-37 0 -68 14.5t-52 39.5t-28.5 52t-7.5 50q0 14 2 29q6 39 25.5 71.5t47.5 56t63.5 36.5t72.5 13q52 0 90 -26l16 -13l16 100h-273l11 74h344l-64 -415h44l-11 -73h-89l-12 36zM134 171
q-2 -10 -2 -18q0 -15 5.5 -32t19.5 -31.5t33.5 -22.5t42.5 -8q22 0 44.5 7t41.5 21t33 34t18 45q2 12 2 23q0 39 -25.5 70.5t-79.5 31.5q-26 0 -48.5 -9t-40 -25.5t-29 -38t-15.5 -47.5z" />
    <glyph glyph-name="aring" unicode="&#xe5;" horiz-adv-x="453" 
d="M337 28q-53 -37 -114 -37q-37 0 -68 14.5t-52 39.5t-28.5 52t-7.5 50q0 14 2 29q6 39 25.5 71.5t47.5 56t63.5 36.5t72.5 13q52 0 90 -26l16 -13l16 100h-273l11 74h100q-11 8 -19 18q-14 15 -18.5 32.5t-4.5 32.5q0 9 1 17q4 24 16.5 45.5t30.5 37t40 25t46 9.5t43 -9.5
t32 -25t18 -32.5t5 -31q0 -9 -2 -19q-3 -24 -15.5 -45.5t-30.5 -36.5q-12 -10 -25 -18h127l-64 -415h44l-11 -73h-89l-12 36zM303 524q27 0 47 19t24 45q1 7 1 13q0 18 -13 34.5t-40 16.5q-26 0 -47 -18.5t-26 -45.5q-1 -5 -1 -10q0 -21 14.5 -37.5t40.5 -16.5zM134 171
q-2 -10 -2 -18q0 -15 5.5 -32t19.5 -31.5t33.5 -22.5t42.5 -8q22 0 44.5 7t41.5 21t33 34t18 45q2 12 2 23q0 39 -25.5 70.5t-79.5 31.5q-26 0 -48.5 -9t-40 -25.5t-29 -38t-15.5 -47.5z" />
    <glyph glyph-name="ae" unicode="&#xe6;" horiz-adv-x="832" 
d="M389 78q-32 -41 -75.5 -63.5t-91.5 -22.5q-37 0 -68 14.5t-52 39.5t-28.5 52t-7.5 50q0 14 2 29q6 38 25.5 72t48.5 59t64.5 39.5t72.5 14.5q26 0 49 -7.5t43 -21.5l17 -13l15 95h-273l11 74h343l-9 -61l23 17q34 25 73 39t78 14q50 0 89.5 -20.5t65.5 -55t34.5 -71
t8.5 -64.5q0 -20 -3 -41l-2 -8l-3 -16l-2 -8h-390v-16q3 -27 13 -51.5t27 -43.5t40.5 -30.5t53.5 -11.5q38 0 73 19t61 48h84q-19 -30 -44.5 -55t-55 -43t-62.5 -28t-66 -10q-52 0 -94 22.5t-69 64.5l-8 14zM772 277l-1 15q-2 27 -12 52t-27 44t-40.5 30.5t-53.5 11.5
t-57 -11.5t-49.5 -30.5t-40.5 -44t-29 -52l-5 -15h315zM232 59q23 0 46 9.5t42.5 25.5t32.5 37.5t17 45.5q1 9 1 17q0 15 -5.5 32.5t-20 33t-34.5 24.5t-43 9q-24 0 -46.5 -9t-40.5 -25t-30.5 -37t-16.5 -45q-2 -10 -2 -19q0 -14 5 -31t18.5 -33t33 -25.5t43.5 -9.5z" />
    <glyph glyph-name="ccedilla" unicode="&#xe7;" horiz-adv-x="443" 
d="M127 488h345l-23 -151h-70l12 77h-207l-51 -341h205l11 73h70l-22 -146h-217q3 -3 6 -5l-20 -45l68 -9q40 -5 60.5 -25t20.5 -50q0 -8 -1 -17q-3 -22 -15 -41.5t-29.5 -34t-38.5 -23t-43 -8.5h-130l11 69h128q14 0 28.5 10t17.5 28v6q0 10 -6.5 17.5t-19.5 9.5l-123 13
l46 105h-88z" />
    <glyph glyph-name="egrave" unicode="&#xe8;" horiz-adv-x="541" 
d="M383 705l65 -119h-43l-106 119h84zM150 198q2 -27 12 -52t27 -44t41 -30t54 -11q38 0 73 18.5t60 48.5h84q-19 -30 -44.5 -55t-55 -43t-62 -28t-65.5 -10q-50 0 -89.5 21t-65.5 56t-34 70.5t-8 63.5q0 20 3 42q8 50 32.5 95.5t61 80.5t82 55.5t95.5 20.5t89.5 -20.5
t65 -55.5t34 -71t8.5 -64q0 -20 -3 -41l-2 -8l-3 -15l-2 -8h-388v-16zM475 277l-1 15q-3 27 -13 51.5t-27 43t-40.5 30t-52.5 11.5q-30 0 -57 -11t-50 -30t-40.5 -43.5t-28.5 -51.5l-5 -15h315z" />
    <glyph glyph-name="eacute" unicode="&#xe9;" horiz-adv-x="541" 
d="M417 705h84l-142 -119h-44zM150 198q2 -27 12 -52t27 -44t41 -30t54 -11q38 0 73 18.5t60 48.5h84q-19 -30 -44.5 -55t-55 -43t-62 -28t-65.5 -10q-50 0 -89.5 21t-65.5 56t-34 70.5t-8 63.5q0 20 3 42q8 50 32.5 95.5t61 80.5t82 55.5t95.5 20.5t89.5 -20.5t65 -55.5
t34 -71t8.5 -64q0 -20 -3 -41l-2 -8l-3 -15l-2 -8h-388v-16zM475 277l-1 15q-3 27 -13 51.5t-27 43t-40.5 30t-52.5 11.5q-30 0 -57 -11t-50 -30t-40.5 -43.5t-28.5 -51.5l-5 -15h315z" />
    <glyph glyph-name="ecircumflex" unicode="&#xea;" horiz-adv-x="541" 
d="M333 696h99l56 -146h-50l-59 70h-18l-78 -70h-51zM150 198q2 -27 12 -52t27 -44t41 -30t54 -11q38 0 73 18.5t60 48.5h84q-19 -30 -44.5 -55t-55 -43t-62 -28t-65.5 -10q-50 0 -89.5 21t-65.5 56t-34 70.5t-8 63.5q0 20 3 42q8 50 32.5 95.5t61 80.5t82 55.5t95.5 20.5
t89.5 -20.5t65 -55.5t34 -71t8.5 -64q0 -20 -3 -41l-2 -8l-3 -15l-2 -8h-388v-16zM475 277l-1 15q-3 27 -13 51.5t-27 43t-40.5 30t-52.5 11.5q-30 0 -57 -11t-50 -30t-40.5 -43.5t-28.5 -51.5l-5 -15h315z" />
    <glyph glyph-name="edieresis" unicode="&#xeb;" horiz-adv-x="541" 
d="M234 652h72l-11 -72h-72zM444 652h71l-11 -72h-71zM150 198q2 -27 12 -52t27 -44t41 -30t54 -11q38 0 73 18.5t60 48.5h84q-19 -30 -44.5 -55t-55 -43t-62 -28t-65.5 -10q-50 0 -89.5 21t-65.5 56t-34 70.5t-8 63.5q0 20 3 42q8 50 32.5 95.5t61 80.5t82 55.5t95.5 20.5
t89.5 -20.5t65 -55.5t34 -71t8.5 -64q0 -20 -3 -41l-2 -8l-3 -15l-2 -8h-388v-16zM475 277l-1 15q-3 27 -13 51.5t-27 43t-40.5 30t-52.5 11.5q-30 0 -57 -11t-50 -30t-40.5 -43.5t-28.5 -51.5l-5 -15h315z" />
    <glyph glyph-name="igrave" unicode="&#xec;" horiz-adv-x="174" 
d="M189 705l65 -119h-44l-106 119h85zM80 177q12 78 25 155.5t26 156.5h68l-75 -487h-71z" />
    <glyph glyph-name="iacute" unicode="&#xed;" horiz-adv-x="174" 
d="M236 705h84l-142 -119h-44zM80 177q12 78 25 155.5t26 156.5h68l-75 -487h-71z" />
    <glyph glyph-name="icircumflex" unicode="&#xee;" horiz-adv-x="174" 
d="M148 696h98l57 -146h-50l-59 70h-19l-78 -70h-51zM81 177q12 78 25 155.5t26 156.5h68l-75 -487h-71z" />
    <glyph glyph-name="idieresis" unicode="&#xef;" horiz-adv-x="174" 
d="M48 652h72l-11 -72h-72zM259 652h71l-11 -72h-71zM81 177q12 78 25 155.5t26 156.5h68l-75 -487h-71z" />
    <glyph glyph-name="eth" unicode="&#xf0;" horiz-adv-x="558" 
d="M265 580l90 40l-19 11q-20 14 -39 23t-42 17l11 67q40 -11 81.5 -34.5t71.5 -48.5l5 -4l93 42l-6 -35l-61 -29l12 -12q67 -72 87 -147.5t20 -136.5q0 -42 -7 -86q-8 -52 -31.5 -99t-59 -81.5t-81.5 -55t-99 -20.5q-51 0 -93.5 20t-71.5 54.5t-39 72t-10 67.5q0 20 3 40
q8 53 34 99t64 81t86 55t100 20q48 0 80 -32l50 -53l-30 69q-14 32 -33.5 59.5t-44.5 50.5l-5 5l-121 -56zM301 61q38 0 70.5 16t57.5 42t41.5 59t21.5 67q2 15 2 31q0 18 -4.5 43.5t-21.5 52t-44.5 42.5t-65.5 16q-36 0 -70 -15.5t-61.5 -41.5t-46 -59.5t-23.5 -68.5
q-2 -14 -2 -29q0 -20 6.5 -46t26 -52t48.5 -41.5t65 -15.5z" />
    <glyph glyph-name="ntilde" unicode="&#xf1;" horiz-adv-x="486" 
d="M173 558q0 5 0.5 10.5t1.5 11.5q8 48 30.5 76t69.5 28q23 0 39.5 -11t30.5 -27q5 -4 9 -7.5t7 -8.5q4 -4 7 -7.5t8 -6.5q8 -6 16.5 -11t20.5 -5q21 0 32 12.5t14 31.5q1 4 1 13q1 1 1 3q0 1 -0.5 3t-0.5 6v12l51 5q-1 -9 -1.5 -18.5t-2.5 -18.5q-7 -42 -25.5 -65
t-59.5 -23q-30 0 -49.5 11.5t-35.5 25.5q-12 13 -22 22l-9 9q-5 4 -11 8q-8 5 -19 5q-13 0 -22.5 -6t-16 -15t-10 -19t-4.5 -18q-1 -5 -1 -10v-11zM127 488h389l-75 -488h-72l64 415h-246l-64 -415h-71z" />
    <glyph glyph-name="ograve" unicode="&#xf2;" horiz-adv-x="542" 
d="M383 705l65 -119h-43l-106 119h84zM274 -8q-50 0 -89.5 20.5t-65.5 55.5t-34 70.5t-8 63.5q0 20 3 42q8 50 32 95.5t60.5 80.5t82.5 56t96 21t89.5 -21t65.5 -56t34.5 -71t8.5 -64q0 -20 -3 -41q-8 -50 -32.5 -95.5t-61.5 -80.5t-82.5 -55.5t-95.5 -20.5zM284 61
q37 0 69.5 16t57 42t41 59t21.5 66q2 15 2 30q0 18 -4.5 43.5t-21.5 52t-44 42.5t-64 16t-69 -16t-56.5 -42.5t-40.5 -59.5t-21 -66q-2 -16 -2 -31q0 -18 4 -43t20.5 -51t43.5 -42t64 -16z" />
    <glyph glyph-name="oacute" unicode="&#xf3;" horiz-adv-x="542" 
d="M383 705h84l-142 -119h-43zM274 -8q-50 0 -89.5 20.5t-65.5 55.5t-34 70.5t-8 63.5q0 20 3 42q8 50 32 95.5t60.5 80.5t82.5 56t96 21t89.5 -21t65.5 -56t34.5 -71t8.5 -64q0 -20 -3 -41q-8 -50 -32.5 -95.5t-61.5 -80.5t-82.5 -55.5t-95.5 -20.5zM284 61q37 0 69.5 16
t57 42t41 59t21.5 66q2 15 2 30q0 18 -4.5 43.5t-21.5 52t-44 42.5t-64 16t-69 -16t-56.5 -42.5t-40.5 -59.5t-21 -66q-2 -16 -2 -31q0 -18 4 -43t20.5 -51t43.5 -42t64 -16z" />
    <glyph glyph-name="ocircumflex" unicode="&#xf4;" horiz-adv-x="542" 
d="M333 696h99l56 -146h-50l-59 70h-18l-78 -70h-51zM274 -8q-50 0 -89.5 20.5t-65.5 55.5t-34 70.5t-8 63.5q0 20 3 42q8 50 32 95.5t60.5 80.5t82.5 56t96 21t89.5 -21t65.5 -56t34.5 -71t8.5 -64q0 -20 -3 -41q-8 -50 -32.5 -95.5t-61.5 -80.5t-82.5 -55.5t-95.5 -20.5z
M284 61q37 0 69.5 16t57 42t41 59t21.5 66q2 15 2 30q0 18 -4.5 43.5t-21.5 52t-44 42.5t-64 16t-69 -16t-56.5 -42.5t-40.5 -59.5t-21 -66q-2 -16 -2 -31q0 -18 4 -43t20.5 -51t43.5 -42t64 -16z" />
    <glyph glyph-name="otilde" unicode="&#xf5;" horiz-adv-x="542" 
d="M201 558q0 5 0.5 10.5t1.5 11.5q8 48 31 76t70 28q22 0 39 -11t31 -27q10 -8 15 -16l7.5 -7.5t8.5 -6.5q8 -6 16.5 -11t19.5 -5q22 0 33 12.5t14 31.5q1 4 1 13q1 1 1 3q0 1 -0.5 3t-0.5 6v12l51 5q-1 -9 -1.5 -18.5t-2.5 -18.5q-7 -42 -26 -65t-60 -23q-29 0 -49 11.5
t-35 25.5q-8 8 -15 15.5t-14 12.5q-6 6 -13.5 11t-18.5 5q-13 0 -22.5 -6t-16.5 -15t-10.5 -19t-4.5 -18q-1 -5 -1 -10v-11zM274 -8q-50 0 -89.5 20.5t-65.5 55.5t-34 70.5t-8 63.5q0 20 3 42q8 50 32 95.5t60.5 80.5t82.5 56t96 21t89.5 -21t65.5 -56t34.5 -71t8.5 -64
q0 -20 -3 -41q-8 -50 -32.5 -95.5t-61.5 -80.5t-82.5 -55.5t-95.5 -20.5zM284 61q37 0 69.5 16t57 42t41 59t21.5 66q2 15 2 30q0 18 -4.5 43.5t-21.5 52t-44 42.5t-64 16t-69 -16t-56.5 -42.5t-40.5 -59.5t-21 -66q-2 -16 -2 -31q0 -18 4 -43t20.5 -51t43.5 -42t64 -16z
" />
    <glyph glyph-name="odieresis" unicode="&#xf6;" horiz-adv-x="542" 
d="M234 652h72l-11 -72h-72zM444 652h71l-11 -72h-71zM274 -8q-50 0 -89.5 20.5t-65.5 55.5t-34 70.5t-8 63.5q0 20 3 42q8 50 32 95.5t60.5 80.5t82.5 56t96 21t89.5 -21t65.5 -56t34.5 -71t8.5 -64q0 -20 -3 -41q-8 -50 -32.5 -95.5t-61.5 -80.5t-82.5 -55.5t-95.5 -20.5z
M284 61q37 0 69.5 16t57 42t41 59t21.5 66q2 15 2 30q0 18 -4.5 43.5t-21.5 52t-44 42.5t-64 16t-69 -16t-56.5 -42.5t-40.5 -59.5t-21 -66q-2 -16 -2 -31q0 -18 4 -43t20.5 -51t43.5 -42t64 -16z" />
    <glyph glyph-name="divide" unicode="&#xf7;" horiz-adv-x="258" 
d="M176 550h71l-12 -73h-71zM-26 327h416l-11 -73h-416zM110 125h71l-11 -72h-71z" />
    <glyph glyph-name="oslash" unicode="&#xf8;" horiz-adv-x="542" 
d="M274 -8q-50 0 -89 21l-12 6l-16 -19h-87l53 63q-2 3 -4 5q-26 35 -34 70.5t-8 63.5q0 20 3 42q8 50 32 95.5t60.5 80.5t82.5 56t96 21t90 -21q8 -4 15 -9l19 22h97l-63 -74q24 -33 34 -75q6 -27 6 -55q0 -20 -3 -41q-8 -50 -32.5 -95.5t-61.5 -80.5t-82.5 -55.5
t-95.5 -20.5zM409 409q-2 2 -4 3q-27 16 -64 16t-69 -16t-56.5 -42.5t-40.5 -59.5t-21 -66q-2 -15 -2 -30q0 -18 3 -36q4 -30 18 -53zM284 61q37 0 69.5 16t57 42t41 59t21.5 66q2 15 2 30q0 18 -3 36q-4 24 -14 44l-236 -278q26 -15 62 -15z" />
    <glyph glyph-name="ugrave" unicode="&#xf9;" horiz-adv-x="486" 
d="M348 705l66 -119h-44l-106 119h84zM127 488h71l-64 -416h246l64 416h72l-75 -488h-389z" />
    <glyph glyph-name="uacute" unicode="&#xfa;" horiz-adv-x="486" 
d="M378 705h84l-142 -119h-44zM127 488h71l-64 -416h246l64 416h72l-75 -488h-389z" />
    <glyph glyph-name="ucircumflex" unicode="&#xfb;" horiz-adv-x="486" 
d="M328 696h99l56 -146h-50l-59 70h-18l-78 -70h-51zM127 488h71l-64 -416h246l64 416h72l-75 -488h-389z" />
    <glyph glyph-name="udieresis" unicode="&#xfc;" horiz-adv-x="486" 
d="M229 652h73l-11 -72h-73zM440 652h71l-11 -72h-71zM127 488h71l-64 -416h246l64 416h72l-75 -488h-389z" />
    <glyph glyph-name="yacute" unicode="&#xfd;" horiz-adv-x="591" 
d="M429 705h84l-142 -119h-44zM75 -134h381l32 205l-23 -17q-40 -30 -85 -46t-91 -16q-54 0 -94.5 21t-66.5 56.5t-33.5 72t-7.5 64.5q0 23 4 47l36 235h71l-36 -235q-3 -19 -3 -37q0 -17 4 -43t21 -54t45.5 -45.5t69.5 -17.5q39 0 75.5 16.5t66 44t49.5 63t26 73.5l19 125
q2 10 2.5 17t1.5 14q1 8 2 14t3 14q2 2 4 6q3 4 6 9.5t7 10.5q5 7 9.5 13.5t7.5 11.5h88l-11 -73h-44l-96 -621h-451z" />
    <glyph glyph-name="thorn" unicode="&#xfe;" horiz-adv-x="566" 
d="M149 624h-43l11 72h88q2 -5 4.5 -11t4.5 -13q2 -6 3.5 -11t3.5 -9t2 -6q0 -19 -3 -31.5t-6 -31.5l-25 -158l23 16q37 27 80.5 42t86.5 15q52 0 91.5 -20t64.5 -54t32.5 -69.5t7.5 -61.5q0 -23 -4 -46q-8 -52 -31.5 -99t-59 -81.5t-81 -55t-98.5 -20.5q-44 0 -82 14.5
t-67 43.5l-18 17l-42 -273h-71zM311 60q38 0 70 16.5t57 43.5t41.5 60.5t21.5 66.5q2 14 2 29q0 18 -5 44t-22 51.5t-44.5 41.5t-63.5 16t-69.5 -15.5t-60.5 -41t-45 -58t-23 -67.5q-2 -14 -2 -28q0 -20 6 -47t24.5 -53.5t47 -42.5t65.5 -16z" />
    <glyph glyph-name="ydieresis" unicode="&#xff;" horiz-adv-x="591" 
d="M280 652h72l-11 -72h-72zM491 652h71l-11 -72h-71zM75 -134h381l32 205l-23 -17q-40 -30 -85 -46t-91 -16q-54 0 -94.5 21t-66.5 56.5t-33.5 72t-7.5 64.5q0 23 4 47l36 235h71l-36 -235q-3 -19 -3 -37q0 -17 4 -43t21 -54t45.5 -45.5t69.5 -17.5q39 0 75.5 16.5t66 44
t49.5 63t26 73.5l19 125q2 10 2.5 17t1.5 14q1 8 2 14t3 14q2 2 4 6q3 4 6 9.5t7 10.5q5 7 9.5 13.5t7.5 11.5h88l-11 -73h-44l-96 -621h-451z" />
    <glyph glyph-name="Dcroat" unicode="&#x110;" horiz-adv-x="589" 
d="M88 230h-77l12 73h77l60 393h171q70 0 126.5 -28t94 -75.5t50.5 -98t13 -90.5q0 -28 -4 -56q-11 -70 -46.5 -133.5t-88 -111t-117.5 -75.5t-135 -28h-171zM235 70q56 0 107 23t91 62t66.5 89t35.5 104q3 22 3 44q0 31 -9 71t-37 78t-72 61t-100 23h-100l-49 -322h77
l-12 -73h-77l-24 -160h100z" />
    <glyph glyph-name="dcroat" unicode="&#x111;" horiz-adv-x="565" 
d="M460 66l-22 -17q-38 -29 -80.5 -43.5t-86.5 -14.5q-52 0 -91.5 20t-64.5 54.5t-32 69.5t-7 61q0 24 4 48q8 52 31.5 98t58.5 80.5t80.5 54.5t97.5 20q43 0 82 -15t68 -42l17 -16l25 159q3 19 3.5 32t5.5 31q2 2 4 6q3 4 6.5 9t6.5 11q5 7 9.5 13t7.5 11h88l-11 -71h-43
l-96 -625h-71zM281 61q36 0 70 15.5t61 41t45 58.5t24 68q2 13 2 27q0 21 -6.5 47.5t-25.5 52t-48 41t-65 15.5q-37 0 -69.5 -16t-57.5 -41.5t-41.5 -58.5t-21.5 -67q-2 -15 -2 -31q0 -18 4.5 -43.5t21.5 -51t44.5 -41.5t64.5 -16z" />
    <glyph glyph-name="dotlessi" unicode="&#x131;" horiz-adv-x="248" 
d="M158 489h71l-75 -489h-71z" />
    <glyph glyph-name="Lslash" unicode="&#x141;" horiz-adv-x="547" 
d="M80 178l-57 -40l10 62l57 40l70 456h71l-61 -400l119 82l-9 -62l-120 -82l-25 -162h390l-11 -72h-461z" />
    <glyph glyph-name="lslash" unicode="&#x142;" horiz-adv-x="199" 
d="M102 191l-76 -53l10 62l76 53l68 443h70l-60 -388l102 70l-9 -62l-102 -70l-38 -246h-70z" />
    <glyph glyph-name="OE" unicode="&#x152;" horiz-adv-x="1126" 
d="M378 -8q-71 0 -127.5 29t-93.5 78t-49 100t-12 90q0 29 5 59q11 71 46 135.5t87 114t117 78.5t136 29t127 -29t93 -78q12 -17 22 -34l20 132h461l-11 -72h-391l-49 -321h286l-12 -73h-286l-24 -158h391l-11 -72h-461l20 133q-15 -18 -31 -34q-52 -49 -117 -78t-136 -29z
M389 63q57 0 108 24.5t91 64t66 91t35 105.5q3 23 3 46q0 30 -8 70.5t-36 80.5t-71.5 64t-100.5 24q-58 0 -109 -24t-90.5 -64t-66 -91.5t-34.5 -105.5q-4 -25 -4 -49q0 -29 8 -68.5t36 -79t71.5 -64t101.5 -24.5z" />
    <glyph glyph-name="oe" unicode="&#x153;" horiz-adv-x="1159" 
 />
    <glyph glyph-name="Scaron" unicode="&#x160;" horiz-adv-x="516" 
d="M330 744l-56 147h51l57 -71h18l81 71h49l-101 -147h-99zM123 231v-8q0 -33 7.5 -62.5t26 -51t48 -33t71.5 -11.5q27 0 57 4.5t56.5 18t46.5 37.5t26 62q2 12 2 23q0 12 -3 29t-20 35q-14 15 -33.5 26.5t-41 20t-43 15t-41.5 10.5q-24 5 -45.5 13t-42.5 18q-38 21 -60 54
q-11 19 -12.5 34.5t-1.5 22.5q0 17 4 36q7 47 29 81t54.5 56t72.5 33t84 11q48 0 86 -12t63.5 -36t36.5 -55t11 -65q0 -11 -1 -23h-71q-7 118 -133 118q-22 0 -48 -4.5t-49 -16t-40.5 -32t-22.5 -52.5q-1 -8 -1 -15q0 -24 14 -42.5t41 -32.5q13 -7 28.5 -12.5t32.5 -11.5
q9 -2 17 -5l35 -9q9 -2 17 -5q35 -11 66.5 -25.5t53.5 -36.5t30.5 -47.5t8.5 -49.5q0 -17 -3 -35q-2 -14 -7 -30t-11 -32q-16 -43 -45.5 -72t-71.5 -49q-29 -15 -61.5 -20t-64.5 -5q-39 0 -74.5 7.5t-64.5 24t-50 42.5t-31 63q-8 24 -8 47q0 2 0.5 15t4.5 40h71z" />
    <glyph glyph-name="scaron" unicode="&#x161;" horiz-adv-x="455" 
d="M223 683h50l57 -70h19l80 70h50l-102 -147h-98zM131 157v-9q0 -5 -0.5 -8.5t-0.5 -4.5q0 -5 2 -10q4 -23 16 -36.5t28 -20t34.5 -8.5t35.5 -2q15 0 34.5 3t38 12t32.5 24t18 39q1 5 1 10q0 19 -14 33q-6 5 -15.5 9.5t-20 8.5t-20 7t-15.5 4l-90 22q-45 12 -68 36t-23 59
q0 10 1 20q6 38 24.5 66.5t45.5 47.5t60.5 28.5t69.5 9.5q38 0 68.5 -9t51.5 -27t30 -43t9 -52q0 -8 -1 -17h-71v9q0 21 -8 35.5t-23.5 23t-35 11.5t-38.5 3q-13 0 -29.5 -3t-32.5 -11t-28 -21.5t-15 -34.5q-1 -6 -1 -13q0 -4 1 -12t11 -17q5 -4 14.5 -7.5t19.5 -6.5
q9 -3 17.5 -5.5t13.5 -4.5l76 -21q27 -7 50 -16.5t38.5 -23.5t21.5 -30.5t6 -32.5q0 -10 -2 -22q-6 -39 -26 -68.5t-48.5 -49t-63.5 -29.5t-72 -10q-28 0 -55.5 3.5t-50 13t-39 25.5t-24.5 41q-5 11 -7.5 21.5t-2.5 21.5q0 10 0.5 19.5t1.5 19.5h70z" />
    <glyph glyph-name="Ydieresis" unicode="&#x178;" horiz-adv-x="530" 
d="M250 857h72l-11 -73h-72zM460 857h72l-11 -73h-72zM233 0q2 17 7 46.5t10 62.5q3 20 6 39.5t5 35.5q2 8 2.5 14t1.5 11q1 3 1 7q1 2 1 3t-1 1v2q-4 26 -9.5 46t-12.5 39q-6 18 -13 37t-15 42l-94 310h68l109 -358h43l219 358h68l-190 -310q-14 -23 -27 -42t-25 -37
q-13 -19 -25 -39t-23 -46l-2 -6q0 -4 -1 -7q-1 -5 -1.5 -11t-2.5 -14q-2 -16 -5 -35.5t-6 -39.5q-5 -33 -10 -62.5t-7 -46.5h-71z" />
    <glyph glyph-name="Zcaron" unicode="&#x17d;" horiz-adv-x="536" 
d="M275 891h50l58 -71h18l80 71h50l-101 -147h-99zM60 55l419 551l3 18h-334l11 72h439l-9 -59l-417 -545l-3 -20h333l-11 -72h-439z" />
    <glyph glyph-name="zcaron" unicode="&#x17e;" horiz-adv-x="440" 
d="M181 683h50l58 -70h18l80 70h50l-101 -147h-99zM65 82l303 333h-252l11 73h342l-12 -81l-304 -334h252l-11 -73h-342z" />
    <glyph glyph-name="florin" unicode="&#x192;" horiz-adv-x="313" 
d="M140 413h-86l11 74h86l39 257h358l-11 -72h-288l-28 -185h177l-11 -74h-177l-64 -413h-70z" />
    <glyph glyph-name="circumflex" unicode="&#x2c6;" horiz-adv-x="352" 
d="M237 696h98l57 -146h-50l-59 70h-19l-78 -70h-51z" />
    <glyph glyph-name="caron" unicode="&#x2c7;" horiz-adv-x="408" 
d="M183 683h51l57 -70h19l80 70h50l-102 -147h-98z" />
    <glyph glyph-name="breve" unicode="&#x2d8;" horiz-adv-x="334" 
d="M170 551v-10q0 -28 17 -43.5t53 -15.5q38 0 61 16.5t32 52.5h51q-14 -59 -53 -89.5t-99 -30.5q-59 0 -86 28.5t-27 74.5q0 8 1 17h50z" />
    <glyph glyph-name="dotaccent" unicode="&#x2d9;" horiz-adv-x="250" 
d="M176 540h71l-11 -72h-71z" />
    <glyph glyph-name="ring" unicode="&#x2da;" horiz-adv-x="241" 
d="M97 587q4 24 16.5 45.5t30.5 37t40 25t46 9.5t43 -9.5t32 -25t18 -32.5t5 -31q0 -9 -2 -19q-4 -24 -16 -45.5t-30 -37t-40 -25t-46 -9.5t-43.5 9.5t-32.5 25t-18 32.5t-5 31q0 9 2 19zM202 523q27 0 47.5 19t24.5 45q1 7 1 13q0 18 -13 34.5t-40 16.5q-26 0 -47 -18.5
t-26 -45.5q-1 -6 -1 -11q0 -20 14 -36.5t40 -16.5z" />
    <glyph glyph-name="ogonek" unicode="&#x2db;" horiz-adv-x="250" 
d="M74 -258q-22 0 -40 8.5t-31 23t-17.5 30.5t-4.5 30q0 7 1 15q6 42 36 64.5t72 27.5l70 9l-6 45l49 35v-8q0 -9 1.5 -27.5t4.5 -41.5q3 -27 7 -58l-127 -13q-13 -2 -23.5 -10.5t-12.5 -22.5q-1 -4 -1 -7q0 -13 10.5 -22t24.5 -9h128l-11 -69h-130z" />
    <glyph glyph-name="tilde" unicode="&#x2dc;" horiz-adv-x="392" 
d="M125 558q0 5 0.5 10.5t1.5 11.5q8 48 31 76t70 28q22 0 38.5 -11t31.5 -27q10 -8 15 -16q4 -4 7 -7.5t8 -6.5q8 -6 17 -11t20 -5q22 0 33 12.5t14 31.5q1 4 1 13q1 1 1 3q0 1 -0.5 3t-0.5 6v12l50 5q-1 -9 -1.5 -18.5t-2.5 -18.5q-7 -42 -25.5 -65t-59.5 -23
q-29 0 -49 11.5t-35 25.5l-15.5 15.5t-13.5 12.5q-6 6 -13.5 11t-18.5 5q-13 0 -22.5 -6t-16.5 -15t-10.5 -19t-4.5 -18q-1 -5 -1 -10v-11z" />
    <glyph glyph-name="hungarumlaut" unicode="&#x2dd;" horiz-adv-x="468" 
d="M235 705h84l-142 -119h-44zM425 705h84l-142 -119h-43z" />
    <glyph glyph-name="uni03BC" unicode="&#x3bc;" horiz-adv-x="613" 
 />
    <glyph glyph-name="endash" unicode="&#x2013;" horiz-adv-x="490" 
d="M130 327h345l-11 -73h-345z" />
    <glyph glyph-name="emdash" unicode="&#x2014;" horiz-adv-x="990" 
d="M130 327h859l-11 -73h-859z" />
    <glyph glyph-name="quoteleft" unicode="&#x2018;" horiz-adv-x="165" 
d="M207 704h76l-96 -141h-77z" />
    <glyph glyph-name="quoteright" unicode="&#x2019;" horiz-adv-x="165" 
d="M185 704h78l-111 -212h-79z" />
    <glyph glyph-name="quotesinglbase" unicode="&#x201a;" horiz-adv-x="240" 
d="M146 71h76l-106 -182h-78z" />
    <glyph glyph-name="quotedblleft" unicode="&#x201c;" horiz-adv-x="349" 
d="M376 704h77l-97 -141h-76zM207 704h76l-96 -141h-77z" />
    <glyph glyph-name="quotedblright" unicode="&#x201d;" horiz-adv-x="349" 
d="M377 704h79l-112 -212h-78zM208 704h78l-111 -212h-79z" />
    <glyph glyph-name="quotedblbase" unicode="&#x201e;" horiz-adv-x="406" 
d="M305 71h76l-106 -182h-77zM146 71h76l-106 -182h-78z" />
    <glyph glyph-name="dagger" unicode="&#x2020;" horiz-adv-x="250" 
d="M176 526h-107l11 72h107l15 97h71l-15 -97h106l-11 -72h-106l-49 -317h-71z" />
    <glyph glyph-name="daggerdbl" unicode="&#x2021;" horiz-adv-x="250" 
d="M199 696h71l-31 -199h121l-11 -72h-121l-18 -117h121l-11 -72h-121l-57 -372h-71l57 372h-121l11 72h121l18 117h-121l11 72h121z" />
    <glyph glyph-name="bullet" unicode="&#x2022;" horiz-adv-x="366" 
d="M189 376h121l-19 -122h-121z" />
    <glyph glyph-name="ellipsis" unicode="&#x2026;" horiz-adv-x="794" 
d="M105 72h71l-11 -72h-71zM378 72h71l-11 -72h-71zM650 72h71l-11 -72h-71z" />
    <glyph glyph-name="perthousand" unicode="&#x2030;" horiz-adv-x="1143" 
d="M659 696h77l-486 -696h-76zM138 526q5 30 20 56.5t37 46t49.5 31t57.5 11.5q29 0 53 -11.5t40 -31t22 -40.5t6 -39q0 -11 -2 -23q-4 -30 -19.5 -56t-37.5 -45.5t-49.5 -31t-56.5 -11.5t-53 11.5t-40.5 31t-22 41t-5.5 39.5q0 10 1 21zM269 452q15 0 29 6t25.5 16
t19.5 23.5t10 28.5q1 7 1 13q0 23 -16 42.5t-47 19.5q-32 0 -56 -22t-29 -53q-1 -5 -1 -10q0 -24 17 -44t47 -20zM852 172q5 30 20 56t37.5 45.5t50 31t56.5 11.5t53 -11.5t40 -31t21.5 -40t5.5 -37.5q0 -11 -2 -24q-4 -30 -19.5 -56t-37.5 -45.5t-49.5 -31t-56.5 -11.5
t-53 11.5t-40 31t-21.5 41t-5.5 39.5q0 10 1 21zM496 172q5 30 20 56t37.5 45.5t50 31t56.5 11.5q30 0 54 -11.5t40 -31t21.5 -40t5.5 -37.5q0 -11 -2 -24q-4 -30 -19.5 -56t-37.5 -45.5t-49.5 -31t-57.5 -11.5q-29 0 -53 11.5t-40 31t-21.5 41t-5.5 39.5q0 10 1 21zM982 97
q30 0 54.5 22t29.5 53q1 7 1 14q0 22 -15 41.5t-47 19.5t-56 -22t-29 -53q-1 -7 -1 -13q0 -23 16.5 -42.5t46.5 -19.5zM626 97q30 0 54.5 22t29.5 53q1 7 1 14q0 22 -15 41.5t-47 19.5q-31 0 -55.5 -22t-29.5 -53q-1 -6 -1 -13q0 -23 17 -42.5t46 -19.5z" />
    <glyph glyph-name="guilsinglleft" unicode="&#x2039;" horiz-adv-x="300" 
d="M101 357l168 243h77l-170 -243l95 -244h-77z" />
    <glyph glyph-name="guilsinglright" unicode="&#x203a;" horiz-adv-x="300" 
d="M239 357l-95 243h77l94 -243l-169 -244h-77z" />
    <glyph glyph-name="fraction" unicode="&#x2044;" horiz-adv-x="526" 
d="M525 696h76l-485 -696h-77z" />
    <glyph glyph-name="Euro" unicode="&#x20ac;" 
d="M199 696h419l-107 -696h-419zM241 497h275l19 126h-275zM211 308h275l18 117h-275zM450 73l25 163h-275l-25 -163h275z" />
    <glyph glyph-name="trademark" unicode="&#x2122;" horiz-adv-x="1317" 
d="M333 624h-195l11 72h462l-11 -72h-195l-96 -624h-72zM717 696h163l83 -490h29l238 490h163l-107 -696h-73l96 624h-33l-239 -492h-142l-84 492h-33l-96 -624h-72z" />
    <glyph glyph-name="minus" unicode="&#x2212;" 
d="M120 327h416l-11 -73h-416z" />
    <glyph glyph-name="fi" unicode="&#xfb01;" horiz-adv-x="592" 
d="M264 413h-86l11 74h86l39 257h358l-11 -72h-288l-28 -185h177l-11 -74h-177l-64 -413h-70zM545 487h71l-75 -487h-70z" />
    <glyph glyph-name="fl" unicode="&#xfb02;" horiz-adv-x="592" 
d="M79 413h-86l11 74h86l39 257h414l-114 -744h-70l103 672h-274l-28 -185h177l-11 -74h-177l-64 -413h-70z" />
    <glyph glyph-name="none" horiz-adv-x="323" 
d="M-31216 319h289l11 72h-54l47 305h-89q-26 -60 -64.5 -86t-99.5 -29l-11 -71q20 0 41.5 3t41.5 9t37 15.5t29 23.5l27 33l-29 -203h-165zM-31753 320h279l34 217l-139 1l151 82l12 76h-279l-11 -71h179l-194 -99l-9 -61h208l-12 -74h-208zM-32415 320h278l11 71h-208
l12 74h208l35 231h-278l-11 -71h208l-13 -88h-208zM-32912 551q-1 -8 -1 -16q0 -46 27.5 -75t85.5 -29q99 0 99 30l19.5 15.5t32.5 74.5h-50v0q0 -70 -93 -70q-71 0 -71 63v7h-49zM-33893 209h480l75 487h-480zM-35637 528h71l11 73h-71zM-37292 567h294l11 71h-294z
M-45830 352q0 2 -0.5 4t-0.5 4q0 6 -0.5 10.5t-0.5 6.5q0 5 1 10q1 8 8 18t22 10q8 0 15.5 -3.5t14.5 -8.5q14 -10 30 -24q17 -13 35 -22.5t39 -9.5q50 0 75 25.5t33 75.5q2 10 2.5 19.5t1.5 19.5l-67 -8q1 -8 1.5 -14.5t0.5 -9.5q0 -6 -1 -13q-2 -11 -10 -22.5t-25 -11.5
q-9 0 -16.5 4.5t-13.5 10.5q-7 5 -13 11.5t-14 13.5q-14 14 -33 25t-45 11q-51 0 -74 -27.5t-31 -78.5q-1 -8 -1.5 -16.5t-1.5 -17.5zM-46577 556h74l96 140h-75zM-46767 556h74l98 140h-75zM-47524 556h75l96 140h-76zM-47713 556h75l96 140h-75zM-48512 556h75l46 68h22
l27 -68h76l-55 140h-95zM-52522 556h75l-54 140h-75zM-35839 322h416l10 71h-416zM-46747 332h98l102 146h-50l-80 -70h-19l-57 70h-50zM-47293 323h95l97 140h-76l-46 -68h-22l-26 68h-76zM-55503 253q18 0 36.5 7.5t34 20t26 29t13.5 35.5q1 7 1 13q0 12 -4.5 25.5t-16 26
t-28 20t-34.5 7.5t-35.5 -7.5t-32 -20t-24 -29t-12.5 -35.5q-1 -8 -1 -16q0 -28 20 -52t57 -24zM-57140 403h279l11 71h-279zM-59311 467h73l74 158h38l33 -158h74l-48 229h-137zM-60250 456l15 -18l73 80zM-60271 538l94 13l-90 12zM-60221 644l68 -59l-47 78zM-60117 594
l29 102h-27zM-60087 584l90 60l-17 19zM-60071 551l91 -13l4 25zM-60049 438l23 18l-71 62zM-60160 405h27l3 101zM-60599 557h70l21 139h-70zM-61730 556h70l21 140h-70zM-61895 556h70l21 140h-70zM-67845 625h407l-17 -114h71l28 185h-478zM-100032 0h70l107 696h-70z
M-100187 0h71l107 696h-84q-87 0 -148 -48t-75 -137q-3 -16 -3 -29q0 -12 3.5 -27t15 -28.5t27.5 -22t34 -15.5q8 -3 17.5 -6.5t17.5 -5.5q9 -3 18 -6.5t16 -8.5q15 -8 22.5 -20.5t7.5 -26.5q0 -6 -1 -13zM-101237 113h71l11 72h-71zM-102576 73h129q22 0 43 8.5t38.5 23
t29.5 34t15 41.5q1 9 1 17q0 30 -19.5 50t-59.5 25l-70 8l21 45l-12 12q-5 5 -11 10t-11 10l-58 -131l123 -13q12 -2 18.5 -10t6.5 -18v-6q-3 -17 -17 -27.5t-29 -10.5h-127zM-104550 117h75l-95 243l170 244h-75l-170 -244zM-104742 117h75l-96 243l171 244h-75l-170 -244z
M-106877 67h169l-10 -67h70l10 67h167l11 72h-167l15 92h167l11 72h-131l240 393h-67l-219 -358h-42l-109 358h-67l121 -393h-132l-11 -72h169l-15 -92h-169zM-109511 110h137l-17 -110h70l17 110h138l22 145h-71l-11 -73h-67l52 341h67l-11 -77h71l23 149h-138l15 100h-70
l-15 -100h-137zM-109430 182l2 13q12 80 23.5 158t22.5 157l2 13h69l-52 -341h-67zM-111856 229h180l28 182h-180zM-113540 113h75l-94 244l169 243h-75l-168 -243zM-116948 133q-63 17 -78.5 53.5t-15.5 73.5q0 21 4 46q12 80 54.5 127t129.5 47h12l-39 -255h70l39 258h83
l-39 -258h70l39 254h13q42 0 69.5 -13t42.5 -36t17.5 -45t2.5 -35q0 -22 -4 -46q-11 -66 -46 -109t-98 -61l-11 -70q44 9 82 31t68 53.5t49.5 71.5t26.5 84q3 22 3 42q0 27 -8 61t-33 66.5t-63.5 52.5t-87.5 24l-12 1l13 86h-70l-13 -86h-83l13 86h-70l-13 -86l-11 -1
q-52 -4 -97.5 -23t-80.5 -51.5t-58.5 -76t-31.5 -95.5q-3 -23 -3 -44q0 -22 5 -52t24.5 -61.5t51.5 -52.5t74 -30zM-117573 268v14.5t2 15.5q2 10 6.5 23t12.5 25t20.5 20t29.5 8q13 0 23 -6t18 -14q10 -8 19.5 -18t18.5 -21q22 -20 49 -36t69 -16q57 0 83.5 34t35.5 91
q2 14 3 27t2 27l-75 -7q-1 -3 -1 -7q0 -2 0.5 -5.5t0.5 -9.5v-16q0 -5 -0.5 -9t-1.5 -9q-4 -24 -17.5 -39t-40.5 -15q-14 0 -26.5 6t-21.5 14q-5 5 -10 9.5t-10 9.5t-10 10.5t-10 11.5q-21 20 -43.5 36.5t-54.5 16.5q-66 0 -99.5 -40.5t-43.5 -105.5q-2 -9 -2 -17t-1 -17z
M-118498 0l9 61h-27q-13 0 -28 1t-28 8q-17 10 -22.5 31t-7.5 43q1 22 3.5 43.5t4.5 35.5q2 9 3 18t3 20q1 10 1.5 16t0.5 9q0 6 -1 11q-2 17 -10.5 25.5t-27.5 8.5h-13l5 34h13q17 0 28 8t18 21q6 14 10 31.5t7 34.5l3 18q2 14 5.5 35t9.5 42q8 21 20 41t33 30q15 7 30.5 8
t27.5 1h28l9 61h-35q-30 0 -54 -3t-43 -13t-32.5 -28.5t-24.5 -48.5q-11 -32 -17.5 -65t-11.5 -67l-5 -34q-1 -5 -1 -8t-1 -7q-2 -4 -3.5 -8t-3.5 -9q-5 -9 -13.5 -15t-21.5 -6h-50l-11 -73h50q23 0 29 -19q1 -6 1 -13q0 -9 -2 -18l-6 -37q-2 -12 -3.5 -26.5t-3.5 -30.5
q-2 -15 -3 -27.5t-1 -21.5v-13q2 -31 10 -55t28 -35q18 -9 41 -12t46 -3h35zM-120115 0h189l107 696h-189l-11 -71h118l-85 -553h-118zM-120505 0h188l11 72h-118l85 553h118l11 71h-188zM-122224 105l476 175l22 140l-422 175l-12 -73l355 -149l-7 -46l-400 -148z
M-122700 245h279l11 73h-279zM-123456 280l421 -175l12 74l-356 148l7 46l401 149l12 73l-475 -175zM-124229 255h416l11 71h-416zM-125256 212h70l16 107h104l11 71h-104l16 106h-70l-16 -106h-105l-11 -71h105zM-127095 308h60v-12q-1 -13 -1 -25q0 -77 42 -124.5
t135 -47.5q42 0 75.5 16t60 43.5t47 63.5t37.5 76l4 10h224l-5 -16q-17 -47 -50.5 -68t-74.5 -29l-11 -71q76 7 130.5 51t79.5 122l3 11h60l11 72h-59l1 12v14q0 30 -8 59.5t-26.5 53t-47 36.5t-67.5 13q-40 0 -70 -14t-53.5 -38t-41.5 -56.5t-34 -69.5l-5 -10h-272l5 15
q11 35 29.5 58t41.5 37.5t50.5 22t56.5 10.5l11 71h-2q-97 0 -164 -53t-96 -150l-4 -11h-61zM-126606 380l9 17q5 8 8 15.5t8 14.5q4 8 9 16.5t12 15.5q11 15 27 26t38 11q98 0 98 -97v-4v-15h-209zM-126963 308h255l-8 -17q-7 -13 -16.5 -30t-21.5 -33.5t-27.5 -30
t-33.5 -19.5q-12 -5 -22.5 -5.5t-21.5 -0.5q-60 0 -82 33.5t-22 83.5v4v15zM-128289 179l41 -50l74 65l7 -5q20 -12 42 -19t46 -7q25 0 50 7t48 20l9 5l55 -66l57 50l-54 66l6 9q15 21 25.5 45t15.5 49q2 13 2 26q0 34 -14 68l-4 9l74 65l-41 51l-74 -65l-7 5q-41 27 -91 27
q-24 0 -49 -7t-48 -20l-9 -5l-53 65l-57 -51l54 -64l-8 -9q-15 -22 -25.5 -46t-14.5 -49q-3 -15 -3 -30q0 -10 2.5 -27t11.5 -38l5 -9zM-129182 0h446l11 72l-342 1l39 23q10 6 14.5 17t6.5 25t2 28q0 5 -0.5 17.5t-3.5 32.5q-2 21 -5.5 41.5t-6.5 38.5l-4 17h208l11 73
h-227v9q-2 23 -2 47t4 48q11 68 54.5 98.5t103.5 30.5q27 0 48 -4t39 -12t34 -18.5t34 -24.5l49 57l-26 22q-31 27 -72.5 40t-86.5 13q-100 0 -166 -54t-82 -158q-5 -33 -5 -64q0 -24 3 -48q2 -29 6 -56.5t9 -54.5q2 -14 5 -31t5 -34t2.5 -28t0.5 -15q0 -14 -2 -26
q-2 -13 -9 -26.5t-24 -22.5l-3 -2h-57zM-129475 210h70l25 160h104l11 72h-104l13 85h106l11 72h-106l15 97h-70l-15 -97h-107l-11 -72h107l-13 -85h-105l-11 -72h105zM-130143 210h70l49 317h106l11 72h-106l15 97h-70l-15 -97h-107l-11 -72h107zM-130897 34
q18 -8 41.5 -14.5t48.5 -11t50 -6.5t45 -2q39 0 79.5 5.5t75.5 20.5t60 42.5t32 71.5q1 11 1 21q0 45 -28 74l-9 9l12 10q25 18 38 42t18 53q2 14 2 26q0 21 -8.5 41.5t-30.5 35t-52.5 20t-65.5 5.5h-48q-14 0 -33.5 0.5t-39.5 5.5q-20 4 -39 12t-27 26q-3 9 -3 18t2 17
q4 27 27 40t45 18q24 6 48 7.5t37 1.5q18 0 40 -1.5t44 -5t42.5 -9t36.5 -14.5l24 -13l13 80q-17 9 -41.5 15.5t-51.5 10.5t-53 6t-46 2q-39 0 -78 -6t-72 -21.5t-56 -43t-30 -70.5q-2 -13 -2 -24q0 -14 4.5 -31.5t22.5 -35.5l9 -9l-12 -10q-25 -18 -36.5 -42t-16.5 -53
q-2 -14 -2 -27q0 -26 12 -48t40.5 -35.5t66.5 -17.5t77 -4q13 0 34.5 -0.5t42.5 -4.5q21 -3 41.5 -12t28.5 -27q4 -7 4 -15q0 -1 -0.5 -6t-2.5 -12q-4 -28 -27.5 -41.5t-46.5 -18.5q-25 -5 -48.5 -6.5t-37.5 -1.5q-18 0 -40 1.5t-44.5 5t-43.5 9t-37 14.5l-23 13z
M-130807 316q-4 8 -4 16q0 1 0.5 5.5t2.5 10.5q5 31 28 46t47 20q12 4 25.5 5.5t24.5 1.5q11 1 21.5 1h18.5q13 0 32 -0.5t38 -3.5q19 -5 38 -12t27 -22q5 -9 5.5 -15t0.5 -8q0 -8 -2 -14q-5 -29 -29.5 -43.5t-49.5 -21.5q-27 -5 -52.5 -6.5t-39.5 -1.5q-13 0 -32 0.5
t-39 4.5q-18 3 -36 11.5t-25 25.5zM-131879 0h683l107 696h-683zM-132595 212h70l16 107h104l11 71h-104l16 106h-70l-16 -106h-104l-11 -71h104zM-115781 0h76l96 141h-75zM-115970 0h75l98 141h-76zM-116317 0h75l98 141h-75zM-119337 0h416l11 72h-416zM-132732 0h278
l11 72h-278z" />
    <glyph glyph-name="_1" horiz-adv-x="323" 
 />
    </font>
</defs>
</svg>
