<?xml version="1.0" standalone="no"?>
<!DOCTYPE svg PUBLIC "-//W3C//DTD SVG 1.1//EN" "http://www.w3.org/Graphics/SVG/1.1/DTD/svg11.dtd" >
<svg xmlns="http://www.w3.org/2000/svg" xmlns:xlink="http://www.w3.org/1999/xlink" version="1.1">
<metadata>
Created by FontForge 20201107 at Thu Apr 29 21:31:05 2021
 By 
</metadata>
<defs>
<font id="Barracuda-Regular" horiz-adv-x="572" >
  <font-face 
    font-family="Barracuda"
    font-weight="400"
    font-stretch="normal"
    units-per-em="1000"
    panose-1="0 0 0 0 0 0 0 0 0 0"
    ascent="800"
    descent="-200"
    x-height="496"
    cap-height="698"
    bbox="-67216 -250 24166 907"
    underline-thickness="50"
    underline-position="-125"
    unicode-range="U+000D-FB02"
  />
<missing-glyph horiz-adv-x="250" 
 />
    <glyph glyph-name=".notdef" horiz-adv-x="250" 
 />
    <glyph glyph-name=".null" horiz-adv-x="0" 
 />
    <glyph glyph-name=".null" horiz-adv-x="0" 
 />
    <glyph glyph-name="uni000D" unicode="&#xd;" horiz-adv-x="250" 
 />
    <glyph glyph-name="space" unicode=" " horiz-adv-x="260" 
 />
    <glyph glyph-name="exclam" unicode="!" horiz-adv-x="269" 
d="M85 698h94v-531h-94v531zM85 95h95v-95h-95v95z" />
    <glyph glyph-name="quotedbl" unicode="&#x22;" horiz-adv-x="408" 
d="M240 698h94v-160h-94v160zM77 698h94v-160h-94v160z" />
    <glyph glyph-name="numbersign" unicode="#" horiz-adv-x="760" 
d="M682 698l-80 -286h125v-94h-151l-27 -94h108v-94h-134l-36 -130h-100l37 130h-196l-36 -130h-99l36 130h-107v94h133l27 94h-89v94h115l80 286h99l-80 -286h196l80 286h99zM255 224h195l27 94h-196z" />
    <glyph glyph-name="dollar" unicode="$" horiz-adv-x="549" 
d="M189 522q0 -21 9.5 -36t24 -25.5t32.5 -18t35 -12.5q22 -7 45.5 -13.5t48.5 -13.5q47 -13 90.5 -34.5t72.5 -63.5q26 -35 26 -97v-9q-8 -109 -71 -158t-166 -49q-58 0 -107.5 15.5t-85 46t-55.5 76t-20 104.5v14h93q7 -76 46.5 -118.5t118.5 -42.5q27 0 54.5 4.5t49 16.5
t35 32.5t13.5 52.5q0 25 -7.5 43t-21 31.5t-32 23.5t-39.5 18t-44 14.5t-48 11.5q-46 10 -89.5 29.5t-74.5 56.5q-28 34 -28 98q0 50 18.5 85t49 58t71 33.5t83.5 10.5q101 0 165 -52t69 -157h-93q-10 60 -44 87.5t-94 27.5q-22 0 -45 -4t-42 -14.5t-31 -28t-12 -43.5z
M274 743h94v-830h-94v830z" />
    <glyph glyph-name="percent" unicode="%" horiz-adv-x="813" 
d="M652 698l-385 -698h-102l385 698h102zM203 677q32 0 59.5 -12t47.5 -32.5t32 -48t12 -59.5q0 -31 -12 -58.5t-32 -48t-47.5 -32.5t-59.5 -12q-31 0 -58.5 12t-48 32.5t-32.5 48t-12 58.5q0 32 12 59.5t32.5 48t48 32.5t58.5 12zM263 525q0 26 -17.5 43.5t-42.5 17.5
t-42.5 -17.5t-17.5 -43.5q0 -25 17.5 -42.5t42.5 -17.5t42.5 17.5t17.5 42.5zM607 330q32 0 59.5 -12t47.5 -32.5t32 -48t12 -59.5q0 -31 -12 -58.5t-32 -48t-47.5 -32.5t-59.5 -12q-31 0 -58.5 12t-48 32.5t-32.5 48t-12 58.5q0 32 12 59.5t32.5 48t48 32.5t58.5 12z
M667 178q0 26 -17.5 43.5t-42.5 17.5t-42.5 -17.5t-17.5 -43.5q0 -25 17.5 -42.5t42.5 -17.5t42.5 17.5t17.5 42.5z" />
    <glyph glyph-name="ampersand" unicode="&#x26;" horiz-adv-x="732" 
d="M637 343v-93h-48q0 -53 -19 -100t-51.5 -82t-76 -55t-93.5 -20t-94 20t-77 55t-52 82t-19 100q0 41 10.5 77t30.5 68v304h400v-175h-94v82h-211v-125q47 26 106 26v-91q-30 0 -56.5 -13t-46.5 -35.5t-31.5 -52.5t-11.5 -65q0 -34 11.5 -64.5t31.5 -53t46.5 -35.5
t56.5 -13t56.5 13t46 35.5t30.5 53t11 64.5h-70v93h214z" />
    <glyph glyph-name="quotesingle" unicode="'" horiz-adv-x="225" 
d="M64 698h94v-160h-94v160z" />
    <glyph glyph-name="parenleft" unicode="(" horiz-adv-x="300" 
d="M204 0h-97q-27 102 -40.5 185.5t-13.5 163.5t13.5 163.5t40.5 185.5h97q-28 -93 -42 -178.5t-14 -170.5t14 -170.5t42 -178.5z" />
    <glyph glyph-name="parenright" unicode=")" horiz-adv-x="300" 
d="M70 0q28 93 42 178.5t14 170.5t-14 170.5t-42 178.5h97q27 -102 40.5 -185.5t13.5 -163.5t-13.5 -163.5t-40.5 -185.5h-97z" />
    <glyph glyph-name="asterisk" unicode="*" horiz-adv-x="393" 
d="M350 572v-54l-135 19l108 -83l-39 -37l-80 104l18 -130h-55l17 130l-80 -104l-38 37l107 83l-134 -19v54l134 -19l-107 81l38 39l80 -105l-17 130h55l-18 -129l80 104l39 -39l-108 -81z" />
    <glyph glyph-name="plus" unicode="+" horiz-adv-x="403" 
d="M353 402v-94h-102v-103h-94v103h-103v94h103v103h94v-103h102z" />
    <glyph glyph-name="comma" unicode="," horiz-adv-x="220" 
d="M203 93l-87 -159h-102l88 159h101z" />
    <glyph glyph-name="hyphen" unicode="-" horiz-adv-x="322" 
d="M267 246h-204v94h204v-94z" />
    <glyph glyph-name="period" unicode="." horiz-adv-x="184" 
d="M45 94h94v-94h-94v94z" />
    <glyph glyph-name="slash" unicode="/" horiz-adv-x="536" 
d="M511 698l-385 -698h-102l385 698h102z" />
    <glyph glyph-name="zero" unicode="0" horiz-adv-x="526" 
d="M481 698v-698h-436v698h436zM140 95h246v508h-246v-508z" />
    <glyph glyph-name="one" unicode="1" horiz-adv-x="299" 
d="M19 0v94h84v456h-84v94h30q23 0 38.5 15.5t15.5 38.5h93v-604h84v-94h-261z" />
    <glyph glyph-name="two" unicode="2" horiz-adv-x="525" 
d="M139 223v-129h341v-94h-435v317h245q29 0 54.5 11.5t44.5 31t30 46t11 56.5t-11 56t-30 45.5t-44.5 30.5t-54.5 11h-245v93h245q48 0 89.5 -18.5t73 -50.5t49.5 -75t18 -92t-18 -92.5t-49.5 -76t-73 -51.5t-89.5 -19h-151z" />
    <glyph glyph-name="three" unicode="3" horiz-adv-x="490" 
d="M45 698h400v-317h-47q22 -30 34.5 -66.5t12.5 -77.5q0 -49 -18 -92t-49.5 -75.5t-73 -51t-89.5 -18.5h-170v93h170q29 0 54.5 11.5t44 31t29.5 45.5t11 56t-11 56.5t-29.5 46t-44 30.5t-54.5 11h-97v94h233v129h-306v94z" />
    <glyph glyph-name="four" unicode="4" horiz-adv-x="491" 
d="M446 698v-698h-94v130h-307v568h94v-475h213v475h94z" />
    <glyph glyph-name="five" unicode="5" horiz-adv-x="526" 
d="M258 475q49 0 91.5 -19t74 -51t49.5 -75.5t18 -92.5t-18.5 -92t-50.5 -75.5t-74 -51t-90 -18.5h-213v94h213q29 0 55 11t45.5 30.5t31 45.5t11.5 56t-11.5 56.5t-31 46t-45.5 30.5t-55 11h-213v317h400v-94h-306v-129h119z" />
    <glyph glyph-name="six" unicode="6" horiz-adv-x="530" 
d="M124 418q29 23 64.5 35t74.5 12h4q49 0 91.5 -18.5t74 -51t49.5 -75.5t18 -92t-18.5 -92t-50.5 -75t-74 -50.5t-90 -18.5h-4q-49 0 -91.5 18.5t-74 51t-49.5 75.5t-18 92v469h399v-93h-305v-187zM267 85q29 0 54.5 11.5t45 31t31 45.5t11.5 56t-11.5 56t-31 45.5
t-45 30.5t-54.5 11h-4q-29 0 -54.5 -11t-45 -30.5t-31 -45.5t-11.5 -56t11.5 -56t31 -45.5t45 -31t54.5 -11.5h4z" />
    <glyph glyph-name="seven" unicode="7" horiz-adv-x="480" 
d="M435 698v-94l-165 -604h-94l165 604h-306v94h400z" />
    <glyph glyph-name="eight" unicode="8" horiz-adv-x="530" 
d="M30 228q0 35 9 66.5t26 58.5v345h400v-344q17 -28 26 -59.5t9 -66.5q0 -49 -18.5 -92t-50.5 -75.5t-74 -51t-90 -18.5h-4q-49 0 -91.5 18.5t-74 51t-49.5 75.5t-18 92zM159 604v-164q48 25 104 25h4q56 0 104 -25v164h-212zM263 371q-29 0 -55 -11t-45.5 -30.5t-31 -45.5
t-11.5 -56t11.5 -56t31 -45.5t45.5 -30.5t55 -11h4q29 0 54.5 11t45 30.5t31 45.5t11.5 56t-11.5 56t-31 45.5t-45 30.5t-54.5 11h-4z" />
    <glyph glyph-name="nine" unicode="9" horiz-adv-x="550" 
d="M505 0h-399v93h305v187q-29 -23 -64.5 -35t-74.5 -12h-4q-49 0 -91.5 18.5t-74 51t-49.5 75.5t-18 92t18.5 92t50.5 75t74 50.5t90 18.5h4q49 0 91.5 -18.5t74 -51t49.5 -75.5t18 -92v-469zM272 613h-4q-29 0 -54.5 -11t-45 -30.5t-31 -46t-11.5 -56.5t11.5 -56t31 -45.5
t45 -30.5t54.5 -11h4q29 0 54.5 11t45 30.5t31 45.5t11.5 56t-11.5 56t-31 45.5t-45 31t-54.5 11.5z" />
    <glyph glyph-name="colon" unicode=":" horiz-adv-x="268" 
d="M86 505h94v-94h-94v94zM86 94h94v-94h-94v94z" />
    <glyph glyph-name="semicolon" unicode=";" horiz-adv-x="268" 
d="M124 505h94v-94h-94v94zM231 93l-87 -159h-102l88 159h101z" />
    <glyph glyph-name="less" unicode="&#x3c;" 
d="M522 607v-98l-372 -144v-28l372 -143v-98l-465 179v151z" />
    <glyph glyph-name="equal" unicode="=" 
d="M124 505h332v-94h-332v94zM124 322h332v-94h-332v94z" />
    <glyph glyph-name="greater" unicode="&#x3e;" 
d="M522 275l-465 -179v98l372 143v28l-372 144v98l465 -181v-151z" />
    <glyph glyph-name="question" unicode="?" horiz-adv-x="526" 
d="M504 447q0 -49 -16.5 -93t-45.5 -78t-68 -56t-84 -28v-62h-94v153h87q27 5 49.5 19t39 36t26 50t9.5 59q0 35 -11 65t-30.5 52.5t-46 35.5t-56.5 13t-56 -13t-45.5 -35.5t-31 -52.5t-11.5 -65h-97q0 53 19 100t51.5 82t76.5 55t94 20t94 -20t76.5 -55t51.5 -82t19 -100z
M196 94h94v-94h-94v94z" />
    <glyph glyph-name="at" unicode="@" horiz-adv-x="899" 
d="M691 249v356h-509v-511h509v-94h-603v698h696v-544h-215l-18 36q-23 -17 -51.5 -26.5t-59.5 -9.5q-40 0 -74.5 15t-60.5 41t-41 61t-15 75t15 75t41 61t60.5 41t74.5 15t75 -15t61 -41t41 -61t15 -75v-97h59zM547 346q0 21 -9 39.5t-23.5 32t-34 21.5t-40.5 8t-39 -8
t-32 -21.5t-22 -32t-8 -39.5t8 -39.5t22 -32.5t32 -22t39 -8t40.5 8t34 22t23.5 32.5t9 39.5z" />
    <glyph glyph-name="A" unicode="A" horiz-adv-x="590" 
d="M421 223h-253l-59 -223h-98l187 698h194l187 -698h-98zM396 317l-77 287h-49l-76 -287h202z" />
    <glyph glyph-name="B" unicode="B" horiz-adv-x="501" 
d="M45 0v698h226q38 0 72 -15t59 -40.5t39.5 -60.5t14.5 -74q0 -44 -17.5 -81t-46.5 -63h61l3 -364h-411zM139 411h132q20 0 37 7.5t29.5 20.5t20 31t7.5 38t-7 37.5t-20 31t-29.5 21t-36.5 7.5h-133v-194zM139 317v-223h222l-2 223h-220z" />
    <glyph glyph-name="C" unicode="C" horiz-adv-x="629" 
d="M604 87q-45 -45 -104.5 -70.5t-126.5 -25.5q-70 0 -131.5 28t-107.5 76.5t-72.5 113.5t-26.5 139t26.5 139t72.5 113.5t107.5 76.5t131.5 28q67 0 126.5 -25.5t104.5 -70.5l-63 -72q-33 35 -76 55t-92 20q-50 0 -94 -20.5t-76.5 -56.5t-51.5 -84t-19 -103t19 -103
t51.5 -84t76.5 -56.5t94 -20.5q49 0 92 20t76 55z" />
    <glyph glyph-name="D" unicode="D" horiz-adv-x="599" 
d="M45 0v698h180q70 0 132 -27.5t108 -74.5t72.5 -111t26.5 -136t-26.5 -135.5t-72.5 -111t-108 -75t-132 -27.5h-180zM225 92q50 0 94 20t77 55t52 82t19 100t-19 100t-52 81.5t-77 54.5t-94 20h-86v-513h86z" />
    <glyph glyph-name="E" unicode="E" horiz-adv-x="557" 
d="M522 698v-94h-384v-287h281v-94h-281v-129h384v-94h-477v698h477z" />
    <glyph glyph-name="F" unicode="F" horiz-adv-x="558" 
d="M523 698v-94h-384v-287h261v-94h-261v-223h-94v698h478z" />
    <glyph glyph-name="G" unicode="G" horiz-adv-x="754" 
d="M373 222v94h336v-316h-88v144h-16q-8 -38 -32 -67t-56.5 -48.5t-70 -29t-73.5 -9.5q-70 0 -131.5 28t-107.5 76.5t-72.5 113.5t-26.5 139t26.5 139t72.5 113.5t107.5 76.5t131.5 28q54 0 104 -17t91 -48t72.5 -73.5t49.5 -93.5h-106q-30 63 -86 101t-125 38
q-50 0 -94 -21t-76.5 -57t-51.5 -84t-19 -102t19 -102t51.5 -84t76.5 -57t94 -21q69 0 125 38t87 101h-212z" />
    <glyph glyph-name="H" unicode="H" horiz-adv-x="567" 
d="M522 698v-698h-93v223h-290v-223h-94v698h94v-381h290v381h93z" />
    <glyph glyph-name="I" unicode="I" horiz-adv-x="285" 
d="M271 698v-94h-84v-510h84v-94h-261v94h84v510h-84v94h261z" />
    <glyph glyph-name="J" unicode="J" horiz-adv-x="432" 
d="M387 698v-698h-352v223h94v-129h164v604h94z" />
    <glyph glyph-name="K" unicode="K" horiz-adv-x="540" 
d="M522 698l-307 -380h280v-318h-94v225h-261l-1 -1v-224h-94v698h94v-327l263 327h120z" />
    <glyph glyph-name="L" unicode="L" horiz-adv-x="557" 
d="M139 698v-604h383v-94h-477v698h94z" />
    <glyph glyph-name="M" unicode="M" horiz-adv-x="779" 
d="M734 698v-698h-95v604h-12l-160 -476h-158l-157 476h-12v-604h-95v698h182l155 -475h11l160 475h181z" />
    <glyph glyph-name="N" unicode="N" horiz-adv-x="588" 
d="M543 698v-698h-185l-195 603h-24v-603h-94v698h186l194 -605h24v605h94z" />
    <glyph glyph-name="O" unicode="O" horiz-adv-x="746" 
d="M711 349q0 -74 -26.5 -139t-72.5 -113.5t-107.5 -76.5t-131.5 -28t-131.5 28t-107.5 76.5t-72.5 113.5t-26.5 139t26.5 139t72.5 113.5t107.5 76.5t131.5 28t131.5 -28t107.5 -76.5t72.5 -113.5t26.5 -139zM613 349q0 55 -19 103t-51.5 84t-76 56.5t-93.5 20.5
t-93.5 -20.5t-76 -56.5t-51.5 -84t-19 -103t19 -103t51.5 -84t76 -56.5t93.5 -20.5t93.5 20.5t76 56.5t51.5 84t19 103z" />
    <glyph glyph-name="P" unicode="P" horiz-adv-x="491" 
d="M45 0v698h226q38 0 72 -15t59 -40.5t39.5 -60.5t14.5 -74t-14.5 -74t-39.5 -61t-59 -41t-72 -15h-132v-317h-94zM271 411q20 0 37 7.5t29.5 20.5t20 31t7.5 38t-7.5 37.5t-20 31t-29.5 21t-37 7.5h-132v-194h132z" />
    <glyph glyph-name="Q" unicode="Q" horiz-adv-x="746" 
d="M373 -8q-70 0 -131.5 28t-107.5 76.5t-72.5 113.5t-26.5 139t26.5 139t72.5 113.5t107.5 76.5t131.5 28t131.5 -28t107.5 -76.5t72.5 -113.5t26.5 -139q0 -75 -27 -140.5t-74 -113.5l100 -95h-127l-42 40q-37 -23 -79.5 -35.5t-88.5 -12.5zM472 224l68 -64
q34 36 53.5 84.5t19.5 104.5q0 53 -19 100t-52 82t-76.5 55.5t-92.5 20.5t-91.5 -20.5t-74.5 -55.5t-50.5 -82t-18.5 -100t18.5 -101t50.5 -84t74.5 -57.5t91.5 -21.5q52 0 96 23l-124 116h127z" />
    <glyph glyph-name="R" unicode="R" horiz-adv-x="499" 
d="M139 0h-94v698h226q38 0 72 -15t59 -40.5t39.5 -60.5t14.5 -74q0 -44 -17.5 -81t-46.5 -63h61l3 -364h-94l-3 317h-220v-317zM139 411h132q20 0 37 7.5t29.5 20.5t20 31t7.5 38q0 40 -27 68.5t-67 28.5h-132v-194z" />
    <glyph glyph-name="S" unicode="S" horiz-adv-x="575" 
d="M156 522q0 -21 9.5 -36t24 -25.5t32.5 -18t35 -12.5q22 -7 45.5 -13.5t48.5 -13.5q47 -13 90.5 -34.5t72.5 -63.5q26 -35 26 -97v-9q-8 -109 -71 -158t-166 -49q-58 0 -107.5 15.5t-85 46t-55.5 76t-20 104.5v14h93q7 -76 46.5 -118.5t118.5 -42.5q27 0 54.5 4.5t49 16.5
t35 32.5t13.5 52.5q0 25 -7.5 43t-21 31.5t-32 23.5t-39.5 18t-44 14.5t-48 11.5q-46 10 -89.5 29.5t-74.5 56.5q-28 34 -28 98q0 50 18.5 85t49 58t71 33.5t83.5 10.5q101 0 165 -52t69 -157h-93q-10 60 -44 87.5t-94 27.5q-22 0 -45 -4t-42 -14.5t-31 -28t-12 -43.5z" />
    <glyph glyph-name="T" unicode="T" horiz-adv-x="548" 
d="M513 698v-94h-192v-604h-94v604h-192v94h478z" />
    <glyph glyph-name="U" unicode="U" horiz-adv-x="567" 
d="M522 698v-698h-477v698h94v-604h290v604h93z" />
    <glyph glyph-name="V" unicode="V" horiz-adv-x="593" 
d="M580 698l-187 -698h-194l-187 698h98l162 -604h49l161 604h98z" />
    <glyph glyph-name="W" unicode="W" horiz-adv-x="779" 
d="M734 698v-698h-182l-156 475h-10l-160 -475h-181v698h95v-604h12l160 476h158l157 -476h12v604h95z" />
    <glyph glyph-name="X" unicode="X" horiz-adv-x="550" 
d="M533 698l-207 -347v-2l210 -349h-106l-155 261h-3l-156 -261h-106l209 350v2l-206 346h106l153 -259h3l153 259h105z" />
    <glyph glyph-name="Y" unicode="Y" horiz-adv-x="559" 
d="M548 698l-221 -475v-223h-94v223l-221 475h94l161 -347h26l161 347h94z" />
    <glyph glyph-name="Z" unicode="Z" horiz-adv-x="524" 
d="M491 698v-73l-328 -527v-4h328v-94h-456v68l328 533v3h-328v94h456z" />
    <glyph glyph-name="bracketleft" unicode="[" horiz-adv-x="329" 
d="M271 605h-116v-511h116v-94h-210v698h210v-93z" />
    <glyph glyph-name="backslash" unicode="\" horiz-adv-x="545" 
d="M517 0h-102l-385 698h102z" />
    <glyph glyph-name="bracketright" unicode="]" horiz-adv-x="329" 
d="M271 698v-698h-210v94h116v511h-116v93h210z" />
    <glyph glyph-name="asciicircum" unicode="^" 
d="M543 231h-98l-144 372h-28l-143 -372h-98l179 465h151z" />
    <glyph glyph-name="underscore" unicode="_" horiz-adv-x="444" 
d="M439 -135h-433v94h433v-94z" />
    <glyph glyph-name="grave" unicode="`" horiz-adv-x="281" 
d="M235 567h-71l-139 131v8h111z" />
    <glyph glyph-name="a" unicode="a" horiz-adv-x="458" 
d="M319 401h-269v95h363v-401h43v-95h-106l-15 29q-24 -18 -53 -28t-61 -10q-40 0 -74.5 15t-60.5 41t-41 61t-15 74q0 40 15 73.5t41 58t60.5 38.5t74.5 14q54 0 98 -28v63zM221 81q21 0 40 6.5t33.5 18.5t23.5 29t9 38q0 27 -9.5 47.5t-24.5 34t-34.5 20.5t-39.5 7
q-19 0 -37 -6.5t-32 -19.5t-22.5 -32.5t-8.5 -46.5q0 -42 30 -69t72 -27z" />
    <glyph glyph-name="b" unicode="b" horiz-adv-x="570" 
d="M138 447q34 27 75.5 42.5t88.5 15.5q53 0 97 -20t75 -55t48 -82t17 -100t-17 -100t-48 -82t-75 -55t-97 -20q-47 0 -88.5 15.5t-75.5 43.5v-50h-93v651h-43v93h106l30 -58v-239zM301 83q33 0 60 13.5t46.5 36.5t30 53t10.5 62t-10.5 62t-30 53t-46.5 36.5t-60 13.5
q-32 0 -60.5 -13.5t-49.5 -36.5t-33 -53t-12 -62t12 -62t33 -53t49.5 -36.5t60.5 -13.5z" />
    <glyph glyph-name="c" unicode="c" horiz-adv-x="453" 
d="M408 496v-170h-93v75h-179l2 -306h177v70h93v-165h-363v496h363z" />
    <glyph glyph-name="d" unicode="d" horiz-adv-x="570" 
d="M431 50q-33 -28 -74.5 -43.5t-88.5 -15.5q-53 0 -97 20t-75.5 55t-48.5 82t-17 100t17 100t48.5 82t75.5 55t97 20q47 0 88.5 -15.5t74.5 -42.5v239l31 58h105v-93h-42v-651h-94v50zM268 83q32 0 60.5 13.5t49.5 36.5t33.5 53t12.5 62t-12.5 62t-33.5 53t-49.5 36.5
t-60.5 13.5t-59 -13.5t-46.5 -36.5t-30.5 -53t-11 -62t11 -62t30.5 -53t46.5 -36.5t59 -13.5z" />
    <glyph glyph-name="e" unicode="e" horiz-adv-x="541" 
d="M131 207q12 -54 50.5 -89t89.5 -35q35 0 64.5 17.5t49.5 47.5h107q-14 -34 -36.5 -63t-51 -49.5t-62.5 -32t-71 -11.5q-50 0 -94 20t-76.5 55t-51.5 82t-19 100t19 99.5t51.5 81.5t76.5 55t94 20t93.5 -20t76 -55t51.5 -81.5t19 -99.5q0 -22 -3 -42h-377zM410 292
q-13 53 -51 87.5t-88 34.5q-51 0 -89 -34.5t-51 -87.5h279z" />
    <glyph glyph-name="f" unicode="f" horiz-adv-x="323" 
d="M444 744v-94h-284v-155h174v-95h-174v-400h-93v400h-84v95h84v249h377z" />
    <glyph glyph-name="g" unicode="g" horiz-adv-x="577" 
d="M267 -8q-53 0 -97 20t-75 55t-48 81.5t-17 99.5t17 100t48 82t75 55t97 20q50 0 94 -17.5t78 -48.5l30 57h106v-95h-43v-600h-468v93h375v164q-35 -31 -78.5 -48.5t-93.5 -17.5zM423 248q0 32 -12.5 62t-33.5 53t-49.5 36.5t-60.5 13.5t-59 -13.5t-46.5 -36.5t-30 -53
t-10.5 -62t10.5 -62t30 -52.5t46.5 -36t59 -13.5t60.5 13.5t49.5 36t33.5 52.5t12.5 62z" />
    <glyph glyph-name="h" unicode="h" horiz-adv-x="478" 
d="M141 744v-249h292v-495h-97v400h-195v-400h-96v744h96z" />
    <glyph glyph-name="i" unicode="i" horiz-adv-x="183" 
d="M44 656h93v-93h-93v93zM138 497v-497h-94v181l3 316h91z" />
    <glyph glyph-name="j" unicode="j" horiz-adv-x="184" 
d="M44 656h93v-93h-93v93zM139 496v-696h-259v96h166l3 601z" />
    <glyph glyph-name="k" unicode="k" horiz-adv-x="478" 
d="M140 744l1 -452l166 203h126l-167 -204h167v-291h-97v197h-195v-197h-96l-1 744h96z" />
    <glyph glyph-name="l" unicode="l" horiz-adv-x="183" 
d="M45 744h93v-744h-93v744z" />
    <glyph glyph-name="m" unicode="m" horiz-adv-x="754" 
d="M709 496v-496h-94v402h-191v-402h-94v402h-191v-402h-94v496h664z" />
    <glyph glyph-name="n" unicode="n" horiz-adv-x="496" 
d="M451 496v-496h-94v402h-218v-402h-94v496h406z" />
    <glyph glyph-name="o" unicode="o" horiz-adv-x="542" 
d="M271 505q50 0 94 -20t76.5 -55t51.5 -82t19 -100t-19 -99.5t-51.5 -81.5t-76.5 -55t-94 -20t-94 20t-76.5 55t-51.5 81.5t-19 99.5t19 100t51.5 82t76.5 55t94 20zM127 248q0 -34 11.5 -64t31 -52.5t45.5 -35.5t56 -13t56.5 13t46 35.5t31 52.5t11.5 64q0 35 -11.5 65
t-31 52.5t-46 35.5t-56.5 13t-56 -13t-45.5 -35.5t-31 -52.5t-11.5 -65z" />
    <glyph glyph-name="p" unicode="p" horiz-adv-x="568" 
d="M135 444q34 29 76.5 45.5t90.5 16.5q53 0 96.5 -20t75 -55t48.5 -82t17 -100t-17 -99.5t-48.5 -81.5t-75 -55t-96.5 -20q-47 0 -88.5 15.5t-74.5 42.5v-250h-94v601h-43v94h106zM302 85q32 0 59 13.5t46.5 36t30 52.5t10.5 62t-10.5 62t-30 53t-46.5 36.5t-59 13.5
t-60.5 -13.5t-49.5 -36.5t-33.5 -53t-12.5 -62t12.5 -62t33.5 -52.5t49.5 -36t60.5 -13.5z" />
    <glyph glyph-name="q" unicode="q" horiz-adv-x="568" 
d="M29 249q0 53 17 100t48.5 82t75.5 55t97 20q48 0 90.5 -16.5t75.5 -45.5l28 52h105v-94h-43v-601h-93v250q-33 -27 -74.5 -42.5t-88.5 -15.5q-53 0 -97 20t-75.5 55t-48.5 81.5t-17 99.5zM267 85q32 0 60.5 13.5t49.5 36t33.5 52.5t12.5 62t-12.5 62t-33.5 53t-49.5 36.5
t-60.5 13.5t-59 -13.5t-46.5 -36.5t-30.5 -53t-11 -62t11 -62t30.5 -52.5t46.5 -36t59 -13.5z" />
    <glyph glyph-name="r" unicode="r" horiz-adv-x="350" 
d="M320 496v-94h-181v-402h-94v496h275z" />
    <glyph glyph-name="s" unicode="s" horiz-adv-x="475" 
d="M441 156q0 -41 -16.5 -72t-43.5 -51.5t-62 -30.5t-73 -10q-27 0 -55.5 3.5t-54.5 13.5t-47 27t-33 44q-20 39 -20 85l-1 11h93l1 -10q0 -16 5 -29q5 -18 16.5 -29.5t27.5 -17.5t33.5 -8t33.5 -2q15 0 32 3t31.5 10.5t24 19.5t9.5 31q0 21 -15 31q-9 7 -26.5 13t-43.5 13
l-91 22q-115 29 -115 123q0 41 15 70.5t40.5 49.5t59.5 29.5t71 9.5q56 0 101.5 -20t71.5 -71q5 -12 8.5 -21.5t4.5 -17.5q3 -15 3 -26v-11h-93l-1 10q-1 35 -27 52t-76 17q-13 0 -27.5 -3t-26.5 -9.5t-20 -17t-8 -26.5q0 -21 13 -30q5 -3 19.5 -8.5t44.5 -13.5l78 -20
q27 -7 52.5 -16.5t44.5 -25t30.5 -37.5t11.5 -54z" />
    <glyph glyph-name="t" unicode="t" horiz-adv-x="361" 
d="M202 744v-247h85v-96h-85v-307h147v-94h-240v401h-84v96h84v247h93z" />
    <glyph glyph-name="u" unicode="u" horiz-adv-x="496" 
d="M451 496v-496h-406v496h94v-402h218v402h94z" />
    <glyph glyph-name="v" unicode="v" horiz-adv-x="479" 
d="M470 496l-135 -496h-195l-135 496h98l111 -402h48l110 402h98z" />
    <glyph glyph-name="w" unicode="w" horiz-adv-x="754" 
d="M45 496h94v-402h191v402h94v-402h191v402h94v-496h-664v496z" />
    <glyph glyph-name="x" unicode="x" horiz-adv-x="447" 
d="M424 496l-148 -247v-1l148 -248h-106l-94 159h-1l-94 -159h-106l147 248v1l-147 247h106l94 -158h1l94 158h106z" />
    <glyph glyph-name="y" unicode="y" horiz-adv-x="601" 
d="M493 496h106v-94h-43v-601h-468v93h375v161q-35 -29 -79 -46t-93 -17q-55 0 -100.5 21t-77.5 57t-50 84t-18 103v239h94v-239q0 -35 10.5 -67.5t30 -57t48 -39.5t63.5 -15t66 15t54.5 39.5t37.5 57t14 67.5v181z" />
    <glyph glyph-name="z" unicode="z" horiz-adv-x="450" 
d="M405 496v-94l-236 -307h236v-95h-360v95l236 307h-236v94h360z" />
    <glyph glyph-name="braceleft" unicode="{" horiz-adv-x="380" 
d="M332 698v-84h-57t-40 -11.5t-23.5 -40.5t-7.5 -87q0 -19 -0.5 -40.5t-5.5 -39.5t-17.5 -30t-36.5 -12v-8q23 0 35.5 -11t18 -28.5t6 -38t0.5 -39.5q0 -60 7.5 -90t23 -42.5t39.5 -12.5h58v-83h-47q-46 0 -76.5 9t-48.5 34t-25.5 70t-7.5 116v36q0 24 -7 30t-16 6h-62v95
h62q9 0 16 6.5t7 32.5v33q0 71 6 115.5t23.5 70t48.5 35t80 9.5h47z" />
    <glyph glyph-name="bar" unicode="|" horiz-adv-x="551" 
d="M224 698h94v-830h-94v830z" />
    <glyph glyph-name="braceright" unicode="}" horiz-adv-x="380" 
d="M89 698q50 0 80.5 -9.5t48 -35t23.5 -70t6 -115.5v-33q0 -26 7 -32.5t16 -6.5h62v-95h-62q-9 0 -16 -6t-7 -30v-36q0 -71 -7.5 -116t-25.5 -70t-48.5 -34t-76.5 -9h-47v83h58t39.5 12.5t23 42.5t7.5 90q0 19 0.5 39.5t6 38t18 28.5t35.5 11v8q-24 0 -36.5 12t-17.5 30
t-5.5 39.5t-0.5 40.5q0 58 -7.5 87t-23.5 40.5t-40 11.5h-57v84h47z" />
    <glyph glyph-name="asciitilde" unicode="~" horiz-adv-x="542" 
d="M410 254q-32 0 -58 9.5t-46.5 23.5t-37 29t-31 26.5t-23.5 15t-15 3.5q-8 0 -16 -4q-16 -8 -22 -23t-6 -31t2.5 -28.5t3.5 -14.5l-99 -11q-2 22 -2 44q0 14 1.5 39t15 53.5t40.5 46t72 17.5q26 0 47.5 -10t40.5 -24.5t35.5 -30t32.5 -27.5t27 -15t17 -3q11 0 22 5
q13 6 14 17.5t1 18.5q0 10 -1.5 23.5t-3.5 23t-2 13.5t2 4l95 9q5 -35 5 -70.5t-10 -64t-33.5 -46.5t-67.5 -18z" />
    <glyph glyph-name="exclamdown" unicode="&#xa1;" horiz-adv-x="269" 
d="M180 497v-95h-95v95h95zM179 330v-531h-94v531h94z" />
    <glyph glyph-name="cent" unicode="&#xa2;" horiz-adv-x="480" 
d="M425 496v-170h-93v75h-42v-306h42v70h93v-165h-135v-92h-93v92h-135v496h135v101h93v-101h135zM155 95h42v306h-44z" />
    <glyph glyph-name="sterling" unicode="&#xa3;" horiz-adv-x="524" 
d="M492 94v-94h-463v94h66q9 6 13 15t4 21q0 4 -1 15.5t-8 40t-21 70.5q-19 57 -33 112t-14 106v19q3 64 30.5 108.5t76.5 67.5q32 15 62.5 19.5t54.5 4.5q15 0 42 -2.5t64 -15t66 -34.5l39 -29l-54 -75l-39 26q-17 11 -41 20t-46 12t-39 3q-10 0 -28.5 -1.5t-40.5 -12.5
q-50 -24 -53 -91v-10q0 -16 3 -38t8 -47h226v-95h-200q6 -16 16 -46.5t16.5 -59t6.5 -52.5q0 -5 -1 -21t-19 -28v-2h307z" />
    <glyph glyph-name="currency" unicode="&#xa4;" 
d="M480 349q0 -27 -7.5 -51.5t-19.5 -46.5l65 -66l-66 -66l-66 66q-22 -13 -46.5 -20t-51.5 -7q-26 0 -50.5 7t-46.5 19l-65 -65l-66 66l64 65q-13 22 -20.5 47t-7.5 52t7.5 51.5t20.5 46.5l-64 64l66 67l64 -65q22 13 46.5 20.5t51.5 7.5t52 -7.5t47 -20.5l65 65l66 -67
l-65 -65q12 -22 19.5 -46.5t7.5 -50.5z" />
    <glyph glyph-name="yen" unicode="&#xa5;" horiz-adv-x="566" 
d="M549 698l-177 -381h122v-93h-165v-65h165v-94h-165v-65h-94v65h-166v94h166v65h-166v93h123l-178 381h94l161 -347h25l162 347h93z" />
    <glyph glyph-name="brokenbar" unicode="&#xa6;" horiz-adv-x="208" 
d="M59 698h94v-294h-94v294zM59 294h94v-294h-94v294z" />
    <glyph glyph-name="section" unicode="&#xa7;" horiz-adv-x="513" 
d="M447 248q20 -17 32 -41t12 -60q0 -46 -22 -75t-56.5 -45t-75.5 -21.5t-80 -5.5q-25 0 -53 2.5t-54 7.5t-49.5 12t-39.5 15l-2 1v102h6l36 -18q24 -12 63 -19.5t65 -8.5t36 -1q30 0 62.5 4t52.5 17q17 11 17 32q0 9 -2 19.5t-15.5 20.5t-43 16.5t-84.5 6.5q-37 0 -77 4
t-72 18t-53 42t-21 76q0 35 11 59t31 42q-20 17 -31 40.5t-11 56.5q0 77 60 114q35 21 79.5 28t84.5 7q12 0 44.5 -1.5t80.5 -11.5t78 -24l2 -1v-102h-5l-38 19q-24 12 -63 19t-63.5 8t-33.5 1q-31 0 -63.5 -5t-52.5 -17q-17 -11 -17 -31q0 -8 2 -19t15 -21t41 -17t80 -7h48
q28 0 60 -4.5t59.5 -18.5t45.5 -41t18 -72q0 -27 -9 -53.5t-35 -48.5z" />
    <glyph glyph-name="dieresis" unicode="&#xa8;" horiz-adv-x="352" 
d="M231 655h94v-94h-94v94zM24 655h95v-94h-95v94z" />
    <glyph glyph-name="copyright" unicode="&#xa9;" horiz-adv-x="832" 
d="M761 0h-696v698h696v-698zM158 94h509v511h-509v-511zM594 537v-139h-94v44h-178l3 -186h175v41h94v-135h-363v375h363z" />
    <glyph glyph-name="ordfeminine" unicode="&#xaa;" horiz-adv-x="357" 
 />
    <glyph glyph-name="guillemotleft" unicode="&#xab;" horiz-adv-x="509" 
d="M139 357l136 -248h-102l-136 248l136 248h102zM340 357l136 -248h-102l-136 248l136 248h102z" />
    <glyph glyph-name="logicalnot" unicode="&#xac;" 
d="M441 237v111h-399v93h494v-204h-95z" />
    <glyph glyph-name="registered" unicode="&#xae;" horiz-adv-x="576" 
d="M39 698h497v-496h-497v496zM442 605h-309v-309h309v309zM202 352v191h179v-94h-85v-97h-94z" />
    <glyph glyph-name="macron" unicode="&#xaf;" horiz-adv-x="394" 
d="M378 594h-363v94h363v-94z" />
    <glyph glyph-name="degree" unicode="&#xb0;" horiz-adv-x="428" 
d="M213 649q32 0 59.5 -12t47.5 -32.5t32 -48t12 -59.5q0 -31 -12 -58.5t-32 -48t-47.5 -32.5t-59.5 -12q-31 0 -58.5 12t-48 32.5t-32.5 48t-12 58.5q0 32 12 59.5t32.5 48t48 32.5t58.5 12zM273 497q0 26 -17.5 43.5t-42.5 17.5t-42.5 -17.5t-17.5 -43.5q0 -25 17.5 -42.5
t42.5 -17.5t42.5 17.5t17.5 42.5z" />
    <glyph glyph-name="plusminus" unicode="&#xb1;" 
d="M444 402v-94h-103v-103h-94v103h-102v94h102v103h94v-103h103zM444 0h-299v94h299v-94z" />
    <glyph glyph-name="twosuperior" unicode="&#xb2;" horiz-adv-x="350" 
d="M129 497v-56h147v-40h-187v136h105q25 0 42.5 18.5t17.5 44.5t-17.5 43.5t-42.5 17.5h-105v40h105q21 0 39 -8t31.5 -22t21 -32t7.5 -39t-7.5 -40t-21 -33t-31.5 -22t-39 -8h-65z" />
    <glyph glyph-name="threesuperior" unicode="&#xb3;" horiz-adv-x="270" 
d="M48 698h172v-136h-20q9 -13 14.5 -29t5.5 -33q0 -21 -7.5 -39.5t-21 -32.5t-31.5 -22t-39 -8h-73v40h73q25 0 42.5 18t17.5 44t-17.5 44t-42.5 18h-42v40h101v56h-132v40z" />
    <glyph glyph-name="acute" unicode="&#xb4;" horiz-adv-x="260" 
d="M235 706v-8l-139 -131h-71l99 139h111z" />
    <glyph glyph-name="paragraph" unicode="&#xb6;" horiz-adv-x="563" 
d="M409 698h94v-698h-94v698zM52 507q0 29 9.5 62.5t32.5 62t62.5 47.5t99.5 19h95v-698h-95v304q0 24 -15 36.5t-38 20.5t-49 16t-49 23t-38 39.5t-15 67.5z" />
    <glyph glyph-name="periodcentered" unicode="&#xb7;" horiz-adv-x="268" 
d="M86 348h94v-94h-94v94z" />
    <glyph glyph-name="cedilla" unicode="&#xb8;" horiz-adv-x="260" 
d="M257 -134q0 -24 -9.5 -45t-26 -36.5t-38 -25t-45.5 -9.5h-140v91h138q12 0 19 6.5t7.5 11.5t0.5 7q0 6 -4 12.5t-15 7.5l-138 14l46 157h1l59 -46l-11 -37l54 -7q45 -6 73.5 -31t28.5 -70z" />
    <glyph glyph-name="onesuperior" unicode="&#xb9;" horiz-adv-x="350" 
d="M113 401v40h36v196h-36v41h13q10 0 16.5 6.5t6.5 16.5h40v-260h36v-40h-112z" />
    <glyph glyph-name="ordmasculine" unicode="&#xba;" horiz-adv-x="376" 
d="M191 738q32 0 59.5 -12t47.5 -32.5t32 -48t12 -59.5q0 -31 -12 -58.5t-32 -48t-47.5 -32.5t-59.5 -12q-31 0 -58.5 12t-48 32.5t-32.5 48t-12 58.5q0 32 12 59.5t32.5 48t48 32.5t58.5 12zM251 586q0 26 -17.5 43.5t-42.5 17.5t-42.5 -17.5t-17.5 -43.5q0 -25 17.5 -42.5
t42.5 -17.5t42.5 17.5t17.5 42.5z" />
    <glyph glyph-name="guillemotright" unicode="&#xbb;" horiz-adv-x="509" 
d="M340 605l136 -248l-136 -248h-102l136 248l-136 248h102zM139 605l136 -248l-136 -248h-102l136 248l-136 248h102z" />
    <glyph glyph-name="onequarter" unicode="&#xbc;" horiz-adv-x="1680" 
d="M303 0v94h84v456h-84v94h30q23 0 38.5 15.5t15.5 38.5h93v-604h84v-94h-261zM1083 698l-385 -698h-102l385 698h102zM1517 698v-698h-94v130h-307v568h94v-475h213v475h94z" />
    <glyph glyph-name="onehalf" unicode="&#xbd;" horiz-adv-x="1680" 
d="M301 0v94h84v456h-84v94h30q23 0 38.5 15.5t15.5 38.5h93v-604h84v-94h-261zM1083 698l-385 -698h-102l385 698h102zM1223 223v-129h341v-94h-435v317h245q29 0 54.5 11.5t44.5 31t30 46t11 56.5t-11 56t-30 45.5t-44.5 30.5t-54.5 11h-245v93h245q48 0 89.5 -18.5
t73 -50.5t49.5 -75t18 -92t-18 -92.5t-49.5 -76t-73 -51.5t-89.5 -19h-151z" />
    <glyph glyph-name="threequarters" unicode="&#xbe;" horiz-adv-x="1680" 
d="M215 698h400v-317h-47q22 -30 34.5 -66.5t12.5 -77.5q0 -49 -18 -92t-49.5 -75.5t-73 -51t-89.5 -18.5h-170v93h170q29 0 54.5 11.5t44 31t29.5 45.5t11 56t-11 56.5t-29.5 46t-44 30.5t-54.5 11h-97v94h233v129h-306v94zM1083 698l-385 -698h-102l385 698h102zM1531 698
v-698h-94v130h-307v568h94v-475h213v475h94z" />
    <glyph glyph-name="questiondown" unicode="&#xbf;" horiz-adv-x="434" 
d="M290 590v-94h-94v94h94zM504 143q0 -53 -19 -100t-51.5 -82t-76.5 -55t-94 -20t-94 20t-76.5 55t-51.5 82t-19 100h97q0 -34 11.5 -64.5t31 -53t45.5 -35.5t56 -13t56.5 13t46 35.5t30.5 53t11 64.5q0 32 -9.5 59.5t-26 49.5t-39 36.5t-49.5 18.5h-87v153h94v-62
q45 -6 84 -28t68 -56t45.5 -78t16.5 -93z" />
    <glyph glyph-name="Agrave" unicode="&#xc0;" horiz-adv-x="590" 
d="M421 223h-253l-59 -223h-98l187 698h194l187 -698h-98zM396 317l-77 287h-49l-76 -287h202zM405 765h-71l-139 131v8h111z" />
    <glyph glyph-name="Aacute" unicode="&#xc1;" horiz-adv-x="590" 
d="M421 223h-253l-59 -223h-98l187 698h194l187 -698h-98zM396 317l-77 287h-49l-76 -287h202zM405 904v-8l-139 -131h-71l99 139h111z" />
    <glyph glyph-name="Acircumflex" unicode="&#xc2;" horiz-adv-x="590" 
d="M421 223h-253l-59 -223h-98l187 698h194l187 -698h-98zM396 317l-77 287h-49l-76 -287h202zM245 899h111l90 -166h-74l-68 68h-8l-67 -68h-75z" />
    <glyph glyph-name="Atilde" unicode="&#xc3;" horiz-adv-x="590" 
d="M421 223h-253l-59 -223h-98l187 698h194l187 -698h-98zM396 317l-77 287h-49l-76 -287h202zM359 744q-36 0 -61 14.5t-43.5 30.5t-30 24.5t-19.5 8.5q-7 0 -13 -3q-12 -6 -16.5 -17t-4.5 -22.5t2 -20.5t3 -11l-73 -8q-2 16 -2 32q0 11 1.5 29t11 39t29.5 34t53 13
q26 0 46 -12.5t37.5 -28t33 -28t31.5 -12.5q8 0 16 4q9 5 10 13.5t1 14.5t-1 15.5t-3 17t-2 9.5q0 3 2 3l70 7q3 -26 3.5 -40t0.5 -15q0 -24 -7.5 -44.5t-25 -33.5t-49.5 -13z" />
    <glyph glyph-name="Adieresis" unicode="&#xc4;" horiz-adv-x="590" 
d="M421 223h-253l-59 -223h-98l187 698h194l187 -698h-98zM396 317l-77 287h-49l-76 -287h202zM356 853h94v-94h-94v94zM149 853h95v-94h-95v94z" />
    <glyph glyph-name="Aring" unicode="&#xc5;" horiz-adv-x="590" 
d="M421 223h-253l-59 -223h-98l187 698h194l187 -698h-98zM396 317l-77 287h-49l-76 -287h202zM300 906q26 0 48.5 -10t39.5 -27t26.5 -39.5t9.5 -48.5t-9.5 -48.5t-26.5 -39.5t-39.5 -27t-48.5 -10t-48.5 10t-39.5 27t-27 39.5t-10 48.5t10 48.5t27 39.5t39.5 27t48.5 10z
M349 781q0 21 -14.5 35.5t-34.5 14.5q-21 0 -35.5 -14.5t-14.5 -35.5t14.5 -35.5t35.5 -14.5q20 0 34.5 14.5t14.5 35.5z" />
    <glyph glyph-name="AE" unicode="&#xc6;" horiz-adv-x="791" 
d="M746 698v-94h-291v-287h205v-94h-205v-129h291v-94h-385v223h-175l-77 -223h-98l235 698h500zM219 317h142v287h-42z" />
    <glyph glyph-name="Ccedilla" unicode="&#xc7;" horiz-adv-x="625" 
d="M604 87q-45 -45 -104.5 -70.5t-126.5 -25.5q-70 0 -131.5 28t-107.5 76.5t-72.5 113.5t-26.5 139t26.5 139t72.5 113.5t107.5 76.5t131.5 28q67 0 126.5 -25.5t104.5 -70.5l-63 -72q-33 35 -76 55t-92 20q-50 0 -94 -20.5t-76.5 -56.5t-51.5 -84t-19 -103t19 -103
t51.5 -84t76.5 -56.5t94 -20.5q49 0 92 20t76 55zM458 -134q0 -24 -9.5 -45t-26 -36.5t-38 -25t-45.5 -9.5h-140v91h138q12 0 19 6.5t7.5 11.5t0.5 7q0 6 -4 12.5t-15 7.5l-138 14l46 157h1l59 -46l-11 -37l54 -7q45 -6 73.5 -31t28.5 -70z" />
    <glyph glyph-name="Egrave" unicode="&#xc8;" horiz-adv-x="567" 
d="M522 698v-94h-384v-287h281v-94h-281v-129h384v-94h-477v698h477zM370 765h-71l-139 131v8h111z" />
    <glyph glyph-name="Eacute" unicode="&#xc9;" horiz-adv-x="567" 
d="M522 698v-94h-384v-287h281v-94h-281v-129h384v-94h-477v698h477zM370 904v-8l-139 -131h-71l99 139h111z" />
    <glyph glyph-name="Ecircumflex" unicode="&#xca;" 
d="M527 698v-94h-384v-287h281v-94h-281v-129h384v-94h-477v698h477zM215 899h111l90 -166h-74l-68 68h-8l-67 -68h-75z" />
    <glyph glyph-name="Edieresis" unicode="&#xcb;" horiz-adv-x="567" 
d="M522 698v-94h-384v-287h281v-94h-281v-129h384v-94h-477v698h477zM322 853h94v-94h-94v94zM115 853h95v-94h-95v94z" />
    <glyph glyph-name="Igrave" unicode="&#xcc;" horiz-adv-x="351" 
d="M306 698v-94h-84v-510h84v-94h-261v94h84v510h-84v94h261zM281 765h-71l-139 131v8h111z" />
    <glyph glyph-name="Iacute" unicode="&#xcd;" horiz-adv-x="351" 
d="M306 698v-94h-84v-510h84v-94h-261v94h84v510h-84v94h261zM281 904v-8l-139 -131h-71l99 139h111z" />
    <glyph glyph-name="Icircumflex" unicode="&#xce;" horiz-adv-x="351" 
d="M306 698v-94h-84v-510h84v-94h-261v94h84v510h-84v94h261zM120 899h111l90 -166h-74l-68 68h-8l-67 -68h-75z" />
    <glyph glyph-name="Idieresis" unicode="&#xcf;" horiz-adv-x="351" 
d="M306 698v-94h-84v-510h84v-94h-261v94h84v510h-84v94h261zM232 853h94v-94h-94v94zM25 853h95v-94h-95v94z" />
    <glyph glyph-name="Eth" unicode="&#xd0;" horiz-adv-x="599" 
d="M45 0v223h-76v94h76v381h180q70 0 132 -27.5t108 -74.5t72.5 -111t26.5 -136t-26.5 -135.5t-72.5 -111t-108 -75t-132 -27.5h-180zM225 92q50 0 94 20t76.5 55t51.5 82t19 100t-19 100t-51.5 81.5t-76.5 54.5t-94 20h-87v-288h76v-94h-76v-131h87z" />
    <glyph glyph-name="Ntilde" unicode="&#xd1;" horiz-adv-x="588" 
d="M543 698v-698h-185l-195 603h-24v-603h-94v698h186l194 -605h24v605h94zM431 744q-36 0 -61 14.5t-43.5 30.5t-30 24.5t-19.5 8.5q-7 0 -13 -3q-12 -6 -16.5 -17t-4.5 -22.5t2 -20.5t3 -11l-73 -8q-2 16 -2 32q0 11 1.5 29t11 39t29.5 34t53 13q26 0 46 -12.5t37.5 -28
t33 -28t31.5 -12.5q8 0 16 4q9 5 10 13.5t1 14.5t-1 15.5t-3 17t-2 9.5q0 3 2 3l70 7q3 -26 3.5 -40t0.5 -15q0 -24 -7.5 -44.5t-25 -33.5t-49.5 -13z" />
    <glyph glyph-name="Ograve" unicode="&#xd2;" horiz-adv-x="746" 
d="M711 349q0 -74 -26.5 -139t-72.5 -113.5t-107.5 -76.5t-131.5 -28t-131.5 28t-107.5 76.5t-72.5 113.5t-26.5 139t26.5 139t72.5 113.5t107.5 76.5t131.5 28t131.5 -28t107.5 -76.5t72.5 -113.5t26.5 -139zM613 349q0 55 -19 103t-51.5 84t-76 56.5t-93.5 20.5
t-93.5 -20.5t-76 -56.5t-51.5 -84t-19 -103t19 -103t51.5 -84t76 -56.5t93.5 -20.5t93.5 20.5t76 56.5t51.5 84t19 103zM491 765h-71l-139 131v8h111z" />
    <glyph glyph-name="Oacute" unicode="&#xd3;" horiz-adv-x="746" 
d="M711 349q0 -74 -26.5 -139t-72.5 -113.5t-107.5 -76.5t-131.5 -28t-131.5 28t-107.5 76.5t-72.5 113.5t-26.5 139t26.5 139t72.5 113.5t107.5 76.5t131.5 28t131.5 -28t107.5 -76.5t72.5 -113.5t26.5 -139zM613 349q0 55 -19 103t-51.5 84t-76 56.5t-93.5 20.5
t-93.5 -20.5t-76 -56.5t-51.5 -84t-19 -103t19 -103t51.5 -84t76 -56.5t93.5 -20.5t93.5 20.5t76 56.5t51.5 84t19 103zM501 904v-8l-139 -131h-71l99 139h111z" />
    <glyph glyph-name="Ocircumflex" unicode="&#xd4;" horiz-adv-x="746" 
d="M711 349q0 -74 -26.5 -139t-72.5 -113.5t-107.5 -76.5t-131.5 -28t-131.5 28t-107.5 76.5t-72.5 113.5t-26.5 139t26.5 139t72.5 113.5t107.5 76.5t131.5 28t131.5 -28t107.5 -76.5t72.5 -113.5t26.5 -139zM613 349q0 55 -19 103t-51.5 84t-76 56.5t-93.5 20.5
t-93.5 -20.5t-76 -56.5t-51.5 -84t-19 -103t19 -103t51.5 -84t76 -56.5t93.5 -20.5t93.5 20.5t76 56.5t51.5 84t19 103zM318 899h111l90 -166h-74l-68 68h-8l-67 -68h-75z" />
    <glyph glyph-name="Otilde" unicode="&#xd5;" horiz-adv-x="746" 
d="M711 349q0 -74 -26.5 -139t-72.5 -113.5t-107.5 -76.5t-131.5 -28t-131.5 28t-107.5 76.5t-72.5 113.5t-26.5 139t26.5 139t72.5 113.5t107.5 76.5t131.5 28t131.5 -28t107.5 -76.5t72.5 -113.5t26.5 -139zM613 349q0 55 -19 103t-51.5 84t-76 56.5t-93.5 20.5
t-93.5 -20.5t-76 -56.5t-51.5 -84t-19 -103t19 -103t51.5 -84t76 -56.5t93.5 -20.5t93.5 20.5t76 56.5t51.5 84t19 103zM465 744q-36 0 -61 14.5t-43.5 30.5t-30 24.5t-19.5 8.5q-7 0 -13 -3q-12 -6 -16.5 -17t-4.5 -22.5t2 -20.5t3 -11l-73 -8q-2 16 -2 32q0 11 1.5 29
t11 39t29.5 34t53 13q26 0 46 -12.5t37.5 -28t33 -28t31.5 -12.5q8 0 16 4q9 5 10 13.5t1 14.5t-1 15.5t-3 17t-2 9.5q0 3 2 3l70 7q3 -26 3.5 -40t0.5 -15q0 -24 -7.5 -44.5t-25 -33.5t-49.5 -13z" />
    <glyph glyph-name="Odieresis" unicode="&#xd6;" horiz-adv-x="746" 
d="M711 349q0 -74 -26.5 -139t-72.5 -113.5t-107.5 -76.5t-131.5 -28t-131.5 28t-107.5 76.5t-72.5 113.5t-26.5 139t26.5 139t72.5 113.5t107.5 76.5t131.5 28t131.5 -28t107.5 -76.5t72.5 -113.5t26.5 -139zM613 349q0 55 -19 103t-51.5 84t-76 56.5t-93.5 20.5
t-93.5 -20.5t-76 -56.5t-51.5 -84t-19 -103t19 -103t51.5 -84t76 -56.5t93.5 -20.5t93.5 20.5t76 56.5t51.5 84t19 103zM442 853h94v-94h-94v94zM235 853h95v-94h-95v94z" />
    <glyph glyph-name="multiply" unicode="&#xd7;" horiz-adv-x="411" 
d="M345 283l-65 -67l-73 71l-72 -73l-68 65l72 74l-73 72l65 67l74 -72l72 74l67 -66l-72 -73z" />
    <glyph glyph-name="Oslash" unicode="&#xd8;" horiz-adv-x="746" 
d="M711 349q0 -74 -26.5 -139t-72.5 -113.5t-107.5 -76.5t-131.5 -28t-131.5 28t-107.5 76.5t-72.5 113.5t-26.5 139t26.5 139t72.5 113.5t107.5 76.5t131.5 28t131.5 -28t107.5 -76.5t72.5 -113.5t26.5 -139zM613 349q0 55 -19 103t-51.5 84t-76 56.5t-93.5 20.5
t-93.5 -20.5t-76 -56.5t-51.5 -84t-19 -103t19 -103t51.5 -84t76 -56.5t93.5 -20.5t93.5 20.5t76 56.5t51.5 84t19 103zM616 698l-385 -698h-102l385 698h102z" />
    <glyph glyph-name="Ugrave" unicode="&#xd9;" horiz-adv-x="567" 
d="M522 698v-698h-477v698h94v-604h290v604h93zM368 768h-71l-139 131v8h111z" />
    <glyph glyph-name="Uacute" unicode="&#xda;" horiz-adv-x="567" 
d="M522 698v-698h-477v698h94v-604h290v604h93zM422 907v-8l-139 -131h-71l99 139h111z" />
    <glyph glyph-name="Ucircumflex" unicode="&#xdb;" horiz-adv-x="567" 
d="M522 698v-698h-477v698h94v-604h290v604h93zM228 899h111l90 -166h-74l-68 68h-8l-67 -68h-75z" />
    <glyph glyph-name="Udieresis" unicode="&#xdc;" horiz-adv-x="567" 
d="M522 698v-698h-477v698h94v-604h290v604h93zM340 852h94v-94h-94v94zM133 852h95v-94h-95v94z" />
    <glyph glyph-name="Yacute" unicode="&#xdd;" horiz-adv-x="541" 
d="M540 698l-221 -475v-223h-94v223l-221 475h94l161 -347h26l161 347h94zM396 904v-8l-139 -131h-71l99 139h111z" />
    <glyph glyph-name="Thorn" unicode="&#xde;" horiz-adv-x="491" 
d="M45 697h94v-159h132q38 0 72 -15t59 -40.5t39.5 -60.5t14.5 -74t-14.5 -74t-39.5 -60.5t-59 -40.5t-72 -15h-132v-159h-94v698zM271 251q20 0 37 7.5t29.5 20.5t20 31t7.5 38t-7.5 38t-20 31.5t-29.5 21t-37 7.5h-132v-195h132z" />
    <glyph glyph-name="germandbls" unicode="&#xdf;" horiz-adv-x="631" 
 />
    <glyph glyph-name="agrave" unicode="&#xe0;" horiz-adv-x="463" 
d="M324 401h-269v95h363v-401h43v-95h-106l-15 29q-24 -18 -53 -28t-61 -10q-40 0 -74.5 15t-60.5 41t-41 61t-15 74q0 40 15 73.5t41 58t60.5 38.5t74.5 14q54 0 98 -28v63zM226 81q21 0 40 6.5t33.5 18.5t23.5 29t9 38q0 27 -9.5 47.5t-24.5 34t-34.5 20.5t-39.5 7
q-19 0 -37 -6.5t-32 -19.5t-22.5 -32.5t-8.5 -46.5q0 -42 30 -69t72 -27zM343 567h-71l-139 131v8h111z" />
    <glyph glyph-name="aacute" unicode="&#xe1;" horiz-adv-x="463" 
d="M324 401h-269v95h363v-401h43v-95h-106l-15 29q-24 -18 -53 -28t-61 -10q-40 0 -74.5 15t-60.5 41t-41 61t-15 74q0 40 15 73.5t41 58t60.5 38.5t74.5 14q54 0 98 -28v63zM226 81q21 0 40 6.5t33.5 18.5t23.5 29t9 38q0 27 -9.5 47.5t-24.5 34t-34.5 20.5t-39.5 7
q-19 0 -37 -6.5t-32 -19.5t-22.5 -32.5t-8.5 -46.5q0 -42 30 -69t72 -27zM393 706v-8l-139 -131h-71l99 139h111z" />
    <glyph glyph-name="acircumflex" unicode="&#xe2;" horiz-adv-x="463" 
d="M324 401h-269v95h363v-401h43v-95h-106l-15 29q-24 -18 -53 -28t-61 -10q-40 0 -74.5 15t-60.5 41t-41 61t-15 74q0 40 15 73.5t41 58t60.5 38.5t74.5 14q54 0 98 -28v63zM226 81q21 0 40 6.5t33.5 18.5t23.5 29t9 38q0 27 -9.5 47.5t-24.5 34t-34.5 20.5t-39.5 7
q-19 0 -37 -6.5t-32 -19.5t-22.5 -32.5t-8.5 -46.5q0 -42 30 -69t72 -27zM183 698h111l90 -166h-74l-68 68h-8l-67 -68h-75z" />
    <glyph glyph-name="atilde" unicode="&#xe3;" horiz-adv-x="463" 
d="M324 401h-269v95h363v-401h43v-95h-106l-15 29q-24 -18 -53 -28t-61 -10q-40 0 -74.5 15t-60.5 41t-41 61t-15 74q0 40 15 73.5t41 58t60.5 38.5t74.5 14q54 0 98 -28v63zM226 81q21 0 40 6.5t33.5 18.5t23.5 29t9 38q0 27 -9.5 47.5t-24.5 34t-34.5 20.5t-39.5 7
q-19 0 -37 -6.5t-32 -19.5t-22.5 -32.5t-8.5 -46.5q0 -42 30 -69t72 -27zM325 543q-36 0 -61 14.5t-43.5 30.5t-30 24.5t-19.5 8.5q-7 0 -13 -3q-12 -6 -16.5 -17t-4.5 -22.5t2 -20.5t3 -11l-73 -8q-2 16 -2 32q0 11 1.5 29t11 39t29.5 34t53 13q26 0 46 -12.5t37.5 -28
t33 -28t31.5 -12.5q8 0 16 4q9 5 10 13.5t1 14.5t-1 15.5t-3 17t-2 9.5q0 3 2 3l70 7q3 -26 3.5 -40t0.5 -15q0 -24 -7.5 -44.5t-25 -33.5t-49.5 -13z" />
    <glyph glyph-name="adieresis" unicode="&#xe4;" horiz-adv-x="463" 
d="M324 401h-269v95h363v-401h43v-95h-106l-15 29q-24 -18 -53 -28t-61 -10q-40 0 -74.5 15t-60.5 41t-41 61t-15 74q0 40 15 73.5t41 58t60.5 38.5t74.5 14q54 0 98 -28v63zM226 81q21 0 40 6.5t33.5 18.5t23.5 29t9 38q0 27 -9.5 47.5t-24.5 34t-34.5 20.5t-39.5 7
q-19 0 -37 -6.5t-32 -19.5t-22.5 -32.5t-8.5 -46.5q0 -42 30 -69t72 -27zM305 655h94v-94h-94v94zM98 655h95v-94h-95v94z" />
    <glyph glyph-name="aring" unicode="&#xe5;" horiz-adv-x="463" 
d="M324 401h-269v95h363v-401h43v-95h-106l-15 29q-24 -18 -53 -28t-61 -10q-40 0 -74.5 15t-60.5 41t-41 61t-15 74q0 40 15 73.5t41 58t60.5 38.5t74.5 14q54 0 98 -28v63zM226 81q21 0 40 6.5t33.5 18.5t23.5 29t9 38q0 27 -9.5 47.5t-24.5 34t-34.5 20.5t-39.5 7
q-19 0 -37 -6.5t-32 -19.5t-22.5 -32.5t-8.5 -46.5q0 -42 30 -69t72 -27zM224 706q26 0 48.5 -10t39.5 -27t26.5 -39.5t9.5 -48.5t-9.5 -48.5t-26.5 -39.5t-39.5 -27t-48.5 -10t-48.5 10t-39.5 27t-27 39.5t-10 48.5t10 48.5t27 39.5t39.5 27t48.5 10zM273 581
q0 21 -14.5 35.5t-34.5 14.5q-21 0 -35.5 -14.5t-14.5 -35.5t14.5 -35.5t35.5 -14.5q20 0 34.5 14.5t14.5 35.5z" />
    <glyph glyph-name="ae" unicode="&#xe6;" horiz-adv-x="842" 
d="M428 207q13 -54 51 -89t89 -35q35 0 65 18t50 47h107q-13 -34 -35.5 -62.5t-51.5 -49.5t-63 -32.5t-72 -11.5q-55 0 -102 23.5t-80 65.5q-26 -41 -68 -65t-93 -24q-40 0 -74.5 15t-60.5 41t-41 60.5t-15 74.5q0 39 15 74t41 61t60.5 41t74.5 15q28 0 54 -8t48 -22v58
h-269v95h362v-45q31 26 68.5 40t79.5 14q50 0 94 -20t77 -55t52 -81.5t19 -99.5q0 -22 -3 -43h-379zM708 292q-13 54 -51 89t-89 35t-88.5 -35t-51.5 -89h280zM225 81q21 0 40 8t33.5 22t23.5 32.5t9 39.5t-9 39t-23.5 32t-33.5 22t-40 8t-39.5 -8t-32.5 -22t-22 -32t-8 -39
t8 -39.5t22 -32.5t32.5 -22t39.5 -8z" />
    <glyph glyph-name="ccedilla" unicode="&#xe7;" horiz-adv-x="453" 
d="M408 496v-170h-93v75h-179l2 -306h177v70h93v-165h-363v496h363zM349 -134q0 -24 -9.5 -45t-26 -36.5t-38 -25t-45.5 -9.5h-140v91h138q12 0 19 6.5t7.5 11.5t0.5 7q0 6 -4 12.5t-15 7.5l-138 14l46 157h1l59 -46l-11 -37l54 -7q45 -6 73.5 -31t28.5 -70z" />
    <glyph glyph-name="egrave" unicode="&#xe8;" horiz-adv-x="551" 
d="M136 207q12 -54 50.5 -89t89.5 -35q35 0 64.5 17.5t49.5 47.5h107q-14 -34 -36.5 -63t-51 -49.5t-62.5 -32t-71 -11.5q-50 0 -94 20t-76.5 55t-51.5 82t-19 100t19 99.5t51.5 81.5t76.5 55t94 20t93.5 -20t76 -55t51.5 -81.5t19 -99.5q0 -22 -3 -42h-377zM415 292
q-13 53 -51 87.5t-88 34.5q-51 0 -89 -34.5t-51 -87.5h279zM381 567h-71l-139 131v8h111z" />
    <glyph glyph-name="eacute" unicode="&#xe9;" horiz-adv-x="551" 
d="M136 207q12 -54 50.5 -89t89.5 -35q35 0 64.5 17.5t49.5 47.5h107q-14 -34 -36.5 -63t-51 -49.5t-62.5 -32t-71 -11.5q-50 0 -94 20t-76.5 55t-51.5 82t-19 100t19 99.5t51.5 81.5t76.5 55t94 20t93.5 -20t76 -55t51.5 -81.5t19 -99.5q0 -22 -3 -42h-377zM415 292
q-13 53 -51 87.5t-88 34.5q-51 0 -89 -34.5t-51 -87.5h279zM414 706v-8l-139 -131h-71l99 139h111z" />
    <glyph glyph-name="ecircumflex" unicode="&#xea;" horiz-adv-x="551" 
d="M136 207q12 -54 50.5 -89t89.5 -35q35 0 64.5 17.5t49.5 47.5h107q-14 -34 -36.5 -63t-51 -49.5t-62.5 -32t-71 -11.5q-50 0 -94 20t-76.5 55t-51.5 82t-19 100t19 99.5t51.5 81.5t76.5 55t94 20t93.5 -20t76 -55t51.5 -81.5t19 -99.5q0 -22 -3 -42h-377zM415 292
q-13 53 -51 87.5t-88 34.5q-51 0 -89 -34.5t-51 -87.5h279zM221 698h111l90 -166h-74l-68 68h-8l-67 -68h-75z" />
    <glyph glyph-name="edieresis" unicode="&#xeb;" horiz-adv-x="551" 
d="M136 207q12 -54 50.5 -89t89.5 -35q35 0 64.5 17.5t49.5 47.5h107q-14 -34 -36.5 -63t-51 -49.5t-62.5 -32t-71 -11.5q-50 0 -94 20t-76.5 55t-51.5 82t-19 100t19 99.5t51.5 81.5t76.5 55t94 20t93.5 -20t76 -55t51.5 -81.5t19 -99.5q0 -22 -3 -42h-377zM415 292
q-13 53 -51 87.5t-88 34.5q-51 0 -89 -34.5t-51 -87.5h279zM332 655h94v-94h-94v94zM125 655h95v-94h-95v94z" />
    <glyph glyph-name="igrave" unicode="&#xec;" horiz-adv-x="184" 
d="M189 567h-71l-139 131v8h111zM139 497v-495h-94v181l3 314h91z" />
    <glyph glyph-name="iacute" unicode="&#xed;" horiz-adv-x="184" 
d="M236 706v-8l-139 -131h-71l99 139h111zM139 497v-495h-94v181l3 314h91z" />
    <glyph glyph-name="icircumflex" unicode="&#xee;" horiz-adv-x="184" 
d="M37 698h111l90 -166h-74l-68 68h-8l-67 -68h-75zM139 497v-495h-94v181l3 314h91z" />
    <glyph glyph-name="idieresis" unicode="&#xef;" horiz-adv-x="184" 
d="M148 655h94v-94h-94v94zM-59 655h95v-94h-95v94zM139 497v-495h-94v181l3 314h91z" />
    <glyph glyph-name="eth" unicode="&#xf0;" horiz-adv-x="568" 
d="M167 518v63l68 32q-38 23 -64.5 30.5t-27.5 8.5v89q4 -1 21 -5.5t41.5 -14t55.5 -25.5t64 -40l96 46v-60l-47 -24q31 -28 59 -63.5t50 -79.5t35.5 -98t14.5 -118v-10q0 -53 -17.5 -100t-49 -82t-75.5 -55.5t-98 -20.5q-53 0 -100 20.5t-82 55.5t-55.5 82t-20.5 100
q0 54 19.5 101t53.5 82t77 55t97 20q23 0 50 -7.5t47 -25.5q-20 33 -43.5 58.5t-47.5 45.5zM293 83q33 0 60 14t46.5 37t30 53t10.5 62q0 33 -10.5 63t-30 53t-46.5 37t-60 14q-32 0 -61 -14t-50.5 -37t-34 -53t-12.5 -63q0 -32 12.5 -62t34 -53t50.5 -37t61 -14z" />
    <glyph glyph-name="ntilde" unicode="&#xf1;" horiz-adv-x="496" 
d="M451 496v-496h-94v402h-218v-402h-94v496h406zM336 543q-36 0 -61 14.5t-43.5 30.5t-30 24.5t-19.5 8.5q-7 0 -13 -3q-12 -6 -16.5 -17t-4.5 -22.5t2 -20.5t3 -11l-73 -8q-2 16 -2 32q0 11 1.5 29t11 39t29.5 34t53 13q26 0 46 -12.5t37.5 -28t33 -28t31.5 -12.5
q8 0 16 4q9 5 10 13.5t1 14.5t-1 15.5t-3 17t-2 9.5q0 3 2 3l70 7q3 -26 3.5 -40t0.5 -15q0 -24 -7.5 -44.5t-25 -33.5t-49.5 -13z" />
    <glyph glyph-name="ograve" unicode="&#xf2;" horiz-adv-x="552" 
d="M276 505q50 0 94 -20t76.5 -55t51.5 -82t19 -100t-19 -99.5t-51.5 -81.5t-76.5 -55t-94 -20t-94 20t-76.5 55t-51.5 81.5t-19 99.5t19 100t51.5 82t76.5 55t94 20zM132 248q0 -34 11.5 -64t31 -52.5t45.5 -35.5t56 -13t56.5 13t46 35.5t31 52.5t11.5 64q0 35 -11.5 65
t-31 52.5t-46 35.5t-56.5 13t-56 -13t-45.5 -35.5t-31 -52.5t-11.5 -65zM381 567h-71l-139 131v8h111z" />
    <glyph glyph-name="oacute" unicode="&#xf3;" horiz-adv-x="552" 
d="M276 505q50 0 94 -20t76.5 -55t51.5 -82t19 -100t-19 -99.5t-51.5 -81.5t-76.5 -55t-94 -20t-94 20t-76.5 55t-51.5 81.5t-19 99.5t19 100t51.5 82t76.5 55t94 20zM132 248q0 -34 11.5 -64t31 -52.5t45.5 -35.5t56 -13t56.5 13t46 35.5t31 52.5t11.5 64q0 35 -11.5 65
t-31 52.5t-46 35.5t-56.5 13t-56 -13t-45.5 -35.5t-31 -52.5t-11.5 -65zM381 706v-8l-139 -131h-71l99 139h111z" />
    <glyph glyph-name="ocircumflex" unicode="&#xf4;" horiz-adv-x="552" 
d="M276 505q50 0 94 -20t76.5 -55t51.5 -82t19 -100t-19 -99.5t-51.5 -81.5t-76.5 -55t-94 -20t-94 20t-76.5 55t-51.5 81.5t-19 99.5t19 100t51.5 82t76.5 55t94 20zM132 248q0 -34 11.5 -64t31 -52.5t45.5 -35.5t56 -13t56.5 13t46 35.5t31 52.5t11.5 64q0 35 -11.5 65
t-31 52.5t-46 35.5t-56.5 13t-56 -13t-45.5 -35.5t-31 -52.5t-11.5 -65zM221 698h111l90 -166h-74l-68 68h-8l-67 -68h-75z" />
    <glyph glyph-name="otilde" unicode="&#xf5;" horiz-adv-x="552" 
d="M276 505q50 0 94 -20t76.5 -55t51.5 -82t19 -100t-19 -99.5t-51.5 -81.5t-76.5 -55t-94 -20t-94 20t-76.5 55t-51.5 81.5t-19 99.5t19 100t51.5 82t76.5 55t94 20zM132 248q0 -34 11.5 -64t31 -52.5t45.5 -35.5t56 -13t56.5 13t46 35.5t31 52.5t11.5 64q0 35 -11.5 65
t-31 52.5t-46 35.5t-56.5 13t-56 -13t-45.5 -35.5t-31 -52.5t-11.5 -65zM364 543q-36 0 -61 14.5t-43.5 30.5t-30 24.5t-19.5 8.5q-7 0 -13 -3q-12 -6 -16.5 -17t-4.5 -22.5t2 -20.5t3 -11l-73 -8q-2 16 -2 32q0 11 1.5 29t11 39t29.5 34t53 13q26 0 46 -12.5t37.5 -28
t33 -28t31.5 -12.5q8 0 16 4q9 5 10 13.5t1 14.5t-1 15.5t-3 17t-2 9.5q0 3 2 3l70 7q3 -26 3.5 -40t0.5 -15q0 -24 -7.5 -44.5t-25 -33.5t-49.5 -13z" />
    <glyph glyph-name="odieresis" unicode="&#xf6;" horiz-adv-x="552" 
d="M276 505q50 0 94 -20t76.5 -55t51.5 -82t19 -100t-19 -99.5t-51.5 -81.5t-76.5 -55t-94 -20t-94 20t-76.5 55t-51.5 81.5t-19 99.5t19 100t51.5 82t76.5 55t94 20zM132 248q0 -34 11.5 -64t31 -52.5t45.5 -35.5t56 -13t56.5 13t46 35.5t31 52.5t11.5 64q0 35 -11.5 65
t-31 52.5t-46 35.5t-56.5 13t-56 -13t-45.5 -35.5t-31 -52.5t-11.5 -65zM332 655h94v-94h-94v94zM125 655h95v-94h-95v94z" />
    <glyph glyph-name="divide" unicode="&#xf7;" horiz-adv-x="268" 
d="M81 556h94v-94h-94v94zM81 145h94v-94h-94v94zM350 246h-433v94h433v-94z" />
    <glyph glyph-name="oslash" unicode="&#xf8;" horiz-adv-x="552" 
d="M276 505q56 0 105 -26l12 18h124l-58 -82q27 -34 42.5 -76.5t15.5 -90.5q0 -53 -19 -99.5t-51.5 -81.5t-76.5 -55t-94 -20q-52 0 -100 23l-10 -15h-115l50 72q-31 35 -48.5 80t-17.5 96q0 53 19 100t51.5 82t76.5 55t94 20zM132 248q0 -52 25 -94l171 249q-25 11 -52 11
q-30 0 -56 -13t-45.5 -35.5t-31 -52.5t-11.5 -65zM231 91q22 -8 45 -8q30 0 56.5 13t46 35.5t31 52.5t11.5 64q0 47 -20 85z" />
    <glyph glyph-name="ugrave" unicode="&#xf9;" horiz-adv-x="496" 
d="M451 496v-496h-406v496h94v-402h218v402h94zM347 567h-71l-139 131v8h111z" />
    <glyph glyph-name="uacute" unicode="&#xfa;" horiz-adv-x="496" 
d="M451 496v-496h-406v496h94v-402h218v402h94zM376 706v-8l-139 -131h-71l99 139h111z" />
    <glyph glyph-name="ucircumflex" unicode="&#xfb;" horiz-adv-x="496" 
d="M451 496v-496h-406v496h94v-402h218v402h94zM216 698h111l90 -166h-74l-68 68h-8l-67 -68h-75z" />
    <glyph glyph-name="udieresis" unicode="&#xfc;" horiz-adv-x="496" 
d="M451 496v-496h-406v496h94v-402h218v402h94zM328 655h94v-94h-94v94zM121 655h95v-94h-95v94z" />
    <glyph glyph-name="yacute" unicode="&#xfd;" horiz-adv-x="601" 
d="M493 496h106v-94h-43v-601h-468v93h375v161q-35 -29 -79 -46t-93 -17q-55 0 -100.5 21t-77.5 57t-50 84t-18 103v239h94v-239q0 -35 10.5 -67.5t30 -57t48 -39.5t63.5 -15t66 15t54.5 39.5t37.5 57t14 67.5v181zM426 706v-8l-139 -131h-71l99 139h111z" />
    <glyph glyph-name="thorn" unicode="&#xfe;" horiz-adv-x="576" 
d="M108 698l31 -58v-192q33 27 74.5 42.5t88.5 15.5q53 0 97 -20t75.5 -54.5t49 -81t17.5 -99.5q0 -55 -17.5 -102.5t-49 -82.5t-75.5 -55t-97 -20q-47 0 -88.5 15.5t-74.5 43.5v-250h-94v804h-42v94h105zM302 82q32 0 58.5 14t46 37t30.5 54t11 64q0 32 -11 61.5t-30.5 52
t-46 36.5t-58.5 14t-60.5 -14t-49.5 -36.5t-33 -52t-12 -61.5q0 -33 12 -64t33 -54t49.5 -37t60.5 -14z" />
    <glyph glyph-name="ydieresis" unicode="&#xff;" horiz-adv-x="601" 
d="M493 496h106v-94h-43v-601h-468v93h375v161q-35 -29 -79 -46t-93 -17q-55 0 -100.5 21t-77.5 57t-50 84t-18 103v239h94v-239q0 -35 10.5 -67.5t30 -57t48 -39.5t63.5 -15t66 15t54.5 39.5t37.5 57t14 67.5v181zM378 655h94v-94h-94v94zM171 655h95v-94h-95v94z" />
    <glyph glyph-name="Dcroat" unicode="&#x110;" horiz-adv-x="599" 
d="M45 0v223h-76v94h76v381h180q70 0 132 -27.5t108 -74.5t72.5 -111t26.5 -136t-26.5 -135.5t-72.5 -111t-108 -75t-132 -27.5h-180zM225 92q50 0 94 20t76.5 55t51.5 82t19 100t-19 100t-51.5 81.5t-76.5 54.5t-94 20h-87v-288h76v-94h-76v-131h87z" />
    <glyph glyph-name="dcroat" unicode="&#x111;" horiz-adv-x="575" 
d="M436 50q-33 -28 -74.5 -43.5t-88.5 -15.5q-53 0 -97 20t-75.5 55t-48.5 82t-17 100t17 100t48.5 82t75.5 55t97 20q47 0 88.5 -15.5t74.5 -42.5v193l31 58h105v-93h-42v-605h-94v50zM273 83q32 0 60.5 13.5t49.5 36.5t33.5 53t12.5 62t-12.5 62t-33.5 53t-49.5 36.5
t-60.5 13.5t-59 -13.5t-46.5 -36.5t-30.5 -53t-11 -62t11 -62t30.5 -53t46.5 -36.5t59 -13.5z" />
    <glyph glyph-name="dotlessi" unicode="&#x131;" horiz-adv-x="258" 
d="M76 497h94v-497h-94v497z" />
    <glyph glyph-name="Lslash" unicode="&#x141;" horiz-adv-x="557" 
d="M139 698v-376l105 80v-90l-105 -80v-138h383v-94h-477v160l-50 -38v90l50 38v448h94z" />
    <glyph glyph-name="lslash" unicode="&#x142;" horiz-adv-x="209" 
d="M-2 212l67 51v435h93v-364l89 68v-90l-89 -68v-244h-93v173l-67 -51v90z" />
    <glyph glyph-name="OE" unicode="&#x152;" horiz-adv-x="1136" 
d="M716 349q0 -74 -26.5 -139t-72.5 -113.5t-107.5 -76.5t-131.5 -28t-131.5 28t-107.5 76.5t-72.5 113.5t-26.5 139t26.5 139t72.5 113.5t107.5 76.5t131.5 28t131.5 -28t107.5 -76.5t72.5 -113.5t26.5 -139zM618 349q0 55 -19 103t-51.5 84t-76 56.5t-93.5 20.5
t-93.5 -20.5t-76 -56.5t-51.5 -84t-19 -103t19 -103t51.5 -84t76 -56.5t93.5 -20.5t93.5 20.5t76 56.5t51.5 84t19 103zM1102 698v-94h-384v-287h281v-94h-281v-129h384v-94h-477v698h477z" />
    <glyph glyph-name="oe" unicode="&#x153;" horiz-adv-x="1169" 
 />
    <glyph glyph-name="Scaron" unicode="&#x160;" horiz-adv-x="526" 
d="M130 522q0 -21 9.5 -36t24 -25.5t32.5 -18t35 -12.5q22 -7 45.5 -13.5t48.5 -13.5q47 -13 90.5 -34.5t72.5 -63.5q26 -35 26 -97v-9q-8 -109 -71 -158t-166 -49q-58 0 -107.5 15.5t-85 46t-55.5 76t-20 104.5v14h93q7 -76 46.5 -118.5t118.5 -42.5q27 0 54.5 4.5t49 16.5
t35 32.5t13.5 52.5q0 25 -7.5 43t-21 31.5t-32 23.5t-39.5 18t-44 14.5t-48 11.5q-46 10 -89.5 29.5t-74.5 56.5q-28 34 -28 98q0 50 18.5 85t49 58t71 33.5t83.5 10.5q101 0 165 -52t69 -157h-93q-10 60 -44 87.5t-94 27.5q-22 0 -45 -4t-42 -14.5t-31 -28t-12 -43.5z
M195 886l67 -68h8l68 68h74l-90 -166h-111l-91 166h75z" />
    <glyph glyph-name="scaron" unicode="&#x161;" horiz-adv-x="465" 
d="M435 156q0 -41 -16.5 -72t-43.5 -51.5t-62 -30.5t-73 -10q-27 0 -55.5 3.5t-54.5 13.5t-47 27t-33 44q-20 39 -20 85l-1 11h93l1 -10q0 -16 5 -29q5 -18 16.5 -29.5t27.5 -17.5t33.5 -8t33.5 -2q15 0 32 3t31.5 10.5t24 19.5t9.5 31q0 21 -15 31q-9 7 -26.5 13t-43.5 13
l-91 22q-115 29 -115 123q0 41 15 70.5t40.5 49.5t59.5 29.5t71 9.5q56 0 101.5 -20t71.5 -71q5 -12 8.5 -21.5t4.5 -17.5q3 -15 3 -26v-11h-93l-1 10q-1 35 -27 52t-76 17q-13 0 -27.5 -3t-26.5 -9.5t-20 -17t-8 -26.5q0 -21 13 -30q5 -3 19.5 -8.5t44.5 -13.5l78 -20
q27 -7 52.5 -16.5t44.5 -25t30.5 -37.5t11.5 -54zM176 685l67 -68h8l68 68h74l-90 -166h-111l-91 166h75z" />
    <glyph glyph-name="Ydieresis" unicode="&#x178;" horiz-adv-x="540" 
d="M537 698l-221 -475v-223h-94v223l-221 475h94l161 -347h26l161 347h94zM316 853h94v-94h-94v94zM109 853h95v-94h-95v94z" />
    <glyph glyph-name="Zcaron" unicode="&#x17d;" horiz-adv-x="546" 
d="M501 698v-73l-328 -527v-4h328v-94h-456v68l328 533v3h-328v94h456zM196 886l67 -68h8l68 68h74l-90 -166h-111l-91 166h75z" />
    <glyph glyph-name="zcaron" unicode="&#x17e;" horiz-adv-x="450" 
d="M405 496v-94l-236 -307h236v-95h-360v95l236 307h-236v94h360zM135 685l67 -68h8l68 68h74l-90 -166h-111l-91 166h75z" />
    <glyph glyph-name="florin" unicode="&#x192;" horiz-adv-x="323" 
d="M444 744v-94h-284v-155h174v-95h-174v-400h-93v400h-84v95h84v249h377z" />
    <glyph glyph-name="circumflex" unicode="&#x2c6;" horiz-adv-x="362" 
d="M126 698h111l90 -166h-74l-68 68h-8l-67 -68h-75z" />
    <glyph glyph-name="caron" unicode="&#x2c7;" horiz-adv-x="418" 
d="M138 685l67 -68h8l68 68h74l-90 -166h-111l-91 166h75z" />
    <glyph glyph-name="breve" unicode="&#x2d8;" horiz-adv-x="344" 
d="M311 557q0 -45 -15 -72.5t-37 -42.5t-46.5 -20t-43.5 -5t-43.5 5t-46 20t-36.5 42.5t-15 72.5h73q0 -38 17.5 -52.5t50.5 -14.5q34 0 51 14.5t17 52.5h74z" />
    <glyph glyph-name="dotaccent" unicode="&#x2d9;" horiz-adv-x="260" 
d="M86 547h94v-94h-94v94z" />
    <glyph glyph-name="ring" unicode="&#x2da;" horiz-adv-x="251" 
d="M125 705q26 0 48.5 -10t39.5 -27t26.5 -39.5t9.5 -48.5t-9.5 -48.5t-26.5 -39.5t-39.5 -27t-48.5 -10t-48.5 10t-39.5 27t-27 39.5t-10 48.5t10 48.5t27 39.5t39.5 27t48.5 10zM174 580q0 21 -14.5 35.5t-34.5 14.5q-21 0 -35.5 -14.5t-14.5 -35.5t14.5 -35.5t35.5 -14.5
q20 0 34.5 14.5t14.5 35.5z" />
    <glyph glyph-name="ogonek" unicode="&#x2db;" horiz-adv-x="260" 
d="M-2 -134q0 45 28.5 70t73.5 31l54 7l-11 37l59 46h1l46 -157l-138 -14q-11 -1 -15 -7.5t-4 -12.5q0 -2 0.5 -7t7.5 -11.5t19 -6.5h138v-91h-140q-24 0 -45.5 9.5t-38 25t-26 36.5t-9.5 45z" />
    <glyph glyph-name="tilde" unicode="&#x2dc;" horiz-adv-x="402" 
d="M289 543q-36 0 -61 14.5t-43.5 30.5t-30 24.5t-19.5 8.5q-7 0 -13 -3q-12 -6 -16.5 -17t-4.5 -22.5t2 -20.5t3 -11l-73 -8q-2 16 -2 32q0 11 1.5 29t11 39t29.5 34t53 13q26 0 46 -12.5t37.5 -28t33 -28t31.5 -12.5q8 0 16 4q9 5 10 13.5t1 14.5t-1 15.5t-3 17t-2 9.5
q0 3 2 3l70 7q3 -26 3.5 -40t0.5 -15q0 -24 -7.5 -44.5t-25 -33.5t-49.5 -13z" />
    <glyph glyph-name="hungarumlaut" unicode="&#x2dd;" horiz-adv-x="478" 
d="M235 706v-8l-139 -131h-71l99 139h111zM422 706v-8l-139 -131h-71l99 139h111z" />
    <glyph glyph-name="uni03BC" unicode="&#x3bc;" horiz-adv-x="623" 
 />
    <glyph glyph-name="endash" unicode="&#x2013;" horiz-adv-x="500" 
d="M436 246h-363v94h363v-94z" />
    <glyph glyph-name="emdash" unicode="&#x2014;" horiz-adv-x="1000" 
d="M942 246h-869v94h869v-94z" />
    <glyph glyph-name="quoteleft" unicode="&#x2018;" horiz-adv-x="175" 
d="M197 705l-87 -160h-102l87 160h102z" />
    <glyph glyph-name="quoteright" unicode="&#x2019;" horiz-adv-x="175" 
d="M174 705l-87 -229h-102l87 229h102z" />
    <glyph glyph-name="quotesinglbase" unicode="&#x201a;" horiz-adv-x="250" 
d="M231 93l-87 -200h-102l88 200h101z" />
    <glyph glyph-name="quotedblleft" unicode="&#x201c;" horiz-adv-x="359" 
d="M197 705l-87 -160h-102l87 160h102zM364 705l-87 -160h-102l87 160h102z" />
    <glyph glyph-name="quotedblright" unicode="&#x201d;" horiz-adv-x="359" 
d="M197 705l-87 -229h-102l87 229h102zM364 705l-87 -229h-102l87 229h102z" />
    <glyph glyph-name="quotedblbase" unicode="&#x201e;" horiz-adv-x="416" 
d="M231 93l-87 -200h-102l88 200h101zM388 93l-87 -200h-102l88 200h101z" />
    <glyph glyph-name="dagger" unicode="&#x2020;" horiz-adv-x="260" 
d="M284 603v-94h-104v-307h-94v307h-105v94h105v94h94v-94h104z" />
    <glyph glyph-name="daggerdbl" unicode="&#x2021;" horiz-adv-x="260" 
d="M83 698h94v-193h119v-94h-119v-89h119v-94h-119v-360h-94v360h-119v94h119v89h-119v94h119v193z" />
    <glyph glyph-name="bullet" unicode="&#x2022;" horiz-adv-x="376" 
d="M267 246h-143v142h143v-142z" />
    <glyph glyph-name="ellipsis" unicode="&#x2026;" horiz-adv-x="804" 
d="M87 94h94v-94h-94v94zM355 94h94v-94h-94v94zM623 94h94v-94h-94v94z" />
    <glyph glyph-name="perthousand" unicode="&#x2030;" horiz-adv-x="1153" 
d="M644 698l-385 -698h-102l385 698h102zM201 673q32 0 59.5 -12t47.5 -32.5t32 -48t12 -59.5q0 -31 -12 -58.5t-32 -48t-47.5 -32.5t-59.5 -12q-31 0 -58.5 12t-48 32.5t-32.5 48t-12 58.5q0 32 12 59.5t32.5 48t48 32.5t58.5 12zM201 461q25 0 42.5 17.5t17.5 42.5
q0 26 -17.5 43.5t-42.5 17.5t-42.5 -17.5t-17.5 -43.5q0 -25 17.5 -42.5t42.5 -17.5zM607 330q32 0 59.5 -12t47.5 -32.5t32 -48t12 -59.5q0 -31 -12 -58.5t-32 -48t-47.5 -32.5t-59.5 -12q-31 0 -58.5 12t-48 32.5t-32.5 48t-12 58.5q0 32 12 59.5t32.5 48t48 32.5t58.5 12
zM957 330q32 0 59.5 -12t47.5 -32.5t32 -48t12 -59.5q0 -31 -12 -58.5t-32 -48t-47.5 -32.5t-59.5 -12q-31 0 -58.5 12t-48 32.5t-32.5 48t-12 58.5q0 32 12 59.5t32.5 48t48 32.5t58.5 12zM547 178q0 -25 17.5 -42.5t42.5 -17.5t42.5 17.5t17.5 42.5q0 26 -17.5 43.5
t-42.5 17.5t-42.5 -17.5t-17.5 -43.5zM897 178q0 -25 17.5 -42.5t42.5 -17.5t42.5 17.5t17.5 42.5q0 26 -17.5 43.5t-42.5 17.5t-42.5 -17.5t-17.5 -43.5z" />
    <glyph glyph-name="guilsinglleft" unicode="&#x2039;" horiz-adv-x="310" 
d="M139 357l136 -248h-102l-136 248l136 248h102z" />
    <glyph glyph-name="guilsinglright" unicode="&#x203a;" horiz-adv-x="310" 
d="M139 605l136 -248l-136 -248h-102l136 248l-136 248h102z" />
    <glyph glyph-name="fraction" unicode="&#x2044;" horiz-adv-x="536" 
d="M511 698l-385 -698h-102l385 698h102z" />
    <glyph glyph-name="Euro" unicode="&#x20ac;" 
d="M521 698v-698h-436v698h436zM180 95h246v508h-246v-508zM120 505h332v-94h-332v94zM120 322h332v-94h-332v94z" />
    <glyph glyph-name="trademark" unicode="&#x2122;" horiz-adv-x="1327" 
d="M513 698v-94h-192v-604h-94v604h-192v94h478zM1282 698v-698h-95v604h-12l-160 -476h-158l-157 476h-12v-604h-95v698h182l155 -475h11l160 475h181z" />
    <glyph glyph-name="minus" unicode="&#x2212;" 
d="M496 246h-433v94h433v-94z" />
    <glyph glyph-name="fi" unicode="&#xfb01;" horiz-adv-x="602" 
d="M568 744v-94h-284v-155h267v-495h-93l-1 400h-173v-400h-93v400h-84v95h84v249h377z" />
    <glyph glyph-name="fl" unicode="&#xfb02;" horiz-adv-x="602" 
d="M383 744v-94h-284v-155h174v-95h-174v-400h-93v400h-84v95h84v249h377zM345 744h93v-744h-93v744z" />
    <glyph glyph-name="none" horiz-adv-x="333" 
d="M515 556h5v102l-2 1q-16 8 -39 14.5t-50 11.5t-56.5 8t-59.5 3q-38 0 -77.5 -5.5t-71.5 -22t-52.5 -45.5t-20.5 -76q0 -33 11 -56.5t31 -40.5h377q14 -12 25 -28q6 -9 10 -19h-151q4 -1 8 -1q27 -7 40 -16t15 -19.5t2 -18.5q0 -24 -27 -39h116l-4 -12q-9 -27 -35 -49
q20 -17 32 -41t12 -60q0 -46 -22 -75t-56.5 -45t-75.5 -21.5t-80 -5.5q-25 0 -53 2.5t-54 7.5t-49.5 12t-39.5 15l-2 1v102h6l36 -18q27 -14 72 -21.5t91 -7.5q36 0 67.5 5t48.5 16q17 12 17 32q0 9 -2 19.5t-15.5 20.5t-43 16.5t-84.5 6.5q-37 0 -77 4t-72 18t-53 42
q-11 15 -17 36h-239v94h244q1 3 2 5q11 24 31 42h-277v248h979v-94h-105v-94h105v-60h94v-47h-94v-94h94v-106h-94v106h-287q5 20 5 41q0 31 -8 53h290v47h-325q-10 7 -20 13q-28 14 -60 18.5t-60 4.5h-48q-52 0 -80 7t-41 17t-15 21t-2 19q0 19 16 29.5t38 15.5t44 6t35 1
q45 0 89.5 -7t70.5 -20zM12346 698h241l87 -160h102l-87 160h4003l-87 -160h102l35 66h7l37 -66h102l-88 160h678l-87 -160h102l87 160h84l-87 -160h102l86 160h644l-87 -160h101l88 160h84l-87 -160h101l88 160h4989l116 -248h93l22 -47h-93l40 -86h-122v-8h424v-85h-165
v-65h165v-94h-165v-65h-94v65h-165v94h165v65h-165v85h-2369v94h2451l-22 47h-2295v151h-134v96h-94v-96h-135v-151h93v-47h-93v-94h94v-108h41v108h-41l-1 94h42v47h-42l-1 56h43v-56h94v-47h-94v-94h94v-108h41v70h93v-165h-134v-106h-94v106h-135v203h-2123v94h194
q2 21 10 39q1 4 4 8h-658l20 37h-75l-37 -37h92l-26 -47h-201l45 -82h111l45 82h274v19h202v-19h-202v-94h202v-88h-202v88h-1641l-26 48l25 46h626l-25 47h-575l85 155h-102l-85 -155h102l-26 -47h-102l-25 -46l26 -48h102l110 -200h-102l-110 200h-2720q-1 47 -16 90l-2 4
h2737l26 47h-2788q-9 14 -21 27q-31 33 -74.5 54t-96.5 25v85h-93v-84h-57v84h-94v-85q-56 -4 -100 -24.5t-74 -53.5q-12 -13 -22 -28h119q-19 -9 -31 -24q-9 -11 -15 -23h-97q0 -1 -1 -3q-16 -43 -16 -91h95v-1q0 -74 29.5 -109.5t82.5 -47.5h3v-91q-50 7 -89 29t-66 55
t-41 74.5t-14 87.5v3h-76l4 10q10 28 10 64v20h79q10 25 24 47h-108v3l-32 -3h32q4 -23 5 -47h-96v-3q1 -10 1 -20q0 -7 -1 -18.5t-14 -17.5q-9 -5 -22 -5q-22 0 -43 17t-44 38q-5 5 -10 9h133q-2 15 -5 28q-1 6 -1 9q0 4 2 4l63 6h-1323v25q0 58 7.5 87t23.5 40.5t40 11.5
h57v84zM4725 698v-159h93v159h360l17 -130l-80 105l-38 -38l107 -82l-134 19v-54l134 19l-107 -83l4 -4h59l-25 -33l-34 33h-507q-15 44 -44 74q-47 47 -123 50h-6q-39 0 -68.5 -13.5t-51 -38t-35.5 -58.5l-6 -14h104l-4 -8q-8 -15 -17 -39h-100q-1 -5 -3 -11h-244q1 6 2 11
h245q8 24 17 47h-241q11 15 26 26q38 25 107 31v93h-14q-101 0 -162 -55q-41 -38 -61 -95h104q-14 -19 -21 -47h-95q-1 -5 -2 -11h-63v-83h828v-11h-61q-14 -86 -68.5 -130.5t-135.5 -49.5v93q48 9 73.5 28.5t34.5 58.5h-196q-31 -112 -80 -157t-119 -45h-12q-19 0 -51 6
t-64 27t-57 61t-31 108h-61v11h-745q4 19 4 40q0 26 -7 51q-1 1 -2 3h815q4 25 12 47h-841l61 61l-66 67l-65 -65q-22 13 -47 20.5t-52 7.5t-51.5 -7.5t-46.5 -20.5l-64 65l-66 -67l61 -61h336l-4 -4q11 -20 18 -43h-367v-2q-8 -25 -8 -52q0 -21 4 -40h376q-2 -6 -3 -11
q-8 -25 -20 -47l65 -66l-66 -65l-66 65q-22 -13 -46.5 -20t-51.5 -7q-26 0 -50.5 7t-46.5 19l-65 -64l-66 65l64 65q-13 22 -20 47l-4 12h-548v89h-226q0 2 -1 5h779q8 23 20 44l-3 3h-804q-2 17 -2 33v10q2 57 36 81t87 24q35 0 69 -10t56 -25l39 -26l54 75l-38 29
q-35 26 -80.5 39.5t-92.5 13.5q-96 0 -157.5 -50t-66.5 -151v-22v-21h96q0 -1 1 -2q3 -23 7 -45h-98q3 -15 7 -29q9 -33 18 -65h300v-6h-200q6 -16 16 -46.5t16.5 -59t6.5 -52.5q0 -5 -1 -21t-19 -28v-2h307v-94h-463v94h66q9 6 13 15t4 21q0 4 -1 15.5t-8 40.5t-21 71
l-16 52h-263v48h102v46h136q-4 23 -6 47h-130v2h-102v58h104v94h-104v94h1864v-160h93v160h69v-160h94v160h1019zM10440 94h117v-94h-211v309h-207v94h207v47h-207v248h207v-248h94v-47h-94v-94h94v-215zM-841 698v-248h697v-47h-697v-94h697v-309h-697v309h-540v93h-103v1
h643v47h-643v55h-94v-55h94v-47h-94v-1h-102v-93h299v-1h-103v-103h-94v103h-102v1h-29884v94h29986v47h-30040v248h29206v-93h399v-111h95v204h1077zM-34490 202v107h-468v94h468v47h-468v248h468v-248h497v-47h-497v-94h497v-107h-497zM-64043 357v-48h93v-106h-93v106
h-564v94h461v47h-461v60h104v94h-104v94h564v-94h-106v-94h106v-58h-103v-2h298v-47h-298v-46h103zM-32849 605v-61h-204v-94h94v-47h-94v-94h-940v94h940v47h-283q16 14 27 35q15 27 15 72h-74q0 -38 -17 -52.5t-51 -14.5q-33 0 -50.5 14.5t-17.5 52.5h-73q0 -45 15 -72
q11 -21 27 -35h199l-10 -8q-22 -15 -46.5 -20t-43.5 -5t-43 5t-46 20l-10 8h-458v248h940v-93h204zM-35052 0v309h-58v94h58v47h-58v248h58v-248h94v-47h-94v-94h94v-309h-94zM-54805 0v94h116v215h-407v94h407v47h-407v155h117v93h174v-93h116v-155h94v-47h-94v-94h94v-309
h-210zM-41619 403h73l22 47h-117l-115 248h348l-116 -248h94l-22 -47h-94l-24 -52h-25zM-54595 698h1358q-49 0 -80 -9.5t-48.5 -35t-23.5 -70t-6 -115.5v-18h77v-15q-1 -17 -4 -32h-80v0q-7 -7 -16 -7h-62v-87h154q1 -2 2 -3q5 -18 5.5 -38.5t0.5 -39.5q0 -60 7.5 -90
t23 -42.5t39.5 -12.5h58v-83h-47q-46 0 -76.5 9t-48.5 34t-25.5 70t-7.5 116v36q0 24 -7 30t-16 6h-62v8h-1115v94h1193q7 7 7 32v15h-1200v248zM-32103 309v94h391v47h-391v94h-103v2l103 59v93h376q-10 -37 -25 -59.5t-34 -33.5t-41 -14.5t-46 -3.5v-94q5 0 25 0.5t45 6
t49.5 16.5t38.5 32h3v-98h94v-47h-255v-94h309v-1h-309v1h-230zM-35205 0v304v5h-2253l7 22l-59 46h-1l-20 -68h73l-4 -15l54 -7q45 -5 73.5 -30.5t28.5 -70.5q0 -24 -9.5 -45t-26 -36.5t-38 -25t-45.5 -9.5h-140v91h138q12 0 19 6.5t7.5 11.5t0.5 7q0 6 -4 12.5t-15 7.5
l-138 14l26 89h-1983l-29 52l23 42h3098v2h434v-2h-434v-92h434v92h628q-19 14 -33 37q-3 4 -5 10h-4096l87 159h-101l-88 -159h102l-26 -47h-102l-23 -42l29 -52h102l107 -196h-101l-108 196h-87l-29 52l23 42h87l26 47h-87l88 159h-102l-88 -159h102l-26 -47h-102l-23 -42
l29 -52h102l108 -196h-102l-108 196h-1565v8h-122l40 86h1641l26 47h-1645l116 248h6109q-60 0 -99 -19t-62.5 -47.5t-32.5 -62t-9 -62.5q0 -34 10 -57h288v-47h-250q2 -2 5 -3q22 -15 48.5 -23t49 -16t37.5 -20q13 -12 15 -32h95v-309h-95zM-60358 391h55l-2 12h410v47
h-311l4 4l-108 83l135 -19v54l-135 -19l108 82l-39 38l-80 -104l18 129h4210v-248h94v-47h-94v-94h94v-215h509v-94h-603v309h-337v94h337v47h-399l-403 157v-98l152 -59h251l62 -24v-23h-191l98 -38v-28l-73 -28h166v-34l-465 -179v98l299 115h-491v23h-299v-23h299v-72
h-299v72h-582l-73 28v28l98 38h557v47h-435l152 59v98l-403 -157h251l-122 -47h-191v-94h166l299 -115v-98l-465 179v34h-323v31h-433v-31h433v-63h-433v63h-809v93h-102v1h1667v23l62 24h-1729v55h-94v-55h94v-47h-94v-1h-103v-93h299v-1h-102v-103h-94v103h-103v1h-892v83
h-59q-1 6 -2 11h595l6 47h-46l55 71l-9 -71h39l6 -47h-51zM-37574 548v94h-314v-94h314zM-36254 606v-95h95v95h-95zM-55612 155l-18 35q-23 -17 -51 -26t-60 -9q-40 0 -74.5 15t-60.5 41t-41 61q-8 18 -12 37h-70v94h75q3 9 7 18q7 15 15 29h-97v155h509v-155h93v-47h-93
v-94h93v-154h-215zM-55924 403q-8 -27 -8 -57q0 -19 3 -37h380v-60h59v60h-59v37q0 30 -8 57h67v47h-89q-11 17 -26 32q-26 26 -61 41t-75 15t-74.5 -15t-60.5 -41q-15 -15 -26 -32h323q8 -14 15 -29q4 -9 7 -18h-367zM-60311 450l-10 71l55 -71h60l-35 -33l-25 33h-45z
M-44163 450v56h41v-56h93v-18h-93v18h-41zM-46073 486q3 -8 5 -14t4 -14q1 -4 1 -8h87v-10q0 -20 -5 -37h-340v-12v-15q0 -21 2 -44l93 10q-1 4 -3.5 12.5t-4 17.5t-1.5 17t5 11q3 2 8 2q7 0 19 -7.5t31.5 -21t42.5 -25.5t50 -12q39 0 61 14.5t32 37.5q3 7 5 15h1589v47
h-1584q-1 23 -4 47zM-46125 450q-1 0 -1 1q-18 15 -41 28t-55 13q-38 0 -59 -14q-17 -11 -26 -28h182q16 -14 30 -24q8 -7 16 -7q5 0 9 2q8 6 8 16q0 6 -1 13h-62zM-47096 419h8l31 31h-70l-36 37h-75l20 -37h91zM-57087 389v14h466l-122 47h-344v33h-299v-33h299v-47h-299
v-14h299zM-61131 479q42 -2 64 -29h105q8 -22 11 -47h-95q1 -5 2 -11h-173q2 6 4 11h167q-6 29 -21 47h-125q7 12 15 19q10 8 19 9t17 1h10zM-47487 473h-102l-13 -23h102l-25 -47h-208l50 -91h108l50 91h333l-26 47h-282zM-47758 450h103l23 -43h7l23 43h-53l-13 23h-103z
M-51508 467v-17h93v-47h-93v-94h93v-92h-93v92h-57v94h57v47h-57v17h57zM-51801 309q0 58 19 94h123v47h-77q31 15 77 15v-15h94v-47h-94v-94h94v-92h-94v92h-142zM-51391 151q25 6 46.5 17.5t37 29.5t24 44.5t8.5 63.5v3h-140v94h120q-6 11 -13 20q-14 17 -35 27h-72v14
q43 0 72 -14h120q15 -22 25 -47h-97q19 -37 20 -94h95v-3q0 -46 -15 -87.5t-42.5 -74.5t-66.5 -55t-87 -29v91zM-53326 309q-5 15 -16 25q-13 11 -36 11v8q24 0 36.5 12t17.5 30l2 8h930q12 17 30 29q27 17 72 17q35 0 63 -17q21 -13 40 -29h-205q-6 -8 -10 -17
q-14 -29 -16 -65q-1 -6 -1 -12h95v-6q0 -16 2.5 -28.5t3.5 -14.5l-99 -11q-2 23 -2 45v15h-907zM-65332 309q-2 1 -4 3q-12 9 -14 19.5t-2 17.5t2 17t15 19.5t42 16.5q3 0 7 1h144q-26 5 -71 5q-46 0 -73 -5h-150q-9 -23 -9 -54q0 -22 4 -40h109q12 -8 35 -13q26 -7 75 -7
q75 0 110 16l8 4h-228zM-52324 309q1 13 6 25q6 15 22 23q7 4 16 4q18 0 37 -16q18 -16 41 -36h230q-10 -22 -29 -37q-24 -18 -68 -18t-75.5 16.5t-55.5 37.5q-1 0 -2 1h-122zM-61342 298h-219q3 -21 9.5 -40t18.5 -34t30.5 -24t44.5 -9q14 0 28.5 1.5t29.5 11t29.5 31.5
t28.5 63zM-36159 109h-95v94h95v-94zM-50888 161l-89 -161h-101l88 161h102zM-50649 161h102l-88 -161h-102zM-50464 161h102l-87 -161h-101zM-67216 0v94h299v-94h-299zM-54040 0v94h434v-94h-434zM-32262 605l-140 -77v-78h299v-47h-299v-94h-353v94h558v47h-558v248h353
v-93h140z" />
    <glyph glyph-name="_1" horiz-adv-x="333" 
 />
    </font>
</defs>
</svg>
