<?xml version="1.0" standalone="no"?>
<!DOCTYPE svg PUBLIC "-//W3C//DTD SVG 1.1//EN" "http://www.w3.org/Graphics/SVG/1.1/DTD/svg11.dtd" >
<svg xmlns="http://www.w3.org/2000/svg" xmlns:xlink="http://www.w3.org/1999/xlink" version="1.1">
<metadata>
Created by FontForge 20201107 at Thu Apr 29 21:28:14 2021
 By 
</metadata>
<defs>
<font id="Barracuda-Bold" horiz-adv-x="586" >
  <font-face 
    font-family="Barracuda"
    font-weight="700"
    font-stretch="normal"
    units-per-em="1000"
    panose-1="0 0 0 0 0 0 0 0 0 0"
    ascent="800"
    descent="-200"
    x-height="504"
    cap-height="700"
    bbox="-32284 -242 33423 901"
    underline-thickness="50"
    underline-position="-125"
    unicode-range="U+000D-FB02"
  />
<missing-glyph horiz-adv-x="250" 
 />
    <glyph glyph-name=".notdef" horiz-adv-x="250" 
 />
    <glyph glyph-name=".null" horiz-adv-x="0" 
 />
    <glyph glyph-name=".null" horiz-adv-x="0" 
 />
    <glyph glyph-name="uni000D" unicode="&#xd;" horiz-adv-x="250" 
 />
    <glyph glyph-name="space" unicode=" " horiz-adv-x="260" 
 />
    <glyph glyph-name="exclam" unicode="!" horiz-adv-x="294" 
d="M85 700h118v-538h-118v538zM85 116h119v-116h-119v116z" />
    <glyph glyph-name="quotedbl" unicode="&#x22;" horiz-adv-x="430" 
d="M77 700h118v-179h-118v179zM237 700h119v-179h-119v179z" />
    <glyph glyph-name="numbersign" unicode="#" horiz-adv-x="775" 
d="M123 126h-101v115h134l19 67h-83v115h116l79 277h124l-79 -277h166l79 277h124l-79 -277h119v-115h-151l-20 -67h102v-115h-134l-36 -126h-125l37 126h-167l-35 -126h-124zM446 241l20 67h-167l-18 -67h165z" />
    <glyph glyph-name="dollar" unicode="$" horiz-adv-x="566" 
d="M68 264h116l1 -11q6 -67 41 -106q17 -20 45 -30v213q-38 10 -73 26q-43 20 -74 57q-19 22 -24.5 49.5t-5.5 52.5q0 48 18 84t49.5 60t73.5 36q17 5 36 8v40h118v-41q67 -12 111 -51q63 -56 68 -158l1 -11h-116l-2 9q-9 51 -37 77q-11 9 -25 15v-167q2 0 4 -1
q35 -10 70.5 -24.5t64 -38t46 -57.5t17.5 -84q0 -15 -2.5 -31t-5.5 -31q-11 -45 -38.5 -77t-69.5 -54q-31 -16 -64 -21l-22 -2v-79h-118v84q-42 8 -80 26q-69 33 -103 109q-13 30 -16.5 58.5t-3.5 58.5v12zM271 586q-13 -4 -23 -10q-16 -9 -25.5 -23t-9.5 -35
q0 -23 13.5 -38t38.5 -26q3 -1 6 -3v135zM389 113q24 4 43 15q18 10 29 27.5t11 43.5q0 19 -5.5 35.5t-19.5 28.5q-24 22 -58 35v-185z" />
    <glyph glyph-name="percent" unicode="%" horiz-adv-x="828" 
d="M547 700h129l-391 -700h-129zM52 520q0 31 12 59.5t33 50.5t50.5 35.5t65.5 13.5t66 -13t51 -35t33 -51t12 -60q0 -30 -12 -58.5t-33.5 -50.5t-51 -35t-65.5 -13q-35 0 -64.5 13t-51 35t-33.5 50.5t-12 58.5zM213 474q20 0 33.5 13.5t13.5 32.5q0 20 -13.5 34t-33.5 14
t-33 -14t-13 -34q0 -19 13.5 -32.5t32.5 -13.5zM449 184q0 31 12 59.5t33 50.5t51 35.5t66 13.5t65.5 -13t50.5 -35t33 -51t12 -60q0 -30 -12 -58.5t-33.5 -50.5t-51 -35t-64.5 -13q-36 0 -65.5 13t-51 35t-33.5 50.5t-12 58.5zM611 138q19 0 32.5 13.5t13.5 32.5
q0 20 -13 34t-33 14t-33 -14t-13 -34q0 -19 13 -32.5t33 -13.5z" />
    <glyph glyph-name="ampersand" unicode="&#x26;" horiz-adv-x="750" 
d="M419 356h236v-114h-48q-2 -46 -20 -90.5t-50.5 -79.5t-77.5 -56.5t-101 -21.5q-57 0 -103.5 22.5t-79 59.5t-50 83.5t-17.5 94.5q0 38 10 74.5t30 68.5v304h419v-193h-118v79h-182v-90q42 18 91 18h13v-112h-13q-30 0 -54 -13t-41 -34.5t-26 -48t-9 -53.5t9 -53.5t26 -48
t41 -34.5t54 -13q29 0 52 12t39.5 31.5t26 44t11.5 49.5h-68v114z" />
    <glyph glyph-name="quotesingle" unicode="'" horiz-adv-x="250" 
d="M64 700h118v-179h-118v179z" />
    <glyph glyph-name="parenleft" unicode="(" horiz-adv-x="328" 
d="M109 0l-3 9q-22 84 -37.5 168.5t-15.5 172.5t15.5 172t37.5 169l3 9h122l-4 -15q-25 -82 -40 -166t-15 -169t15 -169t40 -166l4 -15h-122z" />
    <glyph glyph-name="parenright" unicode=")" horiz-adv-x="328" 
d="M71 0l4 15q25 82 40 166t15 169t-15 169t-40 166l-4 15h122l3 -9q22 -85 37.5 -169t15.5 -172t-15.5 -172.5t-37.5 -168.5l-3 -9h-122z" />
    <glyph glyph-name="asterisk" unicode="*" horiz-adv-x="414" 
d="M141 514l-101 -14v79l100 -13l-80 59l57 57l59 -75l-12 93h83l-13 -92l59 74l58 -57l-80 -59l100 13v-79l-101 14l81 -61l-59 -56l-59 75l14 -93h-83l12 93l-59 -75l-57 56z" />
    <glyph glyph-name="plus" unicode="+" horiz-adv-x="425" 
d="M54 413h102v100h118v-100h100v-114h-100v-100h-118v100h-102v114z" />
    <glyph glyph-name="comma" unicode="," horiz-adv-x="259" 
d="M114 114h127l-98 -178h-129z" />
    <glyph glyph-name="hyphen" unicode="-" horiz-adv-x="345" 
d="M63 353h227v-114h-227v114z" />
    <glyph glyph-name="period" unicode="." horiz-adv-x="209" 
d="M45 115h118v-115h-118v115z" />
    <glyph glyph-name="slash" unicode="/" horiz-adv-x="570" 
d="M416 700h129l-392 -700h-129z" />
    <glyph glyph-name="zero" unicode="0" horiz-adv-x="545" 
d="M45 700h455v-700h-455v700zM381 116v468h-217v-468h217z" />
    <glyph glyph-name="one" unicode="1" horiz-adv-x="321" 
d="M19 115h83v418h-83v114h42q17 0 29 12t12 29v12h117v-585h82v-115h-282v115z" />
    <glyph glyph-name="two" unicode="2" horiz-adv-x="544" 
d="M45 331h254q27 0 50 10.5t39.5 28.5t26 41t9.5 48t-9.5 48t-26 40.5t-39.5 28t-50 10.5h-254v114h254q54 0 98 -20.5t75.5 -54.5t48.5 -77.5t17 -88.5t-17 -89t-48.5 -78t-75.5 -55t-98 -21h-136v-101h336v-115h-454v331z" />
    <glyph glyph-name="three" unicode="3" horiz-adv-x="510" 
d="M45 114h180q27 0 50 10.5t39.5 28.5t25.5 41t9 48t-9 48t-25.5 40.5t-39.5 28t-50 10.5h-108v115h229v101h-301v115h419v-331h-36q18 -29 27 -61.5t9 -65.5q0 -46 -17 -89.5t-48.5 -77.5t-75.5 -54.5t-98 -20.5h-180v114z" />
    <glyph glyph-name="four" unicode="4" horiz-adv-x="511" 
d="M45 700h118v-460h184v460h118v-700h-118v126h-302v574z" />
    <glyph glyph-name="five" unicode="5" horiz-adv-x="545" 
d="M45 115h223q27 0 50.5 10.5t41 28t27 40.5t9.5 48t-9.5 48t-27 40.5t-41 28t-50.5 10.5h-223v331h420v-115h-301v-101h104q54 0 99 -20.5t76.5 -54.5t49 -77.5t17.5 -89.5t-17.5 -89.5t-49.5 -77.5t-76.5 -54.5t-98.5 -20.5h-223v115z" />
    <glyph glyph-name="six" unicode="6" horiz-adv-x="549" 
d="M148 440q58 34 128 34q54 0 99 -20t76.5 -54t49 -77t17.5 -90t-18 -90.5t-51 -76.5t-78 -53t-99 -20t-98.5 20t-76.5 54t-49.5 77.5t-17.5 89.5v466h419v-114h-301v-146zM145 234q0 -26 10 -49t27.5 -40.5t41.5 -28t52 -10.5q27 0 50.5 10.5t40.5 28.5t26.5 41t9.5 48
q0 26 -10 49t-27.5 40.5t-41.5 27.5t-52 10q-27 0 -50 -10.5t-40.5 -28t-27 -40.5t-9.5 -48z" />
    <glyph glyph-name="seven" unicode="7" horiz-adv-x="500" 
d="M333 585h-297v115h419v-106l-165 -594h-120z" />
    <glyph glyph-name="eight" unicode="8" horiz-adv-x="549" 
d="M65 700h419v-345l3 -3q2 -4 4 -6q4 -8 7 -15t6 -15q14 -42 14 -83q0 -47 -18 -90.5t-50.5 -77t-78 -53.5t-99.5 -20t-98.5 20t-76.5 54t-49.5 77.5t-17.5 89.5q0 43 15 83q6 15 13 29l4 6l3 3v346zM183 456q22 10 45.5 14t47.5 4q47 0 90 -18v129h-183v-129zM144 233
q0 -26 10 -49t28 -40.5t42 -27.5t52 -10q27 0 50.5 10.5t40.5 28t26.5 40.5t9.5 48q0 26 -10 49t-27.5 40.5t-41.5 27.5t-52 10q-27 0 -50.5 -10.5t-40.5 -28t-27 -40.5t-10 -48z" />
    <glyph glyph-name="nine" unicode="9" horiz-adv-x="568" 
d="M523 466v-466h-419v114h301v146q-57 -34 -124 -34q-55 0 -100.5 19.5t-77.5 53t-50 77t-18 91.5q0 46 18 89t50 76.5t76.5 54t97.5 20.5q55 0 100 -19.5t77.5 -53t50.5 -77t18 -91.5zM408 466q0 25 -9.5 48t-27 41t-40.5 28.5t-50 10.5q-29 0 -53 -10t-41 -27.5t-27 -41
t-10 -49.5q0 -25 9.5 -48t26.5 -40.5t40.5 -28t50.5 -10.5q28 0 52 10t41.5 27.5t27.5 40.5t10 49z" />
    <glyph glyph-name="colon" unicode=":" horiz-adv-x="293" 
d="M86 513h118v-115h-118v115zM86 115h118v-115h-118v115z" />
    <glyph glyph-name="semicolon" unicode=";" horiz-adv-x="307" 
d="M131 513h118v-115h-118v115zM142 114h128l-99 -178h-129z" />
    <glyph glyph-name="less" unicode="&#x3c;" horiz-adv-x="591" 
d="M57 432l484 185v-120l-367 -139v-12l367 -138v-120l-484 183v161z" />
    <glyph glyph-name="equal" unicode="=" horiz-adv-x="593" 
d="M124 513h353v-115h-353v115zM124 335h353v-114h-353v114z" />
    <glyph glyph-name="greater" unicode="&#x3e;" horiz-adv-x="591" 
d="M57 208l366 138v12l-366 139v120l484 -185v-161l-484 -183v120z" />
    <glyph glyph-name="question" unicode="?" horiz-adv-x="545" 
d="M193 298h13q21 0 35.5 -0.5t21.5 -0.5q14 0 28 1q4 0 14.5 3.5t16.5 6.5q39 20 59 57.5t20 79.5q0 27 -9 53.5t-25.5 48t-40.5 34.5t-54 13t-54 -13t-40.5 -34.5t-25.5 -48t-9 -53.5v-12h-121v12q0 48 17.5 94.5t50 83t78.5 59.5t104 23q57 0 103.5 -23t79 -59.5t50 -83
t17.5 -94.5q0 -43 -14.5 -85.5t-41.5 -78t-66 -60.5t-89 -33v-62h-118v172zM193 115h118v-115h-118v115z" />
    <glyph glyph-name="at" unicode="@" horiz-adv-x="914" 
d="M88 700h710v-550h-232l-15 29q-46 -29 -104 -29q-44 0 -81 16.5t-63.5 44t-41.5 63t-15 73.5t15 74t41.5 63.5t63.5 44t81 16.5t81 -16.5t64 -44t42 -63t15 -74.5v-82h32v321h-475v-471h501v-115h-619v700zM447 260q19 0 36 7.5t29.5 19.5t20 27.5t7.5 32.5t-7.5 32.5
t-20 27.5t-29.5 19t-36 7q-37 0 -62 -25.5t-25 -60.5q0 -17 6.5 -32.5t18.5 -27.5t28 -19.5t34 -7.5z" />
    <glyph glyph-name="A" unicode="A" horiz-adv-x="615" 
d="M202 700h210l191 -700h-123l-59 216h-229l-58 -216h-123zM390 331l-69 254h-29l-68 -254h166z" />
    <glyph glyph-name="B" unicode="B" horiz-adv-x="521" 
d="M45 700h235q44 0 80 -16.5t61.5 -44t39.5 -63t14 -72.5q0 -35 -11.5 -67.5t-35.5 -60.5h44l3 -376h-430v700zM280 422q35 0 57.5 24.5t22.5 57.5q0 16 -6 31t-16.5 26t-25 18t-31.5 7h-118v-164h117zM356 115l-2 192h-191v-192h193z" />
    <glyph glyph-name="C" unicode="C" horiz-adv-x="650" 
d="M624 95l-7 -6q-47 -47 -107.5 -72t-129.5 -25q-79 0 -142.5 31t-108.5 81.5t-69.5 114.5t-24.5 130t24.5 130t69.5 114.5t108.5 81.5t142.5 31q69 0 129.5 -25t107.5 -71l7 -7l-78 -89l-10 10q-31 32 -71 50.5t-85 18.5q-51 0 -92.5 -21t-71 -55.5t-45 -78.5t-15.5 -89
t15.5 -88.5t45 -78t71 -56t92.5 -21.5q45 0 85 18.5t71 50.5l10 10z" />
    <glyph glyph-name="D" unicode="D" horiz-adv-x="617" 
d="M45 700h190q78 0 141.5 -30t109.5 -79t71 -112t25 -129t-25 -129t-71 -112t-109.5 -79t-141.5 -30h-190v700zM235 113q51 0 92.5 20.5t71 53.5t46 75.5t16.5 87.5t-16.5 87.5t-46 75.5t-71 53t-92.5 20h-72v-473h72z" />
    <glyph glyph-name="E" unicode="E" horiz-adv-x="576" 
d="M45 700h495v-115h-378v-254h277v-115h-277v-101h378v-115h-495v700z" />
    <glyph glyph-name="F" unicode="F" horiz-adv-x="577" 
d="M45 700h497v-115h-378v-254h256v-115h-256v-216h-119v700z" />
    <glyph glyph-name="G" unicode="G" horiz-adv-x="770" 
d="M368 330h357v-330h-113v142h-12q-2 -20 -6.5 -32.5t-16.5 -29.5q-35 -49 -84.5 -69t-111.5 -20q-79 0 -143 31t-109 81.5t-69 114.5t-24 130t24 130t69 114.5t109 81.5t143 31q59 0 110 -18t93 -49.5t73 -74t48 -90.5l6 -16h-130l-4 7q-26 56 -78 92t-118 36
q-51 0 -92.5 -21.5t-70.5 -56t-45 -78t-16 -88.5t16 -88.5t45 -78t70.5 -56t92.5 -21.5q62 0 110.5 31t77.5 80h-201v115z" />
    <glyph glyph-name="H" unicode="H" 
d="M45 700h119v-369h259v369h118v-700h-118v216h-259v-216h-119v700z" />
    <glyph glyph-name="I" unicode="I" horiz-adv-x="307" 
d="M11 115h82v470h-82v115h282v-115h-83v-470h83v-115h-282v115z" />
    <glyph glyph-name="J" unicode="J" horiz-adv-x="453" 
d="M36 240h118v-125h136v585h118v-700h-372v240z" />
    <glyph glyph-name="K" unicode="K" horiz-adv-x="572" 
d="M45 700h119v-294l240 294h149l-302 -368h263v-332h-118v218h-234q0 -6 0.5 -18t1 -28.5t0.5 -35.5v-136h-119v700z" />
    <glyph glyph-name="L" unicode="L" horiz-adv-x="576" 
d="M45 700h119v-585h377v-115h-496v700z" />
    <glyph glyph-name="M" unicode="M" horiz-adv-x="794" 
d="M45 700h202l149 -449l152 449h201v-700h-119v554l-147 -430h-175l-143 430v-554h-120v700z" />
    <glyph glyph-name="N" unicode="N" horiz-adv-x="606" 
d="M45 700h206l191 -586h1v586h118v-700h-205l-192 584h-1v-584h-118v700z" />
    <glyph glyph-name="O" unicode="O" horiz-adv-x="762" 
d="M380 -7q-78 0 -142 31t-109 81.5t-69.5 114.5t-24.5 130t24.5 130t69.5 114.5t109 81.5t142 31q79 0 143 -31t109 -81.5t69.5 -114.5t24.5 -130t-24.5 -130t-69.5 -114.5t-109 -81.5t-143 -31zM380 106q51 0 92.5 21.5t71 56t45 78t15.5 88.5t-15.5 89t-45 78.5t-71 55.5
t-92.5 21t-92 -21t-70.5 -55.5t-45 -78.5t-15.5 -89t15.5 -88.5t45 -78t70.5 -56t92 -21.5z" />
    <glyph glyph-name="P" unicode="P" horiz-adv-x="511" 
d="M45 700h235q44 0 80 -16.5t61.5 -44t39.5 -63t14 -72.5t-14 -72.5t-39.5 -63t-61.5 -44.5t-80 -17h-117v-307h-118v700zM280 422q35 0 57.5 24.5t22.5 57.5q0 32 -22.5 57t-57.5 25h-117v-164h117z" />
    <glyph glyph-name="Q" unicode="Q" horiz-adv-x="778" 
d="M544 35q-36 -21 -77.5 -31.5t-85.5 -10.5q-79 0 -143 31t-109 81.5t-69.5 114.5t-24.5 130t24.5 130t69.5 114.5t109 81.5t143 31q78 0 142 -31t109 -81.5t69.5 -114.5t24.5 -130t-23 -130t-71 -116l111 -104h-160zM483 241l61 -57q30 35 45 78t15 88q0 44 -16 86.5
t-45.5 76.5t-70.5 54.5t-91 20.5t-90.5 -20.5t-69 -54.5t-44 -76.5t-15.5 -86.5q0 -43 15.5 -87t44 -78.5t69 -56.5t90.5 -22q36 0 73 13l-131 122h160z" />
    <glyph glyph-name="R" unicode="R" horiz-adv-x="519" 
d="M45 700h235q44 0 80 -16.5t61.5 -44t39.5 -63t14 -72.5q0 -35 -11.5 -67.5t-35.5 -60.5h44l3 -376h-118l-3 307h-191v-307h-118v700zM280 422q35 0 57.5 24.5t22.5 57.5t-22.5 57.5t-57.5 24.5h-117v-164h117z" />
    <glyph glyph-name="S" unicode="S" horiz-adv-x="592" 
d="M35 264h116l1 -11q6 -67 40.5 -106t109.5 -39q28 0 53 4.5t43.5 15t29.5 28t11 43.5q0 19 -5.5 35.5t-19.5 28.5q-28 26 -70.5 39.5t-83.5 22.5q-50 11 -95 31q-43 20 -74 57q-19 22 -24.5 49.5t-5.5 52.5q0 48 18 84t49.5 60t73.5 36t90 12q111 0 174.5 -56t68.5 -158
l1 -11h-116l-2 9q-9 51 -37.5 76.5t-85.5 25.5q-22 0 -43 -4t-37 -13t-25.5 -23t-9.5 -35q0 -23 13.5 -38t38.5 -26q13 -6 27.5 -11t30.5 -10q17 -5 34.5 -9t35.5 -9q35 -10 70.5 -24.5t64 -38t46 -57.5t17.5 -84q0 -15 -2.5 -31t-5.5 -31q-11 -45 -38.5 -77t-69.5 -54
q-31 -16 -64.5 -20.5t-65.5 -4.5q-85 0 -154 33t-103 109q-13 30 -16.5 58.5t-3.5 58.5v12z" />
    <glyph glyph-name="T" unicode="T" horiz-adv-x="567" 
d="M225 585h-189v115h496v-115h-189v-585h-118v585z" />
    <glyph glyph-name="U" unicode="U" 
d="M45 700h118v-585h260v585h117v-700h-495v700z" />
    <glyph glyph-name="V" unicode="V" horiz-adv-x="618" 
d="M12 700h123l160 -585h28l159 585h123l-191 -700h-211z" />
    <glyph glyph-name="W" unicode="W" horiz-adv-x="794" 
d="M45 700h120v-554l146 430h175l144 -430v554h119v-700h-202l-152 458q0 -6 -7 -28.5t-17.5 -56t-24 -74l-27.5 -82.5q-32 -97 -73 -217h-201v700z" />
    <glyph glyph-name="X" unicode="X" 
d="M224 352l-211 348h134l145 -241l143 241h133l-211 -349l214 -351h-134l-146 243l-147 -243h-134z" />
    <glyph glyph-name="Y" unicode="Y" horiz-adv-x="591" 
d="M237 0v225q-8 23 -15.5 41t-16.5 35q-10 17 -19.5 35t-20.5 41l-153 323h121l159 -336h8l158 336h121l-152 -323q-11 -23 -21 -41t-20 -35q-8 -17 -16 -35t-16 -41v-2l1 -4v-219h-118z" />
    <glyph glyph-name="Z" unicode="Z" horiz-adv-x="543" 
d="M35 81l315 504h-315v115h475v-86l-322 -508q5 2 21 3.5t39.5 2t52 1.5t57.5 1q68 1 152 1v-115h-475v81z" />
    <glyph glyph-name="bracketleft" unicode="[" horiz-adv-x="352" 
d="M61 700h233v-114h-115v-471h115v-115h-233v700z" />
    <glyph glyph-name="backslash" unicode="\" horiz-adv-x="579" 
d="M30 700h129l392 -700h-129z" />
    <glyph glyph-name="bracketright" unicode="]" horiz-adv-x="352" 
d="M61 115h114v471h-114v114h233v-700h-233v115z" />
    <glyph glyph-name="asciicircum" unicode="^" horiz-adv-x="601" 
d="M218 698h166l188 -474h-124l-142 360h-9l-141 -360h-123z" />
    <glyph glyph-name="underscore" unicode="_" horiz-adv-x="463" 
d="M6 -16h452v-114h-452v114z" />
    <glyph glyph-name="grave" unicode="`" horiz-adv-x="315" 
d="M25 707h129l114 -158h-99l-144 134v24z" />
    <glyph glyph-name="a" unicode="a" horiz-adv-x="478" 
d="M339 22q-50 -31 -108 -31q-44 0 -81 16.5t-63.5 44t-41 63t-14.5 73.5q0 39 15 72t41.5 56.5t63.5 36.5t80 13q22 0 43.5 -6t41.5 -16l-1 44h-265v116h383v-389h43v-115h-125zM144 183q0 -34 24.5 -57.5t62.5 -23.5t65 21.5t27 55.5q0 40 -25 67t-69 27q-41 0 -63 -26
t-22 -64z" />
    <glyph glyph-name="b" unicode="b" horiz-adv-x="588" 
d="M44 630h-42v113h125l4 -6q1 -2 5.5 -10.5t9.5 -18.5q3 -5 5 -10t4 -9l4 -6l2 -4v-2q1 -15 1 -28q0 -6 -0.5 -17t-0.5 -34v-130q33 21 70.5 32.5t78.5 11.5q60 0 105.5 -22.5t77 -59t47.5 -83.5t16 -96q0 -48 -16 -95t-47.5 -83.5t-77 -59t-105.5 -22.5q-41 0 -78.5 11.5
t-70.5 32.5v-35h-117v630zM309 103q31 0 55.5 13t41.5 34t26 47.5t9 53.5t-9 54t-26 48t-41.5 34t-55.5 13q-30 0 -56 -13t-44.5 -34t-29 -48t-10.5 -54t10.5 -53.5t29 -47.5t44.5 -34t56 -13z" />
    <glyph glyph-name="c" unicode="c" horiz-adv-x="474" 
d="M45 504h383v-188h-117v73h-151l2 -273h149v67h117v-183h-383v504z" />
    <glyph glyph-name="d" unicode="d" horiz-adv-x="588" 
d="M425 35q-32 -22 -70 -33t-78 -11q-60 0 -106 22.5t-77.5 59t-47.5 83t-16 95.5t16 96t47.5 83.5t77.5 59t106 22.5q40 0 77.5 -11.5t70.5 -32.5v130q0 23 -0.5 34t-0.5 17q0 13 1 28l3 6l2 6l4.5 9t5.5 10q6 10 10.5 18.5t5.5 10.5l4 6h124v-113h-41v-630h-118v35z
M277 103q30 0 56 13t45 34t29.5 47.5t10.5 53.5t-10.5 54t-29.5 48t-45 34t-56 13t-54.5 -13t-42 -34t-26.5 -48t-9 -54t9 -53.5t26.5 -47.5t42 -34t54.5 -13z" />
    <glyph glyph-name="e" unicode="e" horiz-adv-x="560" 
d="M516 167l-7 -16q-13 -33 -35.5 -62t-52 -50t-65 -33.5t-76.5 -12.5q-57 0 -103.5 23t-79 59.5t-50 83t-17.5 94.5t17.5 94.5t50.5 83t79 59.5t103 23t103.5 -23t78.5 -59.5t49.5 -83t17.5 -94.5q0 -21 -3 -42l-2 -10h-365q13 -40 44.5 -68.5t76.5 -28.5q32 0 58 15.5
t43 41.5l4 6h131zM400 306q-14 39 -45 67t-75 28t-75.5 -28t-45.5 -67h241z" />
    <glyph glyph-name="f" unicode="f" horiz-adv-x="342" 
d="M66 388h-83v115h83v241h397v-114h-280v-127h171v-115h-171v-388h-117v388z" />
    <glyph glyph-name="g" unicode="g" horiz-adv-x="595" 
d="M64 -79h369v122q-34 -24 -74 -37t-83 -13q-59 0 -105 22t-77.5 58.5t-47.5 83t-16 95.5t16 96t47.5 83.5t77 59t105.5 22.5q46 0 88.5 -15t77.5 -42l25 48h125v-115h-42v-581h-486v113zM276 105q30 0 56 12.5t45 33t29.5 47t10.5 54.5q0 27 -10.5 53.5t-29.5 47.5t-45 34
t-56 13t-54 -13t-41.5 -34t-26.5 -47.5t-9 -53.5t9 -53.5t26.5 -47.5t41.5 -33.5t54 -12.5z" />
    <glyph glyph-name="h" unicode="h" horiz-adv-x="498" 
d="M45 744h121v-241h287v-503h-121v388h-166v-388h-121v744z" />
    <glyph glyph-name="i" unicode="i" horiz-adv-x="208" 
d="M44 659h117v-113h-117v113zM44 187q0 77 1 153.5t2 152.5v12h115v-505h-118v187z" />
    <glyph glyph-name="j" unicode="j" horiz-adv-x="206" 
d="M42 659h117v-113h-117v113zM-120 -77h163l3 582l115 -1v-697h-281v116z" />
    <glyph glyph-name="k" unicode="k" horiz-adv-x="511" 
d="M45 744h120l1 -414l144 173h156l-165 -198h152v-305h-121v191h-166v-191h-121v744z" />
    <glyph glyph-name="l" unicode="l" horiz-adv-x="208" 
d="M45 744h117v-744h-117v744z" />
    <glyph glyph-name="m" unicode="m" horiz-adv-x="770" 
d="M45 504h680v-504h-119v390h-162v-390h-118v390h-162v-390h-119v504z" />
    <glyph glyph-name="n" unicode="n" horiz-adv-x="516" 
d="M45 504h425v-504h-118v390h-189v-390h-118v504z" />
    <glyph glyph-name="o" unicode="o" horiz-adv-x="561" 
d="M280 -7q-57 0 -103 22.5t-79 59.5t-50.5 83t-17.5 94t17.5 94.5t50 83.5t79 60t103.5 23q58 0 104 -23t78.5 -60t50 -83.5t17.5 -94.5t-17.5 -94t-50 -83t-79 -59.5t-103.5 -22.5zM280 104q30 0 54 13t41 34t26 47.5t9 53.5t-9 53.5t-26 48t-41 34.5t-54 13t-54 -13
t-40.5 -34.5t-25.5 -48t-9 -53.5t9 -53.5t25.5 -47.5t40.5 -34t54 -13z" />
    <glyph glyph-name="p" unicode="p" 
d="M45 389h-43v115h125l23 -43q69 52 160 52q60 0 106 -22.5t77.5 -59t47.5 -83t16 -95.5t-16 -95.5t-47.5 -83t-77.5 -59t-106 -22.5q-40 0 -77.5 11.5t-69.5 32.5v-230h-118v582zM310 106q30 0 54.5 12.5t41.5 33.5t26 47.5t9 53.5t-9 53.5t-26 47.5t-41.5 34t-54.5 13
t-55.5 -13t-44.5 -34t-29.5 -47.5t-10.5 -53.5q0 -28 10.5 -54.5t29.5 -47t44.5 -33t55.5 -12.5z" />
    <glyph glyph-name="q" unicode="q" 
d="M424 37q-32 -21 -70 -32.5t-78 -11.5q-59 0 -105 22.5t-77.5 59t-48 83t-16.5 95.5t16 96t47.5 83.5t77.5 58.5t106 22q44 0 85 -13t75 -39l23 43h124v-115h-42v-582h-117v230zM276 106q30 0 56 12.5t45 33t29.5 47t10.5 54.5q0 27 -10.5 53.5t-29.5 47.5t-45 34t-56 13
t-54.5 -13t-41.5 -34t-26.5 -47.5t-9.5 -53.5t9.5 -53.5t26.5 -47.5t41.5 -33.5t54.5 -12.5z" />
    <glyph glyph-name="r" unicode="r" horiz-adv-x="372" 
d="M45 504h297v-114h-178v-390h-119v504z" />
    <glyph glyph-name="s" unicode="s" horiz-adv-x="496" 
d="M152 194l1 -11q1 -4 1 -8.5t1 -9.5t1.5 -9t1.5 -8q10 -29 36 -38t61 -9q32 0 57.5 12t25.5 38q0 13 -10 22q-9 6 -29.5 12.5t-34.5 9.5l-89 21q-54 14 -88.5 44.5t-34.5 86.5q0 41 15.5 72t41.5 52t62 31.5t76 10.5q44 0 80.5 -11.5t63 -33.5t41 -54.5t14.5 -74.5v-11
h-116l-2 20q-3 34 -26 45t-62 11q-27 0 -47.5 -10.5t-20.5 -31.5q0 -15 8 -20q5 -5 26 -10q10 -3 18.5 -5.5t13.5 -3.5l76 -20q29 -7 55.5 -17t47 -26t32.5 -39.5t12 -57.5q0 -41 -16.5 -73t-44.5 -53.5t-65.5 -32.5t-78.5 -11q-28 0 -57.5 3.5t-56 14t-48.5 28.5t-36 46
q-5 10 -10 21.5t-7 23.5q-2 14 -2.5 26t-2.5 25l-1 13h117z" />
    <glyph glyph-name="t" unicode="t" horiz-adv-x="382" 
d="M107 389h-82v116h82v239h118v-239h83v-116h-83v-274h144v-115h-262v389z" />
    <glyph glyph-name="u" unicode="u" horiz-adv-x="516" 
d="M45 504h118v-389h189v389h118v-504h-425v504z" />
    <glyph glyph-name="v" unicode="v" horiz-adv-x="506" 
d="M5 504h123l109 -389h28l108 389h123l-139 -504h-212z" />
    <glyph glyph-name="w" unicode="w" horiz-adv-x="770" 
d="M45 504h119v-389h162v389h118v-389h162v389h119v-504h-680v504z" />
    <glyph glyph-name="x" unicode="x" horiz-adv-x="485" 
d="M176 253q-3 4 -10.5 16.5t-19 31t-25 41t-27.5 44.5q-32 53 -71 118h134l86 -144q6 12 20 36l28 48q17 28 36 60h134l-154 -252q3 -4 11 -16.5t19 -31t25 -41t27 -45.5q33 -53 72 -118h-134l-87 146q-5 -12 -19 -36l-28 -49q-17 -29 -36 -61h-134z" />
    <glyph glyph-name="y" unicode="y" horiz-adv-x="619" 
d="M88 -79h369v120q-35 -23 -74.5 -36t-82.5 -13q-61 0 -108.5 23t-80 61t-49.5 86t-17 99v243h118v-243q0 -30 9 -59t26.5 -52t43 -37t58.5 -14t62 14t50 37t33 52t12 59v117q0 17 -0.5 25.5t-0.5 12.5q0 10 1 21v0l2 7q2 2 3 5l4.5 9t5.5 10q5 10 9.5 18.5t5.5 10.5l4 7
h125v-115h-42v-582h-486v114z" />
    <glyph glyph-name="z" unicode="z" horiz-adv-x="471" 
d="M45 108l220 282h-220v114h380v-107l-221 -281h221v-116h-380v108z" />
    <glyph glyph-name="braceleft" unicode="{" horiz-adv-x="402" 
d="M43 407h73q6 0 8 6q1 2 1 4t1 5v43q0 22 0.5 53t5.5 61q5 31 18.5 60t41.5 43q24 13 51.5 15.5t50.5 2.5h60v-105h-52q-12 0 -23.5 -0.5t-19.5 -5.5q-21 -10 -27 -49q-3 -19 -3.5 -37.5t-0.5 -30.5v-33q0 -9 -1 -17q-1 -9 -2.5 -18.5t-4.5 -17.5q-10 -25 -30 -36
q13 -7 20.5 -18t11.5 -24q3 -10 4 -20t2 -19v-69q0 -19 4 -39q3 -20 10 -33t18 -18q8 -5 19 -5.5t23 -0.5h52v-104h-60q-23 0 -48.5 3t-48.5 14q-29 15 -43.5 43.5t-20.5 58.5q-6 31 -6.5 61.5t-0.5 53.5v45q0 5 -2 8q-3 5 -8 5h-73v115z" />
    <glyph glyph-name="bar" unicode="|" horiz-adv-x="576" 
d="M225 700h118v-827h-118v827z" />
    <glyph glyph-name="braceright" unicode="}" horiz-adv-x="402" 
d="M43 104h51q12 0 23 0.5t19 5.5q11 5 18 18t11 33t4 39v59q0 8 1 16q0 21 6 37q8 26 30 38q-14 8 -21 19.5t-11 25.5q-3 10 -3.5 20.5t-1.5 20.5v36q0 12 -0.5 30.5t-3.5 37.5q-8 39 -28 49q-8 5 -19.5 5.5t-23.5 0.5h-51v105h59q23 0 50.5 -2.5t51.5 -15.5
q28 -14 41.5 -43t18.5 -60q5 -30 5.5 -61t0.5 -53v-43q1 -3 1 -5t1 -4q2 -6 8 -6h74v-115h-74q-5 0 -8 -5q-2 -3 -2 -8v-45q0 -23 -0.5 -53.5t-6.5 -61.5q-6 -30 -20.5 -58.5t-43.5 -43.5q-22 -11 -48 -14t-49 -3h-59v104z" />
    <glyph glyph-name="asciitilde" unicode="~" horiz-adv-x="561" 
d="M62 252q-3 23 -3 46q0 30 6.5 59t22.5 51.5t43.5 36t68.5 13.5q38 0 67.5 -18t52.5 -38q6 -5 11.5 -9.5t10.5 -9.5t10 -9l10 -8q22 -14 36 -14t18.5 6.5t4.5 20.5q0 15 -3.5 29.5t-3.5 28.5q0 4 3.5 10t9.5 7l106 9l2 -11q2 -17 3.5 -33t1.5 -33q0 -27 -5.5 -52
t-19 -44.5t-37 -31.5t-60.5 -12q-47 0 -80.5 17.5t-57.5 37.5q-12 10 -22.5 19t-19.5 16q-17 14 -28 14q-15 0 -23 -14t-8 -33q0 -18 5 -36l5 -13l-126 -13z" />
    <glyph glyph-name="exclamdown" unicode="&#xa1;" horiz-adv-x="294" 
d="M85 505h119v-115h-119v115zM85 343h118v-537h-118v537z" />
    <glyph glyph-name="cent" unicode="&#xa2;" horiz-adv-x="501" 
d="M62 504h133v98h117v-98h133v-188h-117v73h-16v-273h16v67h117v-183h-133v-89h-117v89h-133v504zM179 116h16v273h-18z" />
    <glyph glyph-name="sterling" unicode="&#xa3;" horiz-adv-x="543" 
d="M29 115h74q7 7 7 23q0 11 -2.5 26.5t-7.5 32.5q-5 16 -9.5 32t-8.5 28q-9 26 -17.5 52.5t-15.5 53.5q-6 26 -10 54t-4 57q0 101 59.5 161t173.5 60q47 0 93 -13t84 -41l47 -33l-67 -92l-10 6q-21 14 -38 24.5t-35 18t-37.5 11t-44.5 3.5q-107 0 -107 -96q0 -20 2.5 -38
t6.5 -36h224v-115h-192l20 -60q6 -20 10 -40t4 -40q0 -8 -1.5 -18.5t-6.5 -20.5h290v-115h-481v115z" />
    <glyph glyph-name="currency" unicode="&#xa4;" horiz-adv-x="601" 
d="M125 256q-11 22 -17.5 45.5t-6.5 48.5t6.5 48t17.5 45l-65 64l83 82l65 -66q45 25 94 25t96 -25l66 66l83 -82l-66 -65q11 -21 17 -44.5t6 -47.5q0 -25 -6 -48t-17 -45l66 -66l-83 -81l-67 67q-43 -24 -95 -24q-24 0 -48 6t-44 17l-67 -66l-83 81z" />
    <glyph glyph-name="yen" unicode="&#xa5;" horiz-adv-x="598" 
d="M75 178h163v39h-163v114h114l-175 369h121l159 -336h6l160 336h120l-174 -369h113v-114h-162v-39h162v-115h-162v-63h-119v63h-163v115z" />
    <glyph glyph-name="brokenbar" unicode="&#xa6;" horiz-adv-x="233" 
d="M59 700h118v-308h-118v308zM59 308h118v-308h-118v308z" />
    <glyph glyph-name="section" unicode="&#xa7;" horiz-adv-x="532" 
d="M58 159h19l6 -1l35 -17q15 -7 35 -12.5t41.5 -8.5t42.5 -4.5t39 -1.5q13 0 34 1t41 5q40 11 40 33q0 15 -4 22q-5 8 -19.5 14t-34.5 9q-20 4 -39.5 4.5t-32.5 0.5q-38 0 -79 4t-75 19t-56 44.5t-22 79.5q0 28 8 52.5t28 45.5q-20 20 -28 44t-8 50q0 48 21.5 78.5t55 48
t74.5 23.5t81 6q21 0 49 -2t57 -7t57 -12t47 -18l6 -3v-117h-15q-1 0 -1.5 0.5t-2.5 0.5h-5l-37 18q-15 8 -34 12.5t-39 7.5t-40.5 4t-37.5 1q-14 0 -35 -0.5t-41 -5.5q-43 -11 -43 -32q0 -14 4 -22q10 -16 51 -24q19 -3 37 -4t31 -1h47q37 0 72 -6.5t62 -22.5t43 -44
t16 -70q0 -28 -8.5 -53t-28.5 -46q20 -20 28.5 -45.5t8.5 -52.5q0 -49 -23.5 -79t-59.5 -46.5t-79 -22.5t-81 -6q-21 0 -48 2.5t-54.5 7t-53 11.5t-45.5 17l-7 4v117z" />
    <glyph glyph-name="dieresis" unicode="&#xa8;" horiz-adv-x="374" 
d="M24 658h119v-114h-119v114zM228 658h118v-114h-118v114z" />
    <glyph glyph-name="copyright" unicode="&#xa9;" horiz-adv-x="847" 
d="M65 700h711v-700h-711v700zM658 115v471h-476v-471h476zM229 544h382v-158h-118v42h-149l3 -156h146v39h118v-154h-382v387z" />
    <glyph glyph-name="ordfeminine" unicode="&#xaa;" horiz-adv-x="357" 
 />
    <glyph glyph-name="guillemotleft" unicode="&#xab;" horiz-adv-x="538" 
d="M235 358l141 252h129l-140 -252l140 -252h-129zM38 358l140 252h129l-139 -252l139 -252h-129z" />
    <glyph glyph-name="logicalnot" unicode="&#xac;" horiz-adv-x="590" 
d="M43 451h511v-221h-119v107h-392v114z" />
    <glyph glyph-name="registered" unicode="&#xae;" horiz-adv-x="594" 
d="M40 700h514v-504h-514v504zM436 310v276h-278v-276h278zM200 549h202v-114h-84v-94h-118v208z" />
    <glyph glyph-name="macron" unicode="&#xaf;" horiz-adv-x="415" 
d="M15 690h383v-114h-383v114z" />
    <glyph glyph-name="degree" unicode="&#xb0;" horiz-adv-x="450" 
d="M62 493q0 31 12 59.5t33 50.5t50.5 35.5t65.5 13.5t66 -13t51 -35t33 -51t12 -60q0 -30 -12 -58.5t-33.5 -50.5t-51 -35.5t-65.5 -13.5q-35 0 -64.5 13.5t-51 35.5t-33.5 50.5t-12 58.5zM223 447q20 0 33.5 13.5t13.5 32.5t-13.5 33.5t-33.5 14.5t-33 -14.5t-13 -33.5
t13.5 -32.5t32.5 -13.5z" />
    <glyph glyph-name="plusminus" unicode="&#xb1;" horiz-adv-x="594" 
d="M245 299h-100v114h100v100h118v-100h102v-114h-102v-100h-118v100zM145 115h320v-115h-320v115z" />
    <glyph glyph-name="twosuperior" unicode="&#xb2;" horiz-adv-x="373" 
d="M89 544h116q20 0 33 14.5t13 34.5q0 19 -13 33.5t-33 14.5h-116v61h116q25 0 45 -9.5t34.5 -24.5t22.5 -34.5t8 -40.5t-7.5 -40.5t-22 -35.5t-34.5 -25.5t-46 -9.5h-51v-31h144v-62h-209v155z" />
    <glyph glyph-name="threesuperior" unicode="&#xb3;" horiz-adv-x="294" 
d="M48 448h85q20 0 33 14t13 34t-13 34.5t-33 14.5h-54v62h99v31h-130v62h195v-155h-11q11 -25 11 -49q0 -21 -8 -40.5t-22 -35t-34.5 -25t-45.5 -9.5h-85v62z" />
    <glyph glyph-name="acute" unicode="&#xb4;" horiz-adv-x="294" 
d="M139 707h129v-24l-145 -134h-98z" />
    <glyph glyph-name="paragraph" unicode="&#xb6;" horiz-adv-x="582" 
d="M253 306q0 14 -6.5 22t-17.5 14q-12 7 -31 13q-9 3 -18.5 6t-18.5 5q-20 7 -39.5 16.5t-35 25.5t-25 39t-9.5 56q0 44 15 80.5t43 62.5t67.5 40t88.5 14h106v-700h-119v306zM404 700h118v-700h-118v700z" />
    <glyph glyph-name="periodcentered" unicode="&#xb7;" horiz-adv-x="293" 
d="M86 361h118v-115h-118v115z" />
    <glyph glyph-name="cedilla" unicode="&#xb8;" horiz-adv-x="282" 
d="M-2 -130h149q14 0 14 12q0 6 -7 8l-152 15l52 174h16l68 -52l-10 -30l40 -5q48 -7 79.5 -34.5t31.5 -75.5q0 -24 -10 -46.5t-27.5 -39.5t-41.5 -27.5t-51 -10.5h-151v112z" />
    <glyph glyph-name="onesuperior" unicode="&#xb9;" horiz-adv-x="375" 
d="M113 451h36v166h-36v63h13q8 0 12 1q2 0 4 0.5t3 0.5q2 1 3 2q0 1 0.5 2.5t0.5 4.5v11h65v-251h35v-62h-136v62z" />
    <glyph glyph-name="ordmasculine" unicode="&#xba;" horiz-adv-x="398" 
d="M40 579q0 31 12 59.5t33 50.5t51 35.5t66 13.5t65.5 -13t50.5 -35t33 -51t12 -60q0 -30 -12 -58.5t-33.5 -50.5t-51 -35t-64.5 -13q-36 0 -65.5 13t-51 35t-33.5 50.5t-12 58.5zM202 533q19 0 32.5 13.5t13.5 32.5q0 20 -13 34t-33 14t-33.5 -14t-13.5 -34
q0 -19 13.5 -32.5t33.5 -13.5z" />
    <glyph glyph-name="guillemotright" unicode="&#xbb;" horiz-adv-x="538" 
d="M178 358l-140 252h129l140 -252l-140 -252h-129zM375 358l-139 252h129l140 -252l-140 -252h-129z" />
    <glyph glyph-name="onequarter" unicode="&#xbc;" horiz-adv-x="1687" 
d="M303 115h83v418h-83v114h42q17 0 29 12t12 29v12h117v-585h82v-113l391 698h245v-460h184v460h118v-700h-118v126h-302v570l-390 -696h-410v115z" />
    <glyph glyph-name="onehalf" unicode="&#xbd;" horiz-adv-x="1686" 
d="M301 115h83v418h-83v114h42q17 0 29 12t12 29v12h117v-585h82v-115h-282v115zM976 700h129l-392 -700h-129zM1116 331h254q27 0 50 10.5t39.5 28.5t26 41t9.5 48t-9.5 48t-26 40.5t-39.5 28t-50 10.5h-254v114h254q54 0 98 -20.5t75.5 -54.5t48.5 -77.5t17 -88.5t-17 -89
t-48.5 -78t-75.5 -55t-98 -21h-136v-101h336v-115h-454v331z" />
    <glyph glyph-name="threequarters" unicode="&#xbe;" horiz-adv-x="1686" 
d="M215 114h180q27 0 50 10.5t39.5 28.5t25.5 41t9 48t-9 48t-25.5 40.5t-39.5 28t-50 10.5h-108v115h229v101h-301v115h419v-331h-36q18 -29 27 -61.5t9 -65.5q0 -46 -17 -89.5t-48.5 -77.5t-75.5 -54.5t-98 -20.5h-180v114zM974 700h129l-392 -700h-129zM1116 700h118
v-460h184v460h118v-700h-118v126h-302v574z" />
    <glyph glyph-name="questiondown" unicode="&#xbf;" horiz-adv-x="453" 
d="M193 595h118v-114h-118v114zM143 162v-12q0 -27 9 -53.5t25.5 -47.5t40.5 -34.5t54 -13.5t54 13.5t40.5 34.5t25.5 47.5t9 53.5q0 42 -20 80t-59 57q-6 3 -16.5 7t-14.5 4q-14 1 -28 1q-7 0 -21.5 -0.5t-35.5 -0.5h-13v171h118v-62q50 -8 89 -33t66 -60t41.5 -77.5
t14.5 -86.5q0 -47 -17.5 -93.5t-50 -83.5t-79 -60t-103.5 -23q-58 0 -104 23t-78.5 60t-50 83.5t-17.5 93.5v12h121z" />
    <glyph glyph-name="Agrave" unicode="&#xc0;" horiz-adv-x="615" 
d="M196 898h129l114 -158h-99l-144 134v24zM202 700h210l191 -700h-123l-59 216h-229l-58 -216h-123zM390 331l-69 254h-29l-68 -254h166z" />
    <glyph glyph-name="Aacute" unicode="&#xc1;" horiz-adv-x="615" 
d="M299 898h129v-24l-145 -134h-98zM202 700h210l191 -700h-123l-59 216h-229l-58 -216h-123zM390 331l-69 254h-29l-68 -254h166z" />
    <glyph glyph-name="Acircumflex" unicode="&#xc2;" horiz-adv-x="615" 
d="M251 894h125l101 -184h-99l-65 63l-64 -63h-101zM202 700h210l191 -700h-123l-59 216h-229l-58 -216h-123zM390 331l-69 254h-29l-68 -254h166z" />
    <glyph glyph-name="Atilde" unicode="&#xc3;" horiz-adv-x="615" 
d="M105 727q-1 8 -1.5 17t-0.5 17q0 22 5 43.5t17 39t32.5 28t52.5 10.5q29 0 51 -13.5t39 -28.5q5 -4 8.5 -7.5t8.5 -6.5q4 -4 7.5 -6.5t7.5 -4.5q14 -11 23 -11q14 0 14 17q0 8 -1 16l-3 11q-1 8 -1 16q0 7 5 12l3 3l86 7l2 -11q2 -12 3 -24t1 -25q0 -20 -4 -39
t-14.5 -33.5t-28.5 -23.5t-47 -9q-35 0 -60.5 13t-42.5 27q-9 7 -16.5 14t-15.5 12q-13 9 -19 9q-7 0 -12.5 -8.5t-5.5 -22.5q0 -6 1 -13t3 -12l6 -14l-102 -10zM202 700h210l191 -700h-123l-59 216h-229l-58 -216h-123zM390 331l-69 254h-29l-68 -254h166z" />
    <glyph glyph-name="Adieresis" unicode="&#xc4;" horiz-adv-x="615" 
d="M151 849h119v-114h-119v114zM355 849h118v-114h-118v114zM202 700h210l191 -700h-123l-59 216h-229l-58 -216h-123zM390 331l-69 254h-29l-68 -254h166z" />
    <glyph glyph-name="Aring" unicode="&#xc5;" horiz-adv-x="615" 
d="M177 768q0 26 10 49.5t28 42t43 29.5t55 11t54.5 -11t42.5 -29.5t28 -42.5t10 -49t-10 -49q-8 -19 -21 -36l186 -683h-123l-59 216h-229l-58 -216h-123l189 694q-8 11 -13 24q-10 24 -10 50zM313 731q14 0 24.5 10.5t10.5 26.5q0 15 -10.5 25.5t-24.5 10.5
q-16 0 -26.5 -10.5t-10.5 -25.5q0 -16 10.5 -26.5t26.5 -10.5zM390 331l-69 254h-29l-68 -254h166z" />
    <glyph glyph-name="AE" unicode="&#xc6;" horiz-adv-x="811" 
d="M250 700h515v-115h-286v-254h201v-115h-201v-101h286v-115h-404v216h-151l-76 -216h-123zM361 331v254h-20l-90 -254h110z" />
    <glyph glyph-name="Ccedilla" unicode="&#xc7;" horiz-adv-x="646" 
d="M624 95l-7 -6q-47 -47 -107.5 -72t-129.5 -25h-17h3q48 -7 79.5 -34.5t31.5 -75.5q0 -24 -10 -46.5t-27.5 -39.5t-41.5 -27.5t-51 -10.5h-151v112h149q14 0 14 12q0 6 -7 8l-152 15l36 119q-63 31 -107 81q-45 50 -69.5 114t-24.5 130t24.5 130t69.5 114.5t108.5 81.5
t142.5 31q69 0 129.5 -25t107.5 -71l7 -7l-78 -89l-10 10q-31 32 -71 50.5t-85 18.5q-51 0 -92.5 -21t-71 -55.5t-45 -78.5t-15.5 -89t15.5 -88.5t45 -78t71 -56t92.5 -21.5q45 0 85 18.5t71 50.5l10 10z" />
    <glyph glyph-name="Egrave" unicode="&#xc8;" 
d="M159 898h129l114 -158h-99l-144 134v24zM45 700h495v-115h-378v-254h277v-115h-277v-101h378v-115h-495v700z" />
    <glyph glyph-name="Eacute" unicode="&#xc9;" 
d="M262 898h129v-24l-145 -134h-98zM45 700h495v-115h-378v-254h277v-115h-277v-101h378v-115h-495v700z" />
    <glyph glyph-name="Ecircumflex" unicode="&#xca;" horiz-adv-x="591" 
d="M218 894h125l101 -184h-99l-65 63l-64 -63h-101zM50 700h495v-115h-378v-254h277v-115h-277v-101h378v-115h-495v700z" />
    <glyph glyph-name="Edieresis" unicode="&#xcb;" 
d="M114 849h119v-114h-119v114zM318 849h118v-114h-118v114zM45 700h495v-115h-378v-254h277v-115h-277v-101h378v-115h-495v700z" />
    <glyph glyph-name="Igrave" unicode="&#xcc;" horiz-adv-x="373" 
d="M71 898h129l114 -158h-99l-144 134v24zM46 115h82v470h-82v115h282v-115h-83v-470h83v-115h-282v115z" />
    <glyph glyph-name="Iacute" unicode="&#xcd;" horiz-adv-x="373" 
d="M174 898h129v-24l-145 -134h-98zM46 115h82v470h-82v115h282v-115h-83v-470h83v-115h-282v115z" />
    <glyph glyph-name="Icircumflex" unicode="&#xce;" horiz-adv-x="374" 
d="M125 894h125l101 -184h-99l-65 63l-64 -63h-101zM46 115h82v470h-82v115h282v-115h-83v-470h83v-115h-282v115z" />
    <glyph glyph-name="Idieresis" unicode="&#xcf;" horiz-adv-x="374" 
d="M26 849h119v-114h-119v114zM230 849h118v-114h-118v114zM46 115h82v470h-82v115h282v-115h-83v-470h83v-115h-282v115z" />
    <glyph glyph-name="Eth" unicode="&#xd0;" horiz-adv-x="616" 
d="M44 216h-75v115h75v369h190q78 0 141.5 -30t109 -79t70.5 -112t25 -129t-25 -129t-70.5 -112t-109 -79t-141.5 -30h-190v216zM234 113q51 0 92 20.5t70.5 53.5t45.5 75.5t16 87.5t-16 87.5t-45.5 75.5t-70.5 53t-92 20h-73v-255h75v-115h-75v-103h73z" />
    <glyph glyph-name="Ntilde" unicode="&#xd1;" horiz-adv-x="606" 
d="M173 727q-1 8 -1.5 17t-0.5 17q0 22 5 43.5t17 39t32.5 28t52.5 10.5q29 0 51 -13.5t39 -28.5q5 -4 8.5 -7.5t8.5 -6.5q4 -4 7.5 -6.5t7.5 -4.5q14 -11 23 -11q14 0 14 17q0 8 -1 16l-3 11q-1 8 -1 16q0 7 5 12l3 3l86 7l2 -11q2 -12 3 -24t1 -25q0 -20 -4 -39
t-14.5 -33.5t-28.5 -23.5t-47 -9q-35 0 -60.5 13t-42.5 27q-9 7 -16.5 14t-15.5 12q-13 9 -19 9q-7 0 -12.5 -8.5t-5.5 -22.5q0 -6 1 -13t3 -12l6 -14l-102 -10zM45 700h206l191 -586h1v586h118v-700h-205l-192 584h-1v-584h-118v700z" />
    <glyph glyph-name="Ograve" unicode="&#xd2;" horiz-adv-x="762" 
d="M278 898h129l114 -158h-99l-144 134v24zM380 -7q-78 0 -142 31t-109 81.5t-69.5 114.5t-24.5 130t24.5 130t69.5 114.5t109 81.5t142 31q79 0 143 -31t109 -81.5t69.5 -114.5t24.5 -130t-24.5 -130t-69.5 -114.5t-109 -81.5t-143 -31zM380 106q51 0 92.5 21.5t71 56
t45 78t15.5 88.5t-15.5 89t-45 78.5t-71 55.5t-92.5 21t-92 -21t-70.5 -55.5t-45 -78.5t-15.5 -89t15.5 -88.5t45 -78t70.5 -56t92 -21.5z" />
    <glyph glyph-name="Oacute" unicode="&#xd3;" horiz-adv-x="762" 
d="M390 898h129v-24l-145 -134h-98zM380 -7q-78 0 -142 31t-109 81.5t-69.5 114.5t-24.5 130t24.5 130t69.5 114.5t109 81.5t142 31q79 0 143 -31t109 -81.5t69.5 -114.5t24.5 -130t-24.5 -130t-69.5 -114.5t-109 -81.5t-143 -31zM380 106q51 0 92.5 21.5t71 56t45 78
t15.5 88.5t-15.5 89t-45 78.5t-71 55.5t-92.5 21t-92 -21t-70.5 -55.5t-45 -78.5t-15.5 -89t15.5 -88.5t45 -78t70.5 -56t92 -21.5z" />
    <glyph glyph-name="Ocircumflex" unicode="&#xd4;" horiz-adv-x="762" 
d="M319 894h125l101 -184h-99l-65 63l-64 -63h-101zM380 -7q-78 0 -142 31t-109 81.5t-69.5 114.5t-24.5 130t24.5 130t69.5 114.5t109 81.5t142 31q79 0 143 -31t109 -81.5t69.5 -114.5t24.5 -130t-24.5 -130t-69.5 -114.5t-109 -81.5t-143 -31zM380 106q51 0 92.5 21.5
t71 56t45 78t15.5 88.5t-15.5 89t-45 78.5t-71 55.5t-92.5 21t-92 -21t-70.5 -55.5t-45 -78.5t-15.5 -89t15.5 -88.5t45 -78t70.5 -56t92 -21.5z" />
    <glyph glyph-name="Otilde" unicode="&#xd5;" horiz-adv-x="762" 
d="M206 727q-1 8 -1.5 17t-0.5 17q0 22 5 43.5t17 39t32.5 28t52.5 10.5q29 0 51 -13.5t39 -28.5q5 -4 8.5 -7.5t8.5 -6.5q4 -4 7.5 -6.5t7.5 -4.5q14 -11 23 -11q14 0 14 17q0 8 -1 16l-3 11q-1 8 -1 16q0 7 5 12l3 3l86 7l2 -11q2 -12 3 -24t1 -25q0 -20 -4 -39
t-14.5 -33.5t-28.5 -23.5t-47 -9q-35 0 -60.5 13t-42.5 27q-9 7 -16.5 14t-15.5 12q-13 9 -19 9q-7 0 -12.5 -8.5t-5.5 -22.5q0 -6 1 -13t3 -12l6 -14l-102 -10zM380 -7q-78 0 -142 31t-109 81.5t-69.5 114.5t-24.5 130t24.5 130t69.5 114.5t109 81.5t142 31q79 0 143 -31
t109 -81.5t69.5 -114.5t24.5 -130t-24.5 -130t-69.5 -114.5t-109 -81.5t-143 -31zM380 106q51 0 92.5 21.5t71 56t45 78t15.5 88.5t-15.5 89t-45 78.5t-71 55.5t-92.5 21t-92 -21t-70.5 -55.5t-45 -78.5t-15.5 -89t15.5 -88.5t45 -78t70.5 -56t92 -21.5z" />
    <glyph glyph-name="Odieresis" unicode="&#xd6;" horiz-adv-x="762" 
d="M232 849h119v-114h-119v114zM436 849h118v-114h-118v114zM380 -7q-78 0 -142 31t-109 81.5t-69.5 114.5t-24.5 130t24.5 130t69.5 114.5t109 81.5t142 31q79 0 143 -31t109 -81.5t69.5 -114.5t24.5 -130t-24.5 -130t-69.5 -114.5t-109 -81.5t-143 -31zM380 106
q51 0 92.5 21.5t71 56t45 78t15.5 88.5t-15.5 89t-45 78.5t-71 55.5t-92.5 21t-92 -21t-70.5 -55.5t-45 -78.5t-15.5 -89t15.5 -88.5t45 -78t70.5 -56t92 -21.5z" />
    <glyph glyph-name="multiply" unicode="&#xd7;" horiz-adv-x="443" 
d="M138 354l-72 70l82 82l73 -70l71 72l83 -82l-71 -70l72 -70l-81 -82l-72 69l-71 -71l-85 80z" />
    <glyph glyph-name="Oslash" unicode="&#xd8;" horiz-adv-x="762" 
d="M380 -7q-66 0 -122 22l-9 -15h-129l41 74q-17 15 -32 32q-45 50 -69.5 114t-24.5 130t24.5 130t69.5 114.5t109 81.5t142 31q67 0 123 -22l9 15h129l-41 -74q17 -15 32 -31q45 -51 69.5 -115t24.5 -130t-24.5 -130t-69.5 -114.5t-109 -81.5t-143 -31zM447 584
q-31 10 -67 10q-51 0 -92 -21t-70.5 -55.5t-45 -78.5t-15.5 -89t15.5 -88.5t45.5 -77.5q1 -2 3 -4zM380 106q51 0 92.5 21.5t71 56t45 78t15.5 88.5t-15.5 89t-44.5 79q-2 1 -3 3l-227 -405q31 -10 66 -10z" />
    <glyph glyph-name="Ugrave" unicode="&#xd9;" 
d="M157 901h129l114 -158h-99l-144 134v24zM45 700h118v-585h260v585h117v-700h-495v700z" />
    <glyph glyph-name="Uacute" unicode="&#xda;" 
d="M313 901h129v-24l-145 -134h-98zM45 700h118v-585h260v585h117v-700h-495v700z" />
    <glyph glyph-name="Ucircumflex" unicode="&#xdb;" 
d="M231 894h125l101 -184h-99l-65 63l-64 -63h-101zM45 700h118v-585h260v585h117v-700h-495v700z" />
    <glyph glyph-name="Udieresis" unicode="&#xdc;" 
d="M132 849h119v-114h-119v114zM336 849h118v-114h-118v114zM45 700h118v-585h260v585h117v-700h-495v700z" />
    <glyph glyph-name="Yacute" unicode="&#xdd;" horiz-adv-x="573" 
d="M294 898h129v-24l-145 -134h-98zM229 0v225q-8 23 -15.5 41t-16.5 35q-10 17 -19.5 35t-20.5 41l-153 323h121l159 -336h8l158 336h121l-152 -323q-11 -23 -21 -41t-20 -35q-8 -17 -16 -35t-16 -41v-2l1 -4v-219h-118z" />
    <glyph glyph-name="Thorn" unicode="&#xde;" horiz-adv-x="511" 
d="M45 699h118v-154h117q44 0 80 -16.5t61.5 -44t39.5 -63t14 -72.5t-14 -72.5t-39.5 -63t-61.5 -44t-80 -16.5h-117v-154h-118v700zM280 267q35 0 57.5 24.5t22.5 57.5t-22.5 58t-57.5 25h-117v-165h117z" />
    <glyph glyph-name="germandbls" unicode="&#xdf;" horiz-adv-x="631" 
 />
    <glyph glyph-name="agrave" unicode="&#xe0;" horiz-adv-x="483" 
d="M132 707h129l114 -158h-99l-144 134v24zM339 22q-50 -31 -108 -31q-44 0 -81 16.5t-63.5 44t-41 63t-14.5 73.5q0 39 15 72t41.5 56.5t63.5 36.5t80 13q22 0 43.5 -6t41.5 -16l-1 44h-265v116h383v-389h43v-115h-125zM149 183q0 -34 24.5 -57.5t62.5 -23.5t65 21.5
t27 55.5q0 40 -25 67t-69 27q-41 0 -63 -26t-22 -64z" />
    <glyph glyph-name="aacute" unicode="&#xe1;" horiz-adv-x="483" 
d="M284 707h129v-24l-145 -134h-98zM339 22q-50 -31 -108 -31q-44 0 -81 16.5t-63.5 44t-41 63t-14.5 73.5q0 39 15 72t41.5 56.5t63.5 36.5t80 13q22 0 43.5 -6t41.5 -16l-1 44h-265v116h383v-389h43v-115h-125zM149 183q0 -34 24.5 -57.5t62.5 -23.5t65 21.5t27 55.5
q0 40 -25 67t-69 27q-41 0 -63 -26t-22 -64z" />
    <glyph glyph-name="acircumflex" unicode="&#xe2;" horiz-adv-x="483" 
d="M186 700h125l101 -184h-99l-65 63l-64 -63h-101zM344 22q-50 -31 -108 -31q-44 0 -81 16.5t-63.5 44t-41 63t-14.5 73.5q0 39 15 72t41.5 57t63.5 37.5t80 13.5q46 0 84 -19v39h-265v116h383v-389h43v-115h-125zM149 183q0 -34 24.5 -57.5t62.5 -23.5t65 21.5t27 55.5
q0 40 -25 67t-69 27q-41 0 -63 -26t-22 -64z" />
    <glyph glyph-name="atilde" unicode="&#xe3;" horiz-adv-x="483" 
d="M68 532q-1 8 -1.5 17t-0.5 17q0 22 5 43.5t17 39t32.5 28t52.5 10.5q29 0 51 -13.5t39 -28.5q5 -4 8.5 -7.5t8.5 -6.5q4 -4 7.5 -6.5t7.5 -4.5q14 -11 23 -11q14 0 14 17q0 8 -1 16l-3 11q-1 8 -1 16q0 7 5 12l3 3l86 7l2 -11q2 -12 3 -24t1 -25q0 -20 -4 -39
t-14.5 -33.5t-28.5 -23.5t-47 -9q-35 0 -60.5 13t-42.5 27q-9 7 -16.5 14t-15.5 12q-13 9 -19 9q-7 0 -12.5 -8.5t-5.5 -22.5q0 -6 1 -13t3 -12l6 -14l-102 -10zM344 22q-50 -31 -108 -31q-44 0 -81 16.5t-63.5 44t-41 63t-14.5 73.5q0 39 15 74t41.5 60.5t63.5 40.5t80 15
q46 0 84 -19v29h-265v116h383v-389h43v-115h-125zM149 183q0 -34 24.5 -57.5t62.5 -23.5t65 21.5t27 55.5q0 40 -25 67t-69 27q-41 0 -63 -26t-22 -64z" />
    <glyph glyph-name="adieresis" unicode="&#xe4;" horiz-adv-x="483" 
d="M97 658h119v-114h-119v114zM301 658h118v-114h-118v114zM339 22q-50 -31 -108 -31q-44 0 -81 16.5t-63.5 44t-41 63t-14.5 73.5q0 39 15 72t41.5 56.5t63.5 36.5t80 13q22 0 43.5 -6t41.5 -16l-1 44h-265v116h383v-389h43v-115h-125zM149 183q0 -34 24.5 -57.5
t62.5 -23.5t65 21.5t27 55.5q0 40 -25 67t-69 27q-41 0 -63 -26t-22 -64z" />
    <glyph glyph-name="aring" unicode="&#xe5;" horiz-adv-x="483" 
d="M344 22q-50 -31 -108 -31q-44 0 -81 16.5t-63.5 44t-41 63t-14.5 73.5q0 39 15 74t41.5 60.5t63.5 40.5t80 15q46 0 84 -19v29h-265v116h64q-6 10 -11 21q-10 24 -10 50t10 49.5t28 42t43 29.5t55 11t54.5 -11t42.5 -29.5t28 -42.5t10 -49t-10 -49q-5 -12 -12 -22h91
v-389h43v-115h-125zM234 538q14 0 24.5 10.5t10.5 26.5q0 15 -10.5 25.5t-24.5 10.5q-16 0 -26.5 -10.5t-10.5 -25.5q0 -16 10.5 -26.5t26.5 -10.5zM149 183q0 -34 24.5 -57.5t62.5 -23.5t65 21.5t27 55.5q0 40 -25 67t-69 27q-41 0 -63 -26t-22 -64z" />
    <glyph glyph-name="ae" unicode="&#xe6;" horiz-adv-x="856" 
d="M58 505h382v-31q29 19 63 29.5t70 10.5q57 0 103.5 -22.5t79.5 -59.5t50.5 -83.5t17.5 -94.5q0 -22 -3 -43l-2 -10h-367q14 -39 45 -68t76 -29q32 0 58.5 16t43.5 42l4 5h131l-7 -16q-13 -33 -35.5 -62t-52 -50t-65.5 -33.5t-77 -12.5q-54 0 -99.5 21t-78.5 56
q-28 -35 -69.5 -56t-90.5 -21q-44 0 -81 16.5t-63.5 43.5t-40.5 57t-15 68v5q0 41 14.5 78t38.5 61t63.5 38.5t83.5 14.5q46 0 88 -20v43h-265v107zM694 306q-14 40 -45 68.5t-76 28.5t-76 -28.5t-45 -68.5h242zM235 102q18 0 35 7.5t29.5 19.5t20 27.5t7.5 32.5t-7.5 32.5
t-20 27.5t-29.5 19t-35 7q-37 0 -62 -25.5t-25 -60.5t25 -61t62 -26z" />
    <glyph glyph-name="ccedilla" unicode="&#xe7;" horiz-adv-x="474" 
d="M45 504h383v-188h-117v73h-151l2 -273h149v67h117v-183h-208l-1 -3l40 -5q48 -7 79.5 -34.5t31.5 -75.5q0 -24 -10 -46.5t-27.5 -39.5t-41.5 -27.5t-51 -10.5h-151v112h149q14 0 14 12q0 6 -7 8l-152 15l28 95h-76v504z" />
    <glyph glyph-name="egrave" unicode="&#xe8;" horiz-adv-x="570" 
d="M169 707h129l114 -158h-99l-144 134v24zM521 167l-7 -16q-13 -33 -35.5 -62t-52 -50t-65 -33.5t-76.5 -12.5q-57 0 -103.5 23t-79 59.5t-50 83t-17.5 94.5t17.5 94.5t50.5 83t79 59.5t103 23t103.5 -23t78.5 -59.5t49.5 -83t17.5 -94.5q0 -21 -3 -42l-2 -10h-365
q13 -40 44.5 -68.5t76.5 -28.5q32 0 58 15.5t43 41.5l4 6h131zM405 306q-14 39 -45 67t-75 28t-75.5 -28t-45.5 -67h241z" />
    <glyph glyph-name="eacute" unicode="&#xe9;" horiz-adv-x="570" 
d="M305 707h129v-24l-145 -134h-98zM521 167l-7 -16q-13 -33 -35.5 -62t-52 -50t-65 -33.5t-76.5 -12.5q-57 0 -103.5 23t-79 59.5t-50 83t-17.5 94.5t17.5 94.5t50.5 83t79 59.5t103 23t103.5 -23t78.5 -59.5t49.5 -83t17.5 -94.5q0 -21 -3 -42l-2 -10h-365
q13 -40 44.5 -68.5t76.5 -28.5q32 0 58 15.5t43 41.5l4 6h131zM405 306q-14 39 -45 67t-75 28t-75.5 -28t-45.5 -67h241z" />
    <glyph glyph-name="ecircumflex" unicode="&#xea;" horiz-adv-x="570" 
d="M223 700h125l101 -184h-99l-65 63l-64 -63h-101zM521 167l-7 -16q-13 -33 -35.5 -62t-52 -50t-65 -33.5t-76.5 -12.5q-57 0 -103.5 23t-79 59.5t-50 83t-17.5 94.5t17.5 94.5t50.5 83t79 59.5t103 23t103.5 -23t78.5 -59.5t49.5 -83t17.5 -94.5q0 -21 -3 -42l-2 -10h-365
q13 -40 44.5 -68.5t76.5 -28.5q32 0 58 15.5t43 41.5l4 6h131zM405 306q-14 39 -45 67t-75 28t-75.5 -28t-45.5 -67h241z" />
    <glyph glyph-name="edieresis" unicode="&#xeb;" horiz-adv-x="570" 
d="M124 658h119v-114h-119v114zM328 658h118v-114h-118v114zM521 167l-7 -16q-13 -33 -35.5 -62t-52 -50t-65 -33.5t-76.5 -12.5q-57 0 -103.5 23t-79 59.5t-50 83t-17.5 94.5t17.5 94.5t50.5 83t79 59.5t103 23t103.5 -23t78.5 -59.5t49.5 -83t17.5 -94.5q0 -21 -3 -42
l-2 -10h-365q13 -40 44.5 -68.5t76.5 -28.5q32 0 58 15.5t43 41.5l4 6h131zM405 306q-14 39 -45 67t-75 28t-75.5 -28t-45.5 -67h241z" />
    <glyph glyph-name="igrave" unicode="&#xec;" horiz-adv-x="209" 
d="M-20 707h129l114 -158h-99l-144 134v24zM45 189q0 77 1 152.5t2 151.5v12h115v-503h-118v187z" />
    <glyph glyph-name="iacute" unicode="&#xed;" horiz-adv-x="210" 
d="M130 707h129v-24l-145 -134h-98zM45 189q0 77 1 152.5t2 151.5v12h116v-503h-119v187z" />
    <glyph glyph-name="icircumflex" unicode="&#xee;" horiz-adv-x="209" 
d="M43 700h125l101 -184h-99l-65 63l-64 -63h-101zM45 189q0 77 1 152.5t2 151.5v12h116v-503h-119v187z" />
    <glyph glyph-name="idieresis" unicode="&#xef;" horiz-adv-x="209" 
d="M-57 658h119v-114h-119v114zM147 658h118v-114h-118v114zM45 189q0 77 1 152.5t2 151.5v12h116v-503h-119v187z" />
    <glyph glyph-name="eth" unicode="&#xf0;" 
d="M165 581l53 26q-18 10 -33.5 16t-33.5 10l-9 2v109l15 -3q22 -4 46 -12t47 -19t45 -24t40 -25l106 50v-84l-38 -19q76 -72 112 -162.5t36 -190.5q0 -49 -16 -96.5t-47.5 -84.5t-78 -59.5t-107.5 -22.5q-58 0 -107 22t-84.5 58t-55.5 83t-20 98t19 98t53.5 84t82.5 59
t107 22q25 0 47 -8q-21 26 -49 49l-130 -63v87zM302 104q31 0 55.5 13t41.5 34.5t26 48t9 53.5q0 28 -9 55t-26 48t-41.5 34t-55.5 13t-57 -13t-45 -34t-30 -48t-11 -55q0 -27 11 -54t30 -48t45.5 -34t56.5 -13z" />
    <glyph glyph-name="ntilde" unicode="&#xf1;" horiz-adv-x="516" 
d="M79 532q-1 8 -1.5 17t-0.5 17q0 22 5 43.5t17 39t32.5 28t52.5 10.5q29 0 51 -13.5t39 -28.5q5 -4 8.5 -7.5t8.5 -6.5q4 -4 7.5 -6.5t7.5 -4.5q14 -11 23 -11q14 0 14 17q0 8 -1 16l-3 11q-1 8 -1 16q0 7 5 12l3 3l86 7l2 -11q2 -12 3 -24t1 -25q0 -20 -4 -39
t-14.5 -33.5t-28.5 -23.5t-47 -9q-35 0 -60.5 13t-42.5 27q-9 7 -16.5 14t-15.5 12q-13 9 -19 9q-7 0 -12.5 -8.5t-5.5 -22.5q0 -6 1 -13t3 -12l6 -14l-102 -10zM45 504h425v-504h-118v390h-189v-390h-118v504z" />
    <glyph glyph-name="ograve" unicode="&#xf2;" horiz-adv-x="571" 
d="M169 707h129l114 -158h-99l-144 134v24zM285 -7q-57 0 -103 22.5t-79 59.5t-50.5 83t-17.5 94t17.5 94.5t50 83.5t79 60t103.5 23q58 0 104 -23t78.5 -60t50 -83.5t17.5 -94.5t-17.5 -94t-50 -83t-79 -59.5t-103.5 -22.5zM285 104q30 0 54 13t41 34t26 47.5t9 53.5
t-9 53.5t-26 48t-41 34.5t-54 13t-54 -13t-40.5 -34.5t-25.5 -48t-9 -53.5t9 -53.5t25.5 -47.5t40.5 -34t54 -13z" />
    <glyph glyph-name="oacute" unicode="&#xf3;" horiz-adv-x="571" 
d="M272 707h129v-24l-145 -134h-98zM285 -7q-57 0 -103 22.5t-79 59.5t-50.5 83t-17.5 94t17.5 94.5t50 83.5t79 60t103.5 23q58 0 104 -23t78.5 -60t50 -83.5t17.5 -94.5t-17.5 -94t-50 -83t-79 -59.5t-103.5 -22.5zM285 104q30 0 54 13t41 34t26 47.5t9 53.5t-9 53.5
t-26 48t-41 34.5t-54 13t-54 -13t-40.5 -34.5t-25.5 -48t-9 -53.5t9 -53.5t25.5 -47.5t40.5 -34t54 -13z" />
    <glyph glyph-name="ocircumflex" unicode="&#xf4;" horiz-adv-x="571" 
d="M223 700h125l101 -184h-99l-65 63l-64 -63h-101zM285 -7q-57 0 -103 22.5t-79 59.5t-50.5 83t-17.5 94t17.5 94.5t50 83.5t79 60t103.5 23q58 0 104 -23t78.5 -60t50 -83.5t17.5 -94.5t-17.5 -94t-50 -83t-79 -59.5t-103.5 -22.5zM285 104q30 0 54 13t41 34t26 47.5
t9 53.5t-9 53.5t-26 48t-41 34.5t-54 13t-54 -13t-40.5 -34.5t-25.5 -48t-9 -53.5t9 -53.5t25.5 -47.5t40.5 -34t54 -13z" />
    <glyph glyph-name="otilde" unicode="&#xf5;" horiz-adv-x="571" 
d="M107 532q-1 8 -1.5 17t-0.5 17q0 22 5 43.5t17 39t32.5 28t52.5 10.5q29 0 51 -13.5t39 -28.5q5 -4 8.5 -7.5t8.5 -6.5q4 -4 7.5 -6.5t7.5 -4.5q14 -11 23 -11q14 0 14 17q0 8 -1 16l-3 11q-1 8 -1 16q0 7 5 12l3 3l86 7l2 -11q2 -12 3 -24t1 -25q0 -20 -4 -39
t-14.5 -33.5t-28.5 -23.5t-47 -9q-35 0 -60.5 13t-42.5 27q-9 7 -16.5 14t-15.5 12q-13 9 -19 9q-7 0 -12.5 -8.5t-5.5 -22.5q0 -6 1 -13t3 -12l6 -14l-102 -10zM285 -7q-57 0 -103 22.5t-79 59.5t-50.5 83t-17.5 94t17.5 94.5t50 83.5t79 60t103.5 23q58 0 104 -23
t78.5 -60t50 -83.5t17.5 -94.5t-17.5 -94t-50 -83t-79 -59.5t-103.5 -22.5zM285 104q30 0 54 13t41 34t26 47.5t9 53.5t-9 53.5t-26 48t-41 34.5t-54 13t-54 -13t-40.5 -34.5t-25.5 -48t-9 -53.5t9 -53.5t25.5 -47.5t40.5 -34t54 -13z" />
    <glyph glyph-name="odieresis" unicode="&#xf6;" horiz-adv-x="571" 
d="M124 658h119v-114h-119v114zM328 658h118v-114h-118v114zM285 -7q-57 0 -103 22.5t-79 59.5t-50.5 83t-17.5 94t17.5 94.5t50 83.5t79 60t103.5 23q58 0 104 -23t78.5 -60t50 -83.5t17.5 -94.5t-17.5 -94t-50 -83t-79 -59.5t-103.5 -22.5zM285 104q30 0 54 13t41 34
t26 47.5t9 53.5t-9 53.5t-26 48t-41 34.5t-54 13t-54 -13t-40.5 -34.5t-25.5 -48t-9 -53.5t9 -53.5t25.5 -47.5t40.5 -34t54 -13z" />
    <glyph glyph-name="divide" unicode="&#xf7;" horiz-adv-x="287" 
d="M79 562h118v-115h-118v115zM-83 353h452v-114h-452v114zM79 164h118v-115h-118v115z" />
    <glyph glyph-name="oslash" unicode="&#xf8;" horiz-adv-x="582" 
d="M285 -7q-51 0 -93 18l-8 -11h-143l57 81q-29 35 -45 77q-18 46 -18 94t17.5 94.5t50 83.5t79 60t103.5 23q55 0 100 -21l9 13h152l-65 -91q23 -31 37 -67q17 -47 17 -95t-17.5 -94t-50 -83t-79 -59.5t-103.5 -22.5zM318 396q-15 5 -33 5q-30 0 -54 -13t-40.5 -34.5
t-25.5 -48t-9 -53.5t9 -53q2 -7 5 -14zM285 104q30 0 54 13t41 34t26 47.5t9 53.5t-9 54q-1 1 -1 2l-145 -202q12 -2 25 -2z" />
    <glyph glyph-name="ugrave" unicode="&#xf9;" horiz-adv-x="516" 
d="M136 707h129l114 -158h-99l-144 134v24zM45 504h118v-389h189v389h118v-504h-425v504z" />
    <glyph glyph-name="uacute" unicode="&#xfa;" horiz-adv-x="516" 
d="M267 707h129v-24l-145 -134h-98zM45 504h118v-389h189v389h118v-504h-425v504z" />
    <glyph glyph-name="ucircumflex" unicode="&#xfb;" horiz-adv-x="516" 
d="M219 700h125l101 -184h-99l-65 63l-64 -63h-101zM45 504h118v-389h189v389h118v-504h-425v504z" />
    <glyph glyph-name="udieresis" unicode="&#xfc;" horiz-adv-x="516" 
d="M120 658h119v-114h-119v114zM324 658h118v-114h-118v114zM45 504h118v-389h189v389h118v-504h-425v504z" />
    <glyph glyph-name="yacute" unicode="&#xfd;" horiz-adv-x="619" 
d="M317 707h129v-24l-145 -134h-98zM88 -79h369v120q-35 -23 -74.5 -36t-82.5 -13q-61 0 -108.5 23t-80 61t-49.5 86t-17 99v243h118v-243q0 -30 9 -59t26.5 -52t43 -37t58.5 -14t62 14t50 37t33 52t12 59v117q0 17 -0.5 25.5t-0.5 12.5q0 10 1 21v0l2 7q2 2 3 5l4.5 9
t5.5 10q5 10 9.5 18.5t5.5 10.5l4 7h125v-115h-42v-582h-486v114z" />
    <glyph glyph-name="thorn" unicode="&#xfe;" horiz-adv-x="594" 
d="M45 585h-42v114h124l4 -6q1 -2 5.5 -10.5t10.5 -19.5q3 -5 5.5 -9.5t4.5 -8.5q1 -2 2 -3.5t1 -2.5l3 -6q1 -13 1 -22q0 -5 -0.5 -13.5t-0.5 -27.5v-100q66 43 147 43q59 0 105.5 -22t78 -58t48 -82.5t16.5 -95.5t-16 -96.5t-47.5 -84.5t-78 -60t-106.5 -23q-82 0 -147 45
v-230h-118v779zM310 103q30 0 54.5 13.5t41.5 35t26 49t9 54.5t-9.5 53t-26.5 47t-41 34t-54 13t-55 -13t-44 -33.5t-29.5 -47t-10.5 -53.5q0 -28 10 -55t28.5 -48.5t44 -35t56.5 -13.5z" />
    <glyph glyph-name="ydieresis" unicode="&#xff;" horiz-adv-x="619" 
d="M169 658h119v-114h-119v114zM373 658h118v-114h-118v114zM88 -79h369v120q-35 -23 -74.5 -36t-82.5 -13q-61 0 -108.5 23t-80 61t-49.5 86t-17 99v243h118v-243q0 -30 9 -59t26.5 -52t43 -37t58.5 -14t62 14t50 37t33 52t12 59v117q0 17 -0.5 25.5t-0.5 12.5q0 10 1 21v0
l2 7q2 2 3 5l4.5 9t5.5 10q5 10 9.5 18.5t5.5 10.5l4 7h125v-115h-42v-582h-486v114z" />
    <glyph glyph-name="Dcroat" unicode="&#x110;" horiz-adv-x="616" 
d="M44 216h-75v115h75v369h190q78 0 141.5 -30t109 -79t70.5 -112t25 -129t-25 -129t-70.5 -112t-109 -79t-141.5 -30h-190v216zM234 113q51 0 92 20.5t70.5 53.5t45.5 75.5t16 87.5t-16 87.5t-45.5 75.5t-70.5 53t-92 20h-73v-255h75v-115h-75v-103h73z" />
    <glyph glyph-name="dcroat" unicode="&#x111;" horiz-adv-x="593" 
d="M430 35q-32 -22 -70 -33t-78 -11q-60 0 -106 22.5t-77.5 59t-47.5 83t-16 95.5t16 96t47.5 83.5t77.5 59t106 22.5q40 0 77.5 -11.5t70.5 -32.5v101q0 18 -0.5 27t-0.5 14q0 10 1 22q0 1 3 7l2 6q2 3 4.5 8t5.5 10q6 11 10.5 19t5.5 10l4 7h124v-113h-41v-586h-118v35z
M282 103q30 0 56 13t45 34t29.5 47.5t10.5 53.5t-10.5 54t-29.5 48t-45 34t-56 13t-54.5 -13t-42 -34t-26.5 -48t-9 -54t9 -53.5t26.5 -47.5t42 -34t54.5 -13z" />
    <glyph glyph-name="dotlessi" unicode="&#x131;" horiz-adv-x="283" 
d="M76 505h118v-505h-118v505z" />
    <glyph glyph-name="Lslash" unicode="&#x141;" horiz-adv-x="575" 
d="M44 143l-49 -38v118l49 37v440h119v-352l103 78v-118l-103 -77v-116h377v-115h-496v143z" />
    <glyph glyph-name="lslash" unicode="&#x142;" horiz-adv-x="231" 
d="M64 155l-66 -50v118l66 50v427h117v-339l88 65v-118l-88 -66v-242h-117v155z" />
    <glyph glyph-name="OE" unicode="&#x152;" horiz-adv-x="1146" 
d="M385 -7q-78 0 -142 31t-109 81.5t-69.5 114.5t-24.5 130t24.5 130t69.5 114.5t109 81.5t142 31q79 0 143 -31q50 -24 88 -60v84h495v-115h-378v-254h277v-115h-277v-101h378v-115h-495v84q-38 -36 -88 -60q-64 -31 -143 -31zM385 106q51 0 92.5 21.5t71 56t45 78
t15.5 88.5t-15.5 89t-45 78.5t-71 55.5t-92.5 21t-92 -21t-70.5 -55.5t-45 -78.5t-15.5 -89t15.5 -88.5t45 -78t70.5 -56t92 -21.5z" />
    <glyph glyph-name="oe" unicode="&#x153;" horiz-adv-x="1169" 
 />
    <glyph glyph-name="Scaron" unicode="&#x160;" horiz-adv-x="543" 
d="M9 264h116l1 -11q6 -67 40.5 -106t109.5 -39q28 0 53 4.5t43.5 15t29.5 28t11 43.5q0 19 -5.5 35.5t-19.5 28.5q-28 26 -70.5 39.5t-83.5 22.5q-50 11 -95 31q-43 20 -74 57q-19 22 -24.5 49.5t-5.5 52.5q0 48 18 84t49.5 60t73.5 36q16 5 34 8l-100 178h101l64 -64
l65 64h99l-99 -181q60 -13 101 -49q63 -56 68 -158l1 -11h-116l-2 9q-9 51 -37.5 76.5t-85.5 25.5q-22 0 -43 -4t-37 -13t-25.5 -23t-9.5 -35q0 -23 13.5 -38t38.5 -26q13 -6 27.5 -11t30.5 -10q17 -5 34.5 -9t35.5 -9q35 -10 70.5 -24.5t64 -38t46 -57.5t17.5 -84
q0 -15 -2.5 -31t-5.5 -31q-11 -45 -38.5 -77t-69.5 -54q-31 -16 -64.5 -20.5t-65.5 -4.5q-85 0 -154 33t-103 109q-13 30 -16.5 58.5t-3.5 58.5v12z" />
    <glyph glyph-name="scaron" unicode="&#x161;" horiz-adv-x="486" 
d="M146 194l1 -11q1 -4 1 -8.5t1 -9.5t1.5 -9t1.5 -8q10 -29 36 -38t61 -9q32 0 57.5 12t25.5 38q0 13 -10 22q-9 6 -29.5 12.5t-34.5 9.5l-89 21q-54 14 -88.5 44.5t-34.5 86.5q0 41 15.5 72t41.5 52t62 32l28 6l-100 178h101l64 -64l65 64h99l-101 -184h-5q3 -1 6 -1
q36 -12 62.5 -34t41 -54.5t14.5 -74.5v-11h-116l-2 20q-3 34 -26 45t-62 11q-27 0 -47.5 -10.5t-20.5 -31.5q0 -15 8 -20q5 -5 26 -10q10 -3 18.5 -5.5t13.5 -3.5l76 -20q29 -7 55.5 -17t47 -26t32.5 -39.5t12 -57.5q0 -41 -16.5 -73t-44.5 -53.5t-65.5 -32.5t-78.5 -11
q-28 0 -57.5 3.5t-56 14t-48.5 28.5t-36 46q-5 10 -10 21.5t-7 23.5q-2 14 -2.5 26t-2.5 25l-1 13h117z" />
    <glyph glyph-name="Ydieresis" unicode="&#x178;" horiz-adv-x="572" 
d="M114 849h119v-114h-119v114zM318 849h118v-114h-118v114zM226 0v225q-8 23 -15.5 41t-16.5 35q-10 17 -19.5 35t-20.5 41l-153 323h121l159 -336h8l158 336h121l-152 -323q-11 -23 -21 -41t-20 -35q-8 -17 -16 -35t-16 -41v-2l1 -4v-219h-118z" />
    <glyph glyph-name="Zcaron" unicode="&#x17d;" horiz-adv-x="565" 
d="M45 81l315 504h-315v115h168l-101 181h101l64 -64l65 64h99l-99 -181h178v-86l-322 -508q5 2 21 3.5t39.5 2t52 1.5t57.5 1q68 1 152 1v-115h-475v81z" />
    <glyph glyph-name="zcaron" unicode="&#x17e;" horiz-adv-x="471" 
d="M45 108l220 282h-220v114h109l-102 183h101l64 -64l65 64h99l-100 -183h144v-107l-221 -281h221v-116h-380v108z" />
    <glyph glyph-name="florin" unicode="&#x192;" horiz-adv-x="342" 
d="M66 388h-83v115h83v241h397v-114h-280v-127h171v-115h-171v-388h-117v388z" />
    <glyph glyph-name="circumflex" unicode="&#x2c6;" horiz-adv-x="400" 
d="M138 700h125l101 -184h-99l-65 63l-64 -63h-101z" />
    <glyph glyph-name="caron" unicode="&#x2c7;" horiz-adv-x="456" 
d="M63 687h101l64 -64l65 64h99l-101 -184h-125z" />
    <glyph glyph-name="breve" unicode="&#x2d8;" horiz-adv-x="366" 
d="M125 563v-12q0 -28 12 -40.5t42 -12.5q31 0 42.5 12t11.5 41v12h99v-12q0 -66 -39 -106.5t-114 -40.5q-74 0 -112.5 40.5t-38.5 106.5v12h97z" />
    <glyph glyph-name="dotaccent" unicode="&#x2d9;" horiz-adv-x="285" 
d="M86 553h118v-114h-118v114z" />
    <glyph glyph-name="ring" unicode="&#x2da;" horiz-adv-x="273" 
d="M0 574q0 26 10 49.5t28 42t43 29.5t55 11t54.5 -11t42.5 -29.5t28 -42.5t10 -49t-10 -49t-28 -43t-42.5 -30t-54.5 -11t-55 11t-43 29.5t-28 42.5t-10 50zM136 537q14 0 24.5 10.5t10.5 26.5q0 15 -10.5 25.5t-24.5 10.5q-16 0 -26.5 -10.5t-10.5 -25.5q0 -16 10.5 -26.5
t26.5 -10.5z" />
    <glyph glyph-name="ogonek" unicode="&#x2db;" horiz-adv-x="282" 
d="M128 -242q-27 0 -51 10.5t-41.5 27.5t-27.5 39.5t-10 46.5q0 48 31.5 75.5t79.5 34.5l40 5l-10 30l68 52h16l52 -174l-152 -15q-7 -2 -7 -8q0 -12 14 -12h149v-112h-151z" />
    <glyph glyph-name="tilde" unicode="&#x2dc;" horiz-adv-x="422" 
d="M32 532q-1 8 -1.5 17t-0.5 17q0 22 5 43.5t17 39t32.5 28t52.5 10.5q29 0 51 -13.5t39 -28.5q5 -4 8.5 -7.5t8.5 -6.5q4 -4 7.5 -6.5t7.5 -4.5q14 -11 23 -11q14 0 14 17q0 8 -1 16l-3 11q-1 8 -1 16q0 7 5 12l3 3l86 7l2 -11q2 -12 3 -24t1 -25q0 -20 -4 -39
t-14.5 -33.5t-28.5 -23.5t-47 -9q-35 0 -60.5 13t-42.5 27q-9 7 -16.5 14t-15.5 12q-13 9 -19 9q-7 0 -12.5 -8.5t-5.5 -22.5q0 -6 1 -13t3 -12l6 -14l-102 -10z" />
    <glyph glyph-name="hungarumlaut" unicode="&#x2dd;" horiz-adv-x="512" 
d="M139 707h129v-24l-145 -134h-98zM323 707h129v-24l-145 -134h-98z" />
    <glyph glyph-name="uni03BC" unicode="&#x3bc;" horiz-adv-x="623" 
 />
    <glyph glyph-name="endash" unicode="&#x2013;" horiz-adv-x="521" 
d="M73 353h383v-114h-383v114z" />
    <glyph glyph-name="emdash" unicode="&#x2014;" horiz-adv-x="1013" 
d="M73 353h881v-114h-881v114z" />
    <glyph glyph-name="quoteleft" unicode="&#x2018;" horiz-adv-x="214" 
d="M107 706h129l-99 -178h-129z" />
    <glyph glyph-name="quoteright" unicode="&#x2019;" horiz-adv-x="208" 
d="M80 706h127l-95 -245h-126z" />
    <glyph glyph-name="quotesinglbase" unicode="&#x201a;" horiz-adv-x="285" 
d="M139 114h127l-95 -217h-128z" />
    <glyph glyph-name="quotedblleft" unicode="&#x201c;" horiz-adv-x="396" 
d="M271 706h129l-99 -178h-128zM107 706h129l-99 -178h-129z" />
    <glyph glyph-name="quotedblright" unicode="&#x201d;" horiz-adv-x="390" 
d="M267 706h127l-95 -245h-126zM103 706h127l-95 -245h-127z" />
    <glyph glyph-name="quotedblbase" unicode="&#x201e;" horiz-adv-x="449" 
d="M294 114h127l-96 -217h-128zM139 114h127l-95 -217h-128z" />
    <glyph glyph-name="dagger" unicode="&#x2020;" horiz-adv-x="282" 
d="M85 493h-103v115h103v91h118v-91h102v-115h-102v-297h-118v297z" />
    <glyph glyph-name="daggerdbl" unicode="&#x2021;" horiz-adv-x="281" 
d="M82 700h118v-187h117v-115h-117v-63h117v-114h-117v-348h-118v348h-118v114h118v63h-118v115h118v187z" />
    <glyph glyph-name="bullet" unicode="&#x2022;" horiz-adv-x="400" 
d="M124 399h167v-160h-167v160z" />
    <glyph glyph-name="ellipsis" unicode="&#x2026;" horiz-adv-x="820" 
d="M87 115h118v-115h-118v115zM351 115h118v-115h-118v115zM615 115h118v-115h-118v115z" />
    <glyph glyph-name="perthousand" unicode="&#x2030;" horiz-adv-x="1163" 
d="M539 700h129l-392 -700h-129zM50 517q0 30 12 58.5t33 50.5t50.5 35.5t65.5 13.5t66 -13t51 -35t33 -50.5t12 -59.5t-12 -59.5t-33.5 -50.5t-51 -35t-65.5 -13q-35 0 -64.5 13t-51 35t-33.5 50.5t-12 59.5zM211 470q20 0 33.5 13.5t13.5 33.5q0 19 -13.5 33t-33.5 14
t-33 -14t-13 -33q0 -20 13.5 -33.5t32.5 -13.5zM794 184q0 31 12 59.5t33 50.5t50.5 35.5t65.5 13.5t66 -13t51 -35t33 -51t12 -60q0 -30 -12 -58.5t-33.5 -50.5t-51 -35t-65.5 -13q-35 0 -64.5 13t-51 35t-33.5 50.5t-12 58.5zM449 184q0 31 12 59.5t33 50.5t51 35.5
t66 13.5t65.5 -13t50.5 -35t33 -51t12 -60q0 -30 -12 -58.5t-33.5 -50.5t-51 -35t-64.5 -13q-36 0 -65.5 13t-51 35t-33.5 50.5t-12 58.5zM955 138q20 0 33.5 13.5t13.5 32.5q0 20 -13.5 34t-33.5 14t-33 -14t-13 -34q0 -19 13.5 -32.5t32.5 -13.5zM611 138q19 0 32.5 13.5
t13.5 32.5q0 20 -13 34t-33 14t-33 -14t-13 -34q0 -19 13 -32.5t33 -13.5z" />
    <glyph glyph-name="guilsinglleft" unicode="&#x2039;" horiz-adv-x="342" 
d="M38 358l140 252h129l-139 -252l139 -252h-129z" />
    <glyph glyph-name="guilsinglright" unicode="&#x203a;" horiz-adv-x="343" 
d="M178 358l-140 252h129l140 -252l-140 -252h-129z" />
    <glyph glyph-name="fraction" unicode="&#x2044;" horiz-adv-x="570" 
d="M416 700h129l-392 -700h-129z" />
    <glyph glyph-name="Euro" unicode="&#x20ac;" horiz-adv-x="591" 
d="M85 700h455v-700h-455v700zM204 513h217v71h-217v-71zM204 335h217v63h-217v-63zM421 116v105h-217v-105h217z" />
    <glyph glyph-name="trademark" unicode="&#x2122;" horiz-adv-x="1334" 
d="M225 585h-189v115h496v-115h-189v-585h-118v585zM584 700h202l149 -449l152 449h201v-700h-119v554l-147 -430h-175l-143 430v-554h-120v700z" />
    <glyph glyph-name="minus" unicode="&#x2212;" horiz-adv-x="591" 
d="M63 353h452v-114h-452v114z" />
    <glyph glyph-name="fi" unicode="&#xfb01;" horiz-adv-x="621" 
d="M190 388h-83v115h83v241h397v-114h-280v-127h262v-503h-117l-1 388h-144v-388h-117v388z" />
    <glyph glyph-name="fl" unicode="&#xfb02;" horiz-adv-x="620" 
d="M5 388h-83v115h83v241h450v-744h-117v630h-216v-127h171v-115h-171v-388h-117v388z" />
    <glyph glyph-name="none" horiz-adv-x="0" 
d="M-2412 586h393v-107h120v221h1034v-264h-608v-22h608v-115h711v-299h-711v299h-506v114h-102v1h-118v22h118v77h-118v-77h-30574v-22h30574v-1h-101v-114h321v-1h-102v-99h-118v99h-101v1h-30421v115h-171v22h119v264h29753v-114zM9503 347q0 -21 9 -41q1 -4 3 -7h206
q-8 -16 -22 -29q-16 -16 -37.5 -25t-45.5 -9q-25 0 -45.5 9.5t-35.5 25.5q-12 12 -20 28h-564v115h-268l-58 22h318l-477 181v-120l159 -61h-321v-22h379l149 -57v-11l-125 -47h244v-29l-485 -183v121l241 91h-403v46h-320v-46h320v-70h-320v70h-494l-125 47v11l149 57h-267
v19l8 3h317l159 61v120l-476 -181h-1622v-22h1614v-115h243l241 -91v-121l-484 183v29h-291v54h-454v-54h454v-61h-454v61h-769v114h-100v1h-119v22h119v77h-119v-77h-288l-23 -22h311v-1h-101v-114h320v-1h-100v-99h-119v99h-101v1h-852v105h-61l-2 10h-120q-4 13 -10 22
h125q-5 18 -12 35q-15 32 -39 56t-57.5 38.5t-77.5 14.5q-45 0 -76.5 -15.5t-53.5 -41t-35 -56.5q-7 -15 -13 -31h-211q-6 -10 -11 -22h214q-1 -5 -3 -10h-214q1 5 3 10h-121q2 11 5 22h127q13 21 34 32q35 18 91 23l12 1v112h-27q-52 0 -94 -14.5t-72.5 -41t-49.5 -62.5
q-13 -24 -21 -50h-796q5 -11 9 -22h782l-2 -10h-64v-105h841v-11h-63q-16 -75 -69.5 -121.5t-141.5 -51.5h-14v111l11 2q36 6 59 19t34 41h-167q-10 -34 -25.5 -68.5t-39.5 -62.5t-58 -46t-82 -18q-101 0 -157 54t-66 141h-62v11h-712l2 4q6 23 6 47t-6 48l-6 16h-379
q4 11 9 22h361q-1 3 -3 6l66 65l-82 82l-66 -65q-23 11 -46.5 17.5t-49.5 6.5q-25 0 -48.5 -6.5t-45.5 -17.5l-65 65l-82 -82l65 -64q-2 -3 -4 -7h-761l4 -22h748q-12 -31 -12 -64q0 -26 7 -51h388q-6 -22 -16 -42l66 -65l-82 -81l-67 66q-22 -11 -45.5 -17.5t-49.5 -6.5
q-24 0 -47.5 6t-45.5 17l-66 -65l-82 81l65 64q-12 21 -18 43h-517v110h-225q-1 2 -1 5h-121q-1 2 -1 4l-2 18h120q-1 5 -1 10q-3 18 -3 37q0 97 109 97q25 0 44.5 -3.5t37 -11t34.5 -18t38 -24.5l10 -8l67 91l-46 35q-38 28 -84 41t-94 13q-56 0 -99.5 -16t-73.5 -45
t-45.5 -69.5t-15.5 -90.5q0 -19 2 -38h-103v-22h106q3 -26 10 -51q7 -27 16 -53q2 -6 3 -11h318v-6h-193q5 -14 10 -29t10 -31q7 -20 11 -39.5t4 -39.5q0 -8 -1.5 -18.5t-6.5 -20.5h291v-115h-483v115h74q9 8 9 24q0 12 -3 27t-8 32q-5 16 -9.5 31t-8.5 28q-6 21 -14 42
h-236v47h101v68h-321v22h321v26h-101v32h103v114h-103v92h1808v-179h118v179h42v-179h119v179h976v-178h118v178h327l12 -94l-59 76l-57 -57l80 -59l-101 14v-80l102 14l-82 -61l18 -17h-477q3 -11 5 -22h495l17 -16l13 16h-30l-23 22h70l29 37l-5 -37h-24l-17 -22h38
l-4 -35h83l-5 35h-74l3 22h68l-5 36l29 -36h-24l3 -22h38l13 -16l17 16h-30l-17 22h70l18 17l-82 61l103 -14v80l-102 -14l81 59l-58 56l-59 -74l13 93h809l-85 -263h122l50 149l55 -149h125l-99 263h4028v-264h-462q8 -5 16 -12q5 -5 9 -10h437v-115h118v-184h115v-115
h-233v299h-424l4 6q9 20 9 42t-9 42q-7 14 -17 25h-181q4 5 8 9q7 7 16 13h132q-10 7 -22 12q-21 9 -45 9q-25 0 -45 -9q-11 -5 -20 -12h-608l8 -3v-19h576q-9 -12 -15 -26q-9 -20 -9 -41zM33093 298v1h-200v115h-119v22h119v115h-73l73 40v109h347l-2 -9q-8 -27 -18.5 -46
t-25.5 -30.5t-36.5 -16.5t-51.5 -5h-13v-115h13q16 0 35 1.5t38.5 5.5t38.5 11.5t34 18.5v-79h-359v-22h200v-115h330v-1h-330zM32573 299h-1540v115h-515v22h515v264h899v-114h201v-35h-201v-115h-260q-16 -14 -39 -22h299v-115h319v115h-319v22h319v264h322v-114h103
l-103 -55v-95h-522v-22h522v-115zM10523 0v115h114v184h-374v115h-118v22h118v150h115v114h145v-114h114v-150h-374v-22h374v-115h119v-299h-233zM11828 291v8h-1072v115h-119v22h119v264h1324q-23 0 -51 -3t-51 -15q-29 -15 -42.5 -43.5t-18.5 -58.5q-5 -31 -5.5 -61.5
t-0.5 -53.5v-29h-1155v-22h1154q-1 -1 -1 -2q-1 -5 -7 -5h-74v-108h181q3 -17 3 -32q1 -9 1 -18v-48q0 -18 3 -38q4 -20 10.5 -33.5t17.5 -18.5q8 -5 19 -6t24 -1q9 0 18.5 0.5t20.5 0.5h13v-105h-59q-23 0 -49 3t-49 14q-29 15 -43.5 43t-19.5 59q-6 31 -7 61.5t-1 52.5v46
q0 5 -2 8q-1 4 -7 4h-74zM18877 320l119 13l-3 12q-1 6 -2 11.5t-3 10.5t-3 9.5t-1 9.5v3q4 0 17 -8q7 -5 15 -10.5t17 -11.5q18 -12 41 -23t50 -11q32 0 54 9t35.5 25t19.5 38q2 8 4 17h-361q1 5 2 11q1 5 3 11h231q-1 1 -3 2q-6 5 -13 11.5t-15 13.5q-17 14 -41 26t-56 12
q-33 0 -54.5 -10t-33.5 -27q-10 -13 -15 -28h-621l-12 -22h236v-115h225v-85h-225v85h-1581l-33 59l31 56h-129l13 22h129l97 173h-130l-96 -173h-2701q6 -11 11 -22h2677l-31 -56l33 -59h129l108 -193h-130l-107 193h-2656v9q0 48 -16 92q-3 7 -7 14h-127q-11 14 -28 22
h144q-12 22 -29 41q-30 34 -73 56.5t-96 28.5v82h-118v-80h-30v80h-118v-82q-55 -6 -98 -27.5t-73 -54.5q-18 -20 -31 -44h-69q1 -8 1 -16v-6h58q-3 -6 -5 -12q-16 -44 -16 -94v-9h119q2 -48 21 -80q21 -35 80 -49q5 -4 7.5 -22.5t3.5 -38.5q2 -24 2 -53l-15 2q-52 7 -93 30
t-68.5 56.5t-41.5 75.5q-14 38 -15 79h-54q9 17 13 37q5 25 5 51q0 14 -1 27h-122v2q-2 10 -2 20h123l-2 16l-2 12l-111 -11l-3 -3q-3 -2 -4 -6t-1 -6v-2h-140q16 -11 30 -22h112l3 -13q2 -11 2 -22q0 -15 -5 -21t-19 -6q-13 0 -35 14q-5 4 -10 7.5t-10 8.5q-3 3 -6 5
l-11 10q-3 3 -6 5q-7 6 -15 12h-211q10 12 24 22h157q-3 2 -7 5q-29 18 -67 18q-41 0 -68 -14q-8 -4 -15 -9h-916q-1 -7 -1 -14q0 -4 -1 -8h894q-2 -3 -4 -5q-16 -23 -22 -52q-7 -29 -7 -58h119q1 -15 5 -33l4 -13l-124 -13l-2 12q-1 11 -1.5 23t-0.5 23v1h-863l-2 8
q-4 14 -11 25t-20 18q19 11 29 36q5 13 6 28h-101q1 3 1 7v15h102v19v48q0 18 4 37q6 40 27 50q8 4 19 5t23 1q10 0 19.5 -0.5t20.5 -0.5h13v105h203l99 -179h130l-100 179h3924l-99 -179h130l30 56l32 -56h130l-100 179h651l-99 -179h129l100 179h52l-97 -179h129l97 179
h605l-99 -179h129l100 179h53l-97 -179h127l100 179h4870l125 -264h-2237v-18h-119v18h119v169h-133v94h-118v-94h-133v-169h-1533l-2 -22h1535v-115h118v-81h15v81h-15v55q-1 30 -1 60h-117v22h117q-1 27 -1 54h17v-54h-16v-22h16v-115h118v-81h14v68h119v-183h-133v-103
h-118v103h-133v196h-2063v115h-225v19h225v-19h167q-3 -18 -3 -36q0 -11 0.5 -23t1.5 -23zM784 197v102h-260q9 25 9 52q0 37 -12 63h-457q6 11 14 22h428q-14 18 -33 30q-27 16 -62 22.5t-72 6.5h-47q-13 0 -31 0.5t-38 4.5q-40 8 -50 25q-2 4 -2.5 9t-0.5 11q0 23 41 32
q20 5 40.5 6t34.5 1q18 0 38.5 -1.5t41 -4.5t39.5 -7.5t33 -11.5l38 -18q1 -1 5.5 -1.5t5.5 -0.5h13v117l-7 3q-19 11 -46.5 18t-56.5 12t-57.5 7t-49.5 2q-39 0 -80.5 -6.5t-75 -23.5t-55 -47.5t-21.5 -78.5q0 -26 8.5 -50t28.5 -44q-6 -6 -10 -12h-232v-22h218l-4 -12
q-9 -25 -9 -52q0 -29 7 -51h466v-1q-9 -25 -30 -46q39 -39 39 -97q0 -49 -23.5 -79.5t-59.5 -47.5t-79 -22.5t-82 -5.5q-21 0 -48 2.5t-54.5 7t-53.5 12t-45 17.5l-8 3v118h14q1 0 6.5 -0.5t5.5 -1.5l35 -18q15 -7 34 -12t40 -8t41.5 -4.5t37.5 -1.5q12 0 27.5 1t31 3
t29 5.5t20.5 8.5q12 9 12 24q0 6 -0.5 10.5t-3.5 8.5q-10 16 -54 24q-20 3 -39.5 3.5t-32.5 0.5q-38 0 -79.5 4t-75.5 19t-56 45q-9 12 -15 28h-212v115h-711v22h711v264h938v-92h-103v-114h103v-58h-278q6 -7 11 -14l4 -8h263v-115h119v-102h-119zM23404 414l-11 22h119
l-125 264h327l-126 -264h-76l10 -22h56l-24 -50h-8l-24 50h-118zM28616 301h453v113h-453v2h453v-2h574q2 -3 6 -6q15 -16 34.5 -25.5t39.5 -16.5l18 -6t19 -6l16.5 -5.5t13.5 -6.5q12 -6 18 -14t6 -22v-7h120v-299h-120v299h-2136q-8 2 -17 3l-39 4l9 30l-67 53h-16
l-27 -90h157q37 -8 63 -30q32 -28 32 -76q0 -24 -10 -47t-27.5 -40t-41.5 -27.5t-52 -10.5h-151v112h149q14 0 14 12q0 8 -7 8l-151 15l25 84h-1914l-35 62l30 53h-129l12 22h129l99 177h-129l-99 -177h-58l-12 -22h58l-30 -53l35 -62h129l106 -189h-129l-106 189h-58
l-35 62l30 53h-129l13 22h128l100 177h-130l-98 -177h-1590l-11 -22h1588l-29 -53l35 -62h128l107 -189h-130l-105 189h-1520v32h-113l39 83h-120l10 22h121l124 264h5994q-49 0 -88 -14t-67 -40t-43 -62.5t-15 -80.5q0 -34 10 -57l4 -10h-4014l-12 -22h3014v-113zM1431 197
v102h-528v115h-119v22h119v58h102v114h-102v92h528v-92h-104v-114h104v-32h-102v-26h-426v-22h426v-68h102v-47h118v-102h-118zM29964 0v299h-30v115h-291q-9 10 -15 22h306v264h30v-264h-30v-22h30v-115h119v-299h-119zM30518 196v103h-435v115h-119v22h119v264h435v-264
h-435v-22h435v-115h515v-103h-515zM27174 531h335v114h-335v-114zM28781 495h120v115h-120v-115zM31416 564v-12q0 -66 39 -107q5 -5 10 -9h-432v-22h470q28 -10 65 -10t65 10h-130q-22 8 -38 22h207q5 4 10 9q39 41 39 107v12h-99v-12v-4q0 -26 -11.5 -37.5t-42.5 -11.5
q-30 0 -42 11.5t-12 37.5v4v12h-98zM19112 436q10 -6 13 -6h3q0 1 1 3q1 1 1 3h109v8q0 13 -1 25.5t-3 25.5l-2 11l-120 -13l5 -14q5 -11 8.5 -21t3.5 -20v-2h-18zM18128 431l5 5h127l33 60h-99zM18065 311h126l57 103h-240l-12 22h127l-59 60h-101l33 -60h-261l-12 -22h285
zM7984 377h320v37h-320v22h320v56h-320v-56h-412l-58 -22h470v-37zM23328 63v115h164v38h-164v83h-2305v115h-118v22h118v54h14v-54h-14v-22h2381l39 -83h-115v-32h444v-83h-162v-38h162v-115h-162v-63h-118v63h-164zM17600 426l5 10h130l25 46h-130l-25 -46h-11zM17538 302
h123l62 112h-247l-12 22h130l-25 46h-130l25 -46h-550l-13 -22h575zM4243 404q2 3 4 10h-126l8 22h128q2 2 3 4q16 25 39 25q36 0 56 -15q7 -6 13 -14h-111q-2 -3 -4 -7l-6 -14v-1h131q2 -5 3 -10h-138zM13738 299v115h-118v22h118v16h30v-16h-30v-22h30v-115h118v-89h-118
v89h-30zM13506 299v11q0 62 25 100q2 2 3 4h-126l10 22h143q23 12 59 14v-14h-59q-16 -8 -27 -22h86v-115h118v-89h-118v89h-114zM13883 56v112l11 2q57 14 81 49q21 31 23 80h-112v115h-118v22h118v13q32 -2 54 -13h-54v-22h82q3 -4 6 -7q24 -39 24 -99v-9h120
q-2 -40 -15 -78q-15 -42 -43.5 -75.5t-69 -56.5t-91.5 -31zM410 369q4 -7 4 -20q0 -26 -47 -37q-22 -5 -45.5 -6.5t-37.5 -1.5q-12 0 -29.5 0.5t-35.5 3.5q-38 8 -46 23q-2 4 -2.5 8.5t-0.5 10.5q0 28 42 39q22 5 43 5q11 1 20.5 1h17.5q13 0 30.5 -0.5t35.5 -3.5
q40 -6 51 -22zM12991 299v4q0 8 1.5 16.5t6.5 16.5q9 14 23 14q10 0 28 -14q9 -7 20 -16t22 -19l2 -2h239q-3 -5 -5 -9q-14 -20 -37.5 -32t-60.5 -12q-47 0 -80 18q-32 16 -56 35h-103zM4085 288h-183q8 -38 28.5 -58.5t63.5 -20.5q10 0 18 0.5t15 2.5q20 8 34.5 30.5
t23.5 45.5zM28781 106v114h120v-114h-120zM14704 0l97 180h129l-98 -180h-128zM14519 0l99 180h130l-99 -180h-130zM14184 0l99 180h130l-101 -180h-128zM11276 0v115h453v-115h-453zM-1692 0v115h321v-115h-321z" />
    <glyph glyph-name="_1" horiz-adv-x="333" 
 />
    </font>
</defs>
</svg>
